<svg xmlns="http://www.w3.org/2000/svg" width="1024" height="1024" viewBox="0 0 1024 1024" fill="none" stroke="black" stroke-width="1"><path d="M 792,532 L 792,533 L 793,534 L 792,533 L 793,532 Z" fill="black"/>
<path d="M 859,476 L 858,477 L 858,478 L 859,479 L 859,481 L 860,482 L 860,484 L 861,485 L 861,487 L 862,488 L 862,490 L 863,491 L 863,493 L 864,494 L 864,496 L 865,497 L 865,498 L 866,499 L 866,501 L 867,502 L 867,504 L 868,505 L 868,507 L 869,508 L 869,510 L 870,511 L 870,513 L 871,514 L 871,516 L 872,517 L 872,518 L 873,519 L 873,521 L 874,522 L 874,524 L 875,525 L 875,527 L 876,528 L 876,530 L 877,531 L 877,533 L 878,534 L 878,535 L 879,536 L 879,539 L 880,540 L 880,543 L 881,544 L 881,546 L 880,547 L 880,550 L 879,551 L 879,552 L 873,558 L 872,558 L 871,559 L 870,559 L 869,560 L 864,560 L 862,562 L 862,577 L 864,577 L 865,578 L 868,578 L 869,577 L 874,577 L 875,576 L 876,576 L 877,575 L 878,575 L 879,574 L 880,574 L 886,568 L 886,567 L 888,565 L 888,564 L 890,562 L 890,561 L 891,560 L 891,559 L 892,558 L 892,557 L 893,556 L 893,555 L 894,554 L 894,552 L 895,551 L 895,550 L 896,549 L 896,547 L 897,546 L 897,545 L 898,544 L 898,542 L 899,541 L 899,539 L 900,538 L 900,537 L 901,536 L 901,534 L 902,533 L 902,532 L 903,531 L 903,529 L 904,528 L 904,527 L 905,526 L 905,524 L 906,523 L 906,522 L 907,521 L 907,519 L 908,518 L 908,516 L 909,515 L 909,514 L 910,513 L 910,511 L 911,510 L 911,509 L 912,508 L 912,506 L 913,505 L 913,504 L 914,503 L 914,501 L 915,500 L 915,498 L 916,497 L 916,496 L 917,495 L 917,493 L 918,492 L 918,491 L 919,490 L 919,488 L 920,487 L 920,486 L 921,485 L 921,483 L 922,482 L 922,481 L 923,480 L 923,476 L 907,476 L 907,477 L 906,478 L 906,480 L 905,481 L 905,483 L 904,484 L 904,486 L 903,487 L 903,489 L 902,490 L 902,492 L 901,493 L 901,495 L 900,496 L 900,498 L 899,499 L 899,500 L 898,501 L 898,503 L 897,504 L 897,506 L 896,507 L 896,509 L 895,510 L 895,512 L 894,513 L 894,515 L 893,516 L 893,518 L 892,519 L 892,521 L 891,522 L 890,521 L 890,519 L 889,518 L 889,517 L 888,516 L 888,514 L 887,513 L 887,511 L 886,510 L 886,508 L 885,507 L 885,505 L 884,504 L 884,502 L 883,501 L 883,498 L 882,497 L 882,496 L 881,495 L 881,493 L 880,492 L 880,490 L 879,489 L 879,487 L 878,486 L 878,484 L 877,483 L 877,481 L 876,480 L 876,478 L 875,477 L 875,476 Z" fill="black"/>
<path d="M 522,474 L 521,475 L 519,475 L 518,476 L 516,476 L 514,478 L 513,478 L 508,483 L 508,484 L 507,485 L 507,486 L 506,487 L 506,488 L 505,489 L 505,501 L 506,502 L 506,504 L 507,505 L 507,506 L 512,511 L 513,511 L 515,513 L 516,513 L 517,514 L 518,514 L 519,515 L 520,515 L 521,516 L 523,516 L 524,517 L 525,517 L 526,518 L 528,518 L 529,519 L 531,519 L 532,520 L 534,520 L 535,521 L 536,521 L 540,525 L 540,528 L 536,532 L 534,532 L 533,533 L 524,533 L 523,532 L 519,532 L 518,531 L 516,531 L 515,530 L 514,530 L 513,529 L 512,529 L 511,528 L 509,528 L 509,529 L 507,531 L 507,533 L 506,534 L 506,536 L 505,537 L 505,540 L 506,541 L 507,541 L 508,542 L 509,542 L 510,543 L 511,543 L 512,544 L 514,544 L 515,545 L 520,545 L 521,546 L 537,546 L 538,545 L 540,545 L 541,544 L 543,544 L 544,543 L 545,543 L 547,541 L 548,541 L 552,537 L 552,536 L 553,535 L 553,534 L 554,533 L 554,532 L 555,531 L 555,528 L 556,527 L 556,522 L 555,521 L 555,518 L 554,517 L 554,516 L 553,515 L 553,514 L 549,510 L 548,510 L 546,508 L 545,508 L 544,507 L 543,507 L 542,506 L 541,506 L 540,505 L 538,505 L 537,504 L 536,504 L 535,503 L 533,503 L 532,502 L 530,502 L 529,501 L 527,501 L 526,500 L 525,500 L 523,498 L 522,498 L 521,497 L 521,496 L 520,495 L 520,491 L 523,488 L 524,488 L 525,487 L 528,487 L 529,486 L 536,486 L 537,487 L 541,487 L 542,488 L 545,488 L 546,489 L 549,489 L 550,488 L 550,487 L 551,486 L 551,483 L 552,482 L 552,479 L 550,477 L 549,477 L 548,476 L 546,476 L 545,475 L 542,475 L 541,474 Z" fill="black"/>
<path d="M 468,474 L 467,475 L 463,475 L 462,476 L 461,476 L 460,477 L 459,477 L 458,478 L 457,478 L 455,480 L 454,480 L 451,483 L 450,482 L 450,476 L 449,475 L 435,475 L 434,476 L 434,544 L 435,545 L 450,545 L 451,544 L 451,543 L 452,542 L 452,501 L 453,500 L 453,499 L 454,498 L 454,497 L 458,493 L 459,493 L 460,492 L 461,492 L 462,491 L 468,491 L 469,492 L 471,492 L 472,493 L 473,493 L 475,495 L 475,496 L 476,497 L 476,498 L 477,499 L 477,500 L 478,501 L 478,543 L 480,545 L 495,545 L 496,544 L 496,497 L 495,496 L 495,493 L 494,492 L 494,490 L 493,489 L 493,488 L 492,487 L 492,486 L 490,484 L 490,483 L 486,479 L 485,479 L 483,477 L 482,477 L 481,476 L 479,476 L 478,475 L 475,475 L 474,474 Z" fill="black"/>
<path d="M 394,474 L 393,475 L 391,475 L 390,476 L 388,476 L 387,477 L 386,477 L 384,479 L 383,479 L 379,483 L 378,482 L 378,477 L 377,476 L 377,475 L 363,475 L 362,476 L 362,544 L 363,544 L 364,545 L 378,545 L 379,544 L 379,542 L 380,541 L 380,540 L 379,539 L 379,536 L 380,535 L 380,515 L 379,514 L 380,513 L 380,501 L 381,500 L 381,498 L 387,492 L 389,492 L 390,491 L 396,491 L 397,492 L 399,492 L 404,497 L 404,499 L 405,500 L 405,504 L 406,505 L 406,544 L 407,545 L 421,545 L 422,544 L 423,544 L 423,497 L 422,496 L 422,492 L 421,491 L 421,489 L 420,488 L 420,487 L 418,485 L 418,484 L 412,478 L 411,478 L 409,476 L 407,476 L 406,475 L 403,475 L 402,474 Z" fill="black"/>
<path d="M 825,473 L 824,474 L 816,474 L 815,475 L 812,475 L 811,476 L 809,476 L 808,477 L 806,477 L 804,479 L 804,490 L 808,490 L 809,489 L 810,489 L 811,488 L 813,488 L 814,487 L 816,487 L 817,486 L 828,486 L 829,487 L 831,487 L 833,489 L 834,489 L 835,490 L 835,491 L 837,493 L 837,495 L 838,496 L 838,500 L 837,501 L 834,501 L 833,500 L 818,500 L 817,501 L 813,501 L 812,502 L 811,502 L 810,503 L 808,503 L 807,504 L 806,504 L 803,507 L 802,507 L 802,508 L 799,511 L 799,512 L 798,513 L 798,514 L 797,515 L 797,517 L 796,518 L 796,531 L 797,532 L 797,534 L 798,535 L 798,536 L 801,539 L 801,540 L 802,540 L 805,543 L 806,543 L 807,544 L 809,544 L 810,545 L 814,545 L 815,546 L 821,546 L 822,545 L 827,545 L 828,544 L 829,544 L 830,543 L 832,543 L 835,540 L 836,540 L 837,539 L 838,540 L 838,544 L 839,545 L 854,545 L 855,544 L 855,496 L 854,495 L 854,491 L 853,490 L 853,488 L 852,487 L 852,486 L 851,485 L 851,484 L 845,478 L 844,478 L 843,477 L 842,477 L 841,476 L 840,476 L 839,475 L 836,475 L 835,474 L 829,474 L 828,473 Z" fill="black"/>
<path d="M 637,473 L 636,474 L 630,474 L 629,475 L 627,475 L 626,476 L 624,476 L 623,477 L 621,477 L 620,478 L 619,478 L 619,481 L 618,482 L 618,489 L 619,490 L 622,490 L 623,489 L 624,489 L 625,488 L 627,488 L 628,487 L 630,487 L 631,486 L 643,486 L 644,487 L 646,487 L 648,489 L 649,489 L 650,490 L 650,491 L 652,493 L 652,495 L 653,496 L 653,500 L 652,501 L 650,501 L 649,500 L 632,500 L 631,501 L 628,501 L 627,502 L 625,502 L 624,503 L 622,503 L 620,505 L 619,505 L 614,510 L 614,511 L 612,513 L 612,515 L 611,516 L 611,519 L 610,520 L 610,529 L 611,530 L 611,533 L 612,534 L 612,535 L 613,536 L 613,537 L 619,543 L 620,543 L 621,544 L 623,544 L 624,545 L 627,545 L 628,546 L 637,546 L 638,545 L 642,545 L 643,544 L 645,544 L 647,542 L 648,542 L 652,538 L 653,539 L 653,544 L 654,545 L 669,545 L 670,544 L 670,496 L 669,495 L 669,491 L 668,490 L 668,488 L 667,487 L 667,486 L 666,485 L 666,484 L 660,478 L 659,478 L 657,476 L 655,476 L 654,475 L 651,475 L 650,474 L 644,474 L 643,473 Z" fill="black"/>
<path d="M 462,472 L 463,472 Z" fill="black"/>
<path d="M 755,461 L 755,462 Z" fill="black"/>
<path d="M 766,459 L 765,460 L 760,460 L 759,461 L 758,461 L 758,464 L 757,465 L 757,472 L 753,476 L 748,476 L 746,478 L 746,490 L 747,491 L 754,491 L 755,492 L 755,526 L 756,527 L 756,531 L 757,532 L 757,534 L 758,535 L 758,536 L 759,537 L 759,538 L 764,543 L 765,543 L 766,544 L 767,544 L 768,545 L 770,545 L 771,546 L 783,546 L 784,545 L 787,545 L 788,544 L 789,544 L 790,543 L 790,535 L 789,534 L 789,531 L 788,530 L 788,529 L 787,529 L 786,530 L 785,530 L 784,531 L 779,531 L 778,530 L 777,530 L 774,527 L 774,524 L 773,523 L 773,492 L 775,490 L 789,490 L 789,489 L 790,488 L 790,479 L 789,478 L 789,476 L 775,476 L 773,474 L 773,472 L 772,471 L 772,460 L 771,459 Z" fill="black"/>
<path d="M 580,459 L 579,460 L 575,460 L 574,461 L 572,461 L 572,471 L 571,472 L 571,473 L 569,475 L 568,475 L 567,476 L 562,476 L 561,477 L 561,490 L 562,491 L 568,491 L 569,492 L 569,524 L 570,525 L 570,531 L 571,532 L 571,534 L 572,535 L 572,536 L 573,537 L 573,538 L 579,544 L 580,544 L 581,545 L 583,545 L 584,546 L 598,546 L 599,545 L 601,545 L 602,544 L 603,544 L 604,543 L 604,535 L 603,534 L 603,531 L 601,529 L 600,530 L 599,530 L 598,531 L 592,531 L 588,527 L 588,525 L 587,524 L 587,491 L 588,490 L 603,490 L 603,489 L 604,488 L 604,481 L 603,480 L 603,477 L 602,476 L 589,476 L 587,474 L 587,473 L 586,472 L 586,460 L 585,459 Z" fill="black"/>
<path d="M 702,446 L 701,447 L 698,447 L 697,448 L 696,448 L 695,449 L 694,449 L 693,450 L 692,450 L 691,451 L 690,451 L 684,457 L 684,458 L 683,459 L 683,460 L 682,461 L 682,462 L 681,463 L 681,465 L 680,466 L 680,473 L 679,474 L 680,475 L 680,481 L 681,482 L 681,484 L 682,485 L 682,486 L 683,487 L 683,488 L 685,490 L 685,491 L 687,493 L 688,493 L 691,496 L 692,496 L 693,497 L 694,497 L 696,499 L 697,499 L 698,500 L 699,500 L 700,501 L 702,501 L 703,502 L 704,502 L 705,503 L 706,503 L 707,504 L 709,504 L 710,505 L 711,505 L 712,506 L 713,506 L 714,507 L 715,507 L 717,509 L 718,509 L 719,510 L 719,511 L 721,513 L 721,514 L 722,515 L 722,521 L 721,522 L 721,524 L 717,528 L 716,528 L 715,529 L 711,529 L 710,530 L 704,530 L 703,529 L 699,529 L 698,528 L 696,528 L 695,527 L 693,527 L 692,526 L 691,526 L 690,525 L 689,525 L 687,523 L 685,523 L 684,524 L 684,525 L 682,527 L 682,528 L 680,530 L 680,531 L 679,532 L 679,533 L 678,534 L 678,535 L 679,536 L 679,537 L 681,539 L 682,539 L 683,540 L 684,540 L 686,542 L 687,542 L 688,543 L 690,543 L 691,544 L 693,544 L 694,545 L 698,545 L 699,546 L 715,546 L 716,545 L 719,545 L 720,544 L 722,544 L 723,543 L 724,543 L 725,542 L 726,542 L 727,541 L 728,541 L 734,535 L 734,534 L 736,532 L 736,531 L 737,530 L 737,528 L 738,527 L 738,525 L 739,524 L 739,517 L 740,516 L 739,515 L 739,509 L 738,508 L 738,506 L 737,505 L 737,504 L 736,503 L 736,502 L 733,499 L 733,498 L 732,498 L 728,494 L 727,494 L 726,493 L 725,493 L 724,492 L 723,492 L 722,491 L 721,491 L 720,490 L 719,490 L 718,489 L 717,489 L 716,488 L 715,488 L 714,487 L 713,487 L 712,486 L 711,486 L 710,485 L 709,485 L 708,484 L 707,484 L 706,483 L 705,483 L 703,481 L 702,481 L 698,477 L 698,476 L 697,475 L 697,468 L 698,467 L 698,466 L 701,463 L 702,463 L 703,462 L 705,462 L 706,461 L 718,461 L 719,462 L 722,462 L 723,463 L 724,463 L 725,464 L 726,464 L 727,465 L 728,465 L 729,466 L 732,466 L 734,464 L 734,462 L 735,461 L 735,460 L 736,459 L 736,457 L 737,456 L 737,455 L 734,452 L 733,452 L 732,451 L 731,451 L 730,450 L 729,450 L 728,449 L 727,449 L 726,448 L 724,448 L 723,447 L 719,447 L 718,446 Z" fill="black"/>
<path d="M 333,446 L 332,447 L 331,447 L 331,455 L 330,456 L 330,458 L 331,459 L 331,464 L 330,465 L 330,537 L 331,538 L 330,539 L 330,540 L 331,541 L 331,544 L 332,545 L 347,545 L 349,543 L 349,448 L 347,446 Z" fill="black"/>
<path d="M 190,407 L 189,408 L 183,408 L 182,409 L 178,409 L 177,410 L 174,410 L 173,411 L 171,411 L 170,412 L 169,412 L 168,413 L 166,413 L 165,414 L 163,414 L 162,415 L 161,415 L 160,416 L 159,416 L 158,417 L 157,417 L 156,418 L 155,418 L 154,419 L 153,419 L 151,421 L 150,421 L 149,422 L 148,422 L 145,425 L 144,425 L 142,427 L 141,427 L 133,435 L 132,435 L 132,436 L 126,442 L 126,443 L 123,446 L 123,447 L 120,450 L 120,451 L 119,452 L 119,453 L 117,455 L 117,456 L 116,457 L 116,458 L 115,459 L 115,460 L 114,461 L 114,462 L 113,463 L 113,465 L 112,466 L 112,467 L 111,468 L 111,470 L 110,471 L 110,473 L 109,474 L 109,476 L 108,477 L 108,480 L 107,481 L 107,485 L 106,486 L 106,494 L 105,495 L 105,510 L 106,511 L 106,518 L 107,519 L 107,524 L 108,525 L 108,527 L 109,528 L 109,531 L 110,532 L 110,534 L 111,535 L 111,536 L 112,537 L 112,539 L 113,540 L 113,541 L 114,542 L 114,543 L 115,544 L 115,546 L 117,548 L 117,549 L 118,550 L 118,551 L 119,552 L 119,553 L 121,555 L 121,556 L 123,558 L 123,559 L 126,562 L 126,563 L 141,578 L 142,578 L 144,580 L 145,580 L 148,583 L 149,583 L 150,584 L 151,584 L 153,586 L 154,586 L 155,587 L 156,587 L 157,588 L 158,588 L 159,589 L 160,589 L 161,590 L 163,590 L 164,591 L 165,591 L 166,592 L 168,592 L 169,593 L 171,593 L 172,594 L 174,594 L 175,595 L 177,595 L 178,596 L 182,596 L 183,597 L 188,597 L 189,598 L 214,598 L 215,597 L 219,597 L 220,596 L 224,596 L 225,595 L 228,595 L 229,594 L 230,594 L 231,593 L 233,593 L 234,592 L 236,592 L 237,591 L 238,591 L 239,590 L 241,590 L 242,589 L 243,589 L 245,587 L 246,587 L 247,586 L 248,586 L 249,585 L 250,585 L 252,583 L 253,583 L 255,581 L 256,581 L 258,579 L 259,579 L 265,573 L 266,573 L 269,570 L 269,569 L 275,563 L 275,562 L 278,559 L 278,558 L 280,556 L 280,555 L 282,553 L 282,552 L 283,551 L 283,550 L 284,549 L 284,548 L 285,547 L 285,546 L 286,545 L 286,544 L 287,543 L 287,542 L 288,541 L 288,539 L 289,538 L 289,537 L 290,536 L 290,534 L 291,533 L 291,531 L 292,530 L 292,527 L 293,526 L 293,522 L 294,521 L 294,517 L 295,516 L 295,488 L 294,487 L 294,482 L 293,481 L 293,478 L 292,477 L 292,475 L 291,474 L 291,471 L 290,470 L 290,468 L 289,467 L 289,466 L 288,465 L 288,463 L 287,462 L 287,461 L 286,460 L 286,459 L 285,458 L 285,457 L 284,456 L 284,455 L 282,453 L 282,452 L 280,450 L 280,449 L 278,447 L 278,446 L 275,443 L 275,442 L 261,428 L 260,428 L 257,425 L 256,425 L 254,423 L 253,423 L 251,421 L 250,421 L 248,419 L 247,419 L 246,418 L 245,418 L 244,417 L 243,417 L 242,416 L 241,416 L 240,415 L 238,415 L 237,414 L 236,414 L 235,413 L 233,413 L 232,412 L 230,412 L 229,411 L 227,411 L 226,410 L 223,410 L 222,409 L 218,409 L 217,408 L 211,408 L 210,407 Z" fill="black"/>
<path d="M 565,35 L 566,36 L 566,35 Z" fill="black"/></svg>