<?xml version="1.0" encoding="utf-8" ?>
<svg baseProfile="tiny" height="192" version="1.2" viewBox="0 0 819 192" width="819" xmlns="http://www.w3.org/2000/svg" xmlns:ev="http://www.w3.org/2001/xml-events" xmlns:xlink="http://www.w3.org/1999/xlink"><defs /><polygon fill="#1a2d3e" points="754,69 754,73 755,74 755,76 756,77 756,79 757,80 757,82 758,83 758,85 759,86 759,88 760,89 760,91 761,92 761,94 762,95 762,96 763,97 763,99 764,100 764,102 765,103 765,105 766,106 766,108 767,109 767,111 768,112 768,114 769,115 769,116 770,117 770,119 771,120 771,122 772,123 772,125 773,126 773,128 774,129 774,131 775,132 775,134 776,135 776,141 775,142 775,143 774,144 774,145 773,146 773,147 770,150 769,150 767,152 765,152 764,153 759,153 757,155 757,169 758,170 768,170 769,169 771,169 772,168 773,168 775,166 776,166 780,162 780,161 783,158 783,157 784,156 784,155 785,154 785,153 786,152 786,151 787,150 787,149 788,148 788,147 789,146 789,145 790,144 790,142 791,141 791,140 792,139 792,137 793,136 793,135 794,134 794,132 795,131 795,130 796,129 796,127 797,126 797,124 798,123 798,122 799,121 799,120 800,119 800,117 801,116 801,114 802,113 802,111 803,110 803,109 804,108 804,106 805,105 805,104 806,103 806,101 807,100 807,99 808,98 808,96 809,95 809,93 810,92 810,91 811,90 811,88 812,87 812,86 813,85 813,83 814,82 814,81 815,80 815,78 816,77 816,76 817,75 817,73 818,72 818,69 803,69 802,70 802,71 801,72 801,74 800,75 800,76 799,77 799,79 798,80 798,82 797,83 797,85 796,86 796,88 795,89 795,91 794,92 794,94 793,95 793,97 792,98 792,100 791,101 791,103 790,104 790,105 789,106 789,108 788,109 788,111 787,112 787,114 786,115 785,114 785,113 784,112 784,110 783,109 783,107 782,106 782,104 781,103 781,101 780,100 780,99 779,98 779,96 778,95 778,92 777,91 777,89 776,88 776,86 775,85 775,83 774,82 774,81 773,80 773,78 772,77 772,75 771,74 771,72 770,71 770,70 769,69" /><polygon fill="#1a2d3e" points="712,67 711,68 708,68 707,69 705,69 704,70 702,70 701,71 700,71 700,72 699,73 699,83 702,83 703,82 704,82 705,81 707,81 708,80 710,80 711,79 724,79 725,80 726,80 727,81 728,81 731,84 731,85 732,86 732,87 733,88 733,93 732,94 726,94 725,93 716,93 715,94 709,94 708,95 706,95 705,96 704,96 703,97 702,97 701,98 700,98 694,104 694,105 693,106 693,107 692,108 692,111 691,112 691,123 692,124 692,126 693,127 693,128 694,129 694,130 699,135 700,135 701,136 702,136 703,137 705,137 706,138 713,138 714,139 715,138 721,138 722,137 724,137 725,136 726,136 727,135 728,135 732,131 733,132 733,133 734,134 734,138 749,138 750,137 750,90 749,89 749,85 748,84 748,82 747,81 747,79 745,77 745,76 741,72 740,72 738,70 737,70 736,69 734,69 733,68 730,68 729,67" /><polygon fill="#1a2d3e" points="526,67 525,68 522,68 521,69 519,69 518,70 517,70 516,71 515,71 514,72 514,76 513,77 513,82 514,83 516,83 517,82 519,82 520,81 521,81 522,80 525,80 526,79 539,79 540,80 541,80 542,81 543,81 546,84 546,85 547,86 547,88 548,89 548,93 547,94 541,94 540,93 530,93 529,94 524,94 523,95 520,95 519,96 518,96 517,97 516,97 514,99 513,99 509,103 509,104 508,105 508,106 507,107 507,109 506,110 506,114 505,115 505,120 506,121 506,125 507,126 507,128 508,129 508,130 513,135 514,135 515,136 516,136 517,137 519,137 520,138 526,138 527,139 530,139 531,138 536,138 537,137 539,137 540,136 541,136 542,135 543,135 547,131 548,132 548,136 549,137 549,138 563,138 565,136 565,91 564,90 564,85 563,84 563,82 562,81 562,80 561,79 561,78 560,77 560,76 555,71 554,71 553,70 552,70 551,69 549,69 548,68 545,68 544,67" /><polygon fill="#1a2d3e" points="418,67 417,68 415,68 414,69 412,69 411,70 410,70 409,71 408,71 403,76 403,77 402,78 402,79 401,80 401,82 400,83 400,93 401,94 401,96 402,97 402,98 403,99 403,100 406,103 407,103 409,105 410,105 412,107 414,107 415,108 416,108 417,109 419,109 420,110 421,110 422,111 424,111 425,112 427,112 428,113 429,113 430,114 431,114 435,118 435,121 434,122 434,123 433,124 432,124 431,125 430,125 429,126 417,126 416,125 413,125 412,124 411,124 410,123 408,123 407,122 406,122 405,121 403,123 403,124 402,125 402,126 401,127 401,130 400,131 400,132 403,135 404,135 405,136 407,136 408,137 411,137 412,138 417,138 418,139 430,139 431,138 435,138 436,137 437,137 438,136 439,136 440,135 441,135 443,133 444,133 445,132 445,131 448,128 448,127 449,126 449,124 450,123 450,112 449,111 449,109 447,107 447,106 445,104 444,104 442,102 441,102 439,100 438,100 437,99 435,99 434,98 433,98 432,97 430,97 429,96 427,96 426,95 424,95 423,94 422,94 421,93 420,93 419,92 418,92 415,89 415,84 419,80 421,80 422,79 432,79 433,80 437,80 438,81 440,81 441,82 444,82 445,81 445,79 446,78 446,74 447,73 446,72 446,71 445,71 444,70 443,70 442,69 440,69 439,68 436,68 435,67" /><polygon fill="#1a2d3e" points="365,67 364,68 359,68 358,69 356,69 355,70 354,70 352,72 351,72 348,75 347,75 346,76 345,75 345,69 344,69 343,68 333,68 332,69 331,68 329,70 329,137 334,137 335,138 336,137 337,138 340,138 341,137 342,138 343,137 346,137 346,100 347,99 347,93 348,92 348,91 354,85 356,85 357,84 364,84 365,85 367,85 371,89 371,90 372,91 372,93 373,94 373,102 374,103 374,137 375,137 376,138 377,138 378,137 379,138 387,138 388,137 391,137 391,92 390,91 390,87 389,86 389,84 388,83 388,82 387,81 387,80 386,79 386,78 384,76 384,75 382,73 381,73 379,71 378,71 377,70 376,70 375,69 373,69 372,68 366,68" /><polygon fill="#1a2d3e" points="291,67 290,68 286,68 285,69 284,69 283,70 282,70 281,71 280,71 278,73 277,73 274,76 273,75 273,73 272,72 272,69 258,69 257,70 257,136 258,137 274,137 274,98 275,97 275,93 276,92 276,91 277,90 277,89 280,86 281,86 282,85 283,85 284,84 292,84 293,85 294,85 295,86 296,86 298,88 298,89 299,90 299,91 300,92 300,95 301,96 301,137 317,137 318,136 318,91 317,90 317,86 316,85 316,83 315,82 315,81 314,80 314,79 313,78 313,77 307,71 306,71 305,70 304,70 303,69 301,69 300,68 297,68 296,67" /><polygon fill="#1a2d3e" points="662,52 661,53 656,53 655,54 653,54 653,63 652,64 652,66 650,68 649,68 648,69 645,69 644,70 642,70 642,73 641,74 641,82 643,84 649,84 650,85 650,117 651,118 651,123 652,124 652,126 653,127 653,129 655,131 655,132 658,135 659,135 661,137 662,137 663,138 666,138 667,139 676,139 677,138 681,138 682,137 684,137 685,136 685,129 684,128 684,124 683,123 681,123 680,124 673,124 669,120 669,118 668,117 668,84 669,83 684,83 684,70 683,69 670,69 667,66 667,53 666,52" /><polygon fill="#1a2d3e" points="477,52 476,53 471,53 470,54 468,54 467,55 467,64 466,65 466,66 463,69 460,69 459,70 456,70 456,83 457,84 463,84 464,85 464,96 465,97 464,98 464,108 465,109 465,123 466,124 466,126 467,127 467,129 469,131 469,132 473,136 474,136 475,137 476,137 477,138 479,138 480,139 491,139 492,138 496,138 497,137 498,137 499,136 499,129 498,128 498,125 497,124 497,123 495,123 494,124 487,124 486,123 485,123 483,121 483,119 482,118 482,84 483,83 498,83 498,70 497,69 484,69 481,66 481,54 480,53 480,52" /><polygon fill="#1a2d3e" points="226,40 226,137 243,137 244,136 244,42 243,41 243,40" /><polygon fill="#1a2d3e" points="599,39 598,40 594,40 593,41 591,41 590,42 589,42 588,43 587,43 585,45 584,45 580,49 580,50 578,52 578,53 577,54 577,55 576,56 576,58 575,59 575,73 576,74 576,77 577,78 577,79 578,80 578,81 585,88 586,88 588,90 589,90 590,91 591,91 592,92 593,92 594,93 595,93 596,94 597,94 598,95 599,95 600,96 602,96 603,97 604,97 605,98 606,98 607,99 608,99 609,100 610,100 611,101 612,101 616,105 616,106 617,107 617,115 616,116 616,117 612,121 611,121 610,122 608,122 607,123 597,123 596,122 593,122 592,121 590,121 589,120 588,120 587,119 586,119 585,118 584,118 582,116 580,116 580,117 578,119 578,120 576,122 576,123 574,125 574,126 573,127 573,128 578,133 579,133 580,134 581,134 582,135 583,135 584,136 586,136 587,137 589,137 590,138 594,138 595,139 608,139 609,138 613,138 614,137 617,137 618,136 619,136 620,135 621,135 624,132 625,132 628,129 628,128 630,126 630,125 631,124 631,123 632,122 632,120 633,119 633,117 634,116 634,103 633,102 633,99 632,98 632,97 630,95 630,94 624,88 623,88 621,86 620,86 619,85 618,85 617,84 616,84 615,83 614,83 613,82 612,82 611,81 610,81 609,80 607,80 606,79 605,79 604,78 603,78 602,77 601,77 599,75 598,75 592,69 592,66 591,65 591,64 592,63 592,61 593,60 593,59 596,56 597,56 598,55 599,55 600,54 614,54 615,55 617,55 618,56 620,56 621,57 622,57 623,58 624,58 625,59 627,59 628,58 628,57 629,56 629,55 630,54 630,52 631,51 631,47 630,46 629,46 627,44 626,44 625,43 624,43 623,42 621,42 620,41 618,41 617,40 613,40 612,39" /><polygon fill="#1a2d3e" points="87,0 86,1 80,1 79,2 74,2 73,3 70,3 69,4 67,4 66,5 64,5 63,6 62,6 61,7 59,7 58,8 57,8 56,9 55,9 54,10 53,10 52,11 51,11 50,12 49,12 48,13 47,13 46,14 45,14 43,16 42,16 39,19 38,19 35,22 34,22 22,34 22,35 19,38 19,39 16,42 16,43 14,45 14,46 13,47 13,48 12,49 12,50 11,51 11,52 10,53 10,54 9,55 9,56 8,57 8,58 7,59 7,61 6,62 6,63 5,64 5,66 4,67 4,70 3,71 3,74 2,75 2,80 1,81 1,91 0,92 0,99 1,100 1,110 2,111 2,115 3,116 3,120 4,121 4,123 5,124 5,126 6,127 6,129 7,130 7,131 8,132 8,134 9,135 9,136 10,137 10,138 11,139 11,140 12,141 12,142 13,143 13,144 15,146 15,147 17,149 17,150 19,152 19,153 23,157 23,158 34,169 35,169 39,173 40,173 42,175 43,175 44,176 45,176 47,178 48,178 49,179 50,179 52,181 53,181 54,182 56,182 57,183 58,183 59,184 61,184 62,185 64,185 65,186 67,186 68,187 70,187 71,188 74,188 75,189 79,189 80,190 86,190 87,191 106,191 107,190 112,190 113,189 117,189 118,188 121,188 122,187 124,187 125,186 127,186 128,185 130,185 131,184 133,184 134,183 135,183 136,182 137,182 138,181 139,181 140,180 141,180 142,179 143,179 145,177 146,177 148,175 149,175 151,173 152,173 155,170 156,170 168,158 168,157 172,153 172,152 174,150 174,149 176,147 176,146 177,145 177,144 178,143 178,142 180,140 180,138 181,137 181,136 182,135 182,134 183,133 183,132 184,131 184,129 185,128 185,126 186,125 186,123 187,122 187,119 188,118 188,114 189,113 189,107 190,106 190,84 189,83 189,77 188,76 188,72 187,71 187,68 186,67 186,65 185,64 185,62 184,61 184,60 183,59 183,57 182,56 182,55 181,54 181,53 180,52 180,51 179,50 179,49 178,48 178,47 176,45 176,44 174,42 174,41 172,39 172,38 168,34 168,33 158,23 157,23 153,19 152,19 150,17 149,17 147,15 146,15 144,13 143,13 142,12 141,12 140,11 139,11 138,10 137,10 136,9 135,9 134,8 133,8 132,7 130,7 129,6 127,6 126,5 125,5 124,4 121,4 120,3 117,3 116,2 112,2 111,1 104,1 103,0" /></svg>