<svg width="1024" height="1024" viewBox="0 0 1024 1024" fill="none" xmlns="http://www.w3.org/2000/svg">
<path d="M262.33 429.92L264.12 432.4C264.145 432.432 264.159 432.47 264.162 432.51C264.164 432.55 264.154 432.59 264.134 432.625C264.113 432.659 264.083 432.687 264.047 432.704C264.01 432.721 263.97 432.726 263.93 432.72C262.263 432.413 260.847 431.777 259.68 430.81C249.85 422.63 236.83 415.54 223.9 413C219.13 412.07 210.26 408.94 202.86 409.27C194.66 409.637 187.36 410.483 180.96 411.81C165.747 414.97 152.12 421.637 140.08 431.81C133.74 437.17 128.25 444.12 123.37 451.07C115.35 462.51 110.32 475.197 108.28 489.13C104.79 513.1 111.65 540.52 126.69 559.56C129.723 563.4 132.293 566.633 134.4 569.26C134.606 569.512 134.844 569.737 135.11 569.93C138.557 572.39 141.127 575.38 142.82 578.9C135.273 573.127 128.847 566.403 123.54 558.73C107.42 535.443 102.233 509.94 107.98 482.22C111.92 463.167 121.197 446.787 135.81 433.08C170.78 400.27 225.41 398.73 262.33 429.92Z" fill="#081C2F"/>
<path d="M262.33 429.92C286.91 450.53 298.32 480.46 295.26 512.23C289.12 575.81 226.73 614.85 166.73 592.25C157.77 588.87 149.8 584.42 142.82 578.9C141.127 575.38 138.557 572.39 135.11 569.93C134.844 569.737 134.606 569.512 134.4 569.26C132.293 566.633 129.723 563.4 126.69 559.56C111.65 540.52 104.79 513.1 108.28 489.13C110.32 475.197 115.35 462.51 123.37 451.07C128.25 444.12 133.74 437.17 140.08 431.81C152.12 421.637 165.747 414.97 180.96 411.81C187.36 410.483 194.66 409.637 202.86 409.27C210.26 408.94 219.13 412.07 223.9 413C236.83 415.54 249.85 422.63 259.68 430.81C260.847 431.777 262.263 432.413 263.93 432.72C263.97 432.726 264.01 432.721 264.047 432.704C264.083 432.687 264.113 432.659 264.134 432.625C264.154 432.59 264.164 432.55 264.162 432.51C264.159 432.47 264.145 432.432 264.12 432.4L262.33 429.92ZM246.29 555.59C248.277 554.47 249.277 552.773 249.29 550.5C249.377 534.953 249.353 519.543 249.22 504.27C249.219 504.179 249.236 504.088 249.27 504.003C249.305 503.918 249.356 503.841 249.421 503.776C249.487 503.711 249.564 503.659 249.65 503.624C249.735 503.588 249.827 503.57 249.92 503.57H256.71C257.397 503.57 258.056 503.297 258.541 502.811C259.027 502.326 259.3 501.667 259.3 500.98V493.96C259.3 493.521 259.21 493.088 259.036 492.687C258.863 492.286 258.609 491.926 258.29 491.63L210.92 447.65C211.287 447.417 211.843 447.423 212.59 447.67C212.631 447.682 212.675 447.683 212.717 447.67C212.758 447.658 212.795 447.634 212.822 447.601C212.85 447.568 212.867 447.527 212.872 447.485C212.877 447.442 212.869 447.398 212.85 447.36C209.01 440.62 201.22 434.46 193.8 441.24C185.62 448.72 178.69 454.26 176.22 457.1C175.273 458.193 171.263 461.92 164.19 468.28C158.84 473.09 154.26 478.38 149.18 483.38C146.46 486.05 142.14 488.91 140.7 492.05C139.12 495.5 139.24 501.49 142.44 504.36C142.641 504.541 142.894 504.651 143.16 504.67L149.32 505.09C149.467 505.1 149.604 505.166 149.704 505.273C149.805 505.381 149.86 505.523 149.86 505.67C149.613 522.217 149.547 536.573 149.66 548.74C149.69 551.59 150.61 556.88 154 556.84C173.347 556.633 186.347 556.59 193 556.71C212.193 557.043 229.957 556.67 246.29 555.59Z" fill="#1D3542"/>
<path d="M210.92 447.65L202.46 439.83C202.256 439.646 202.009 439.512 201.74 439.44C200.233 439.053 198.817 439.483 197.49 440.73C183.01 454.29 164.83 471.157 142.95 491.33C142.546 491.702 142.224 492.153 142.004 492.654C141.784 493.155 141.67 493.695 141.67 494.24V500.81C141.67 501.518 141.951 502.197 142.452 502.698C142.953 503.199 143.632 503.48 144.34 503.48H151.04C151.134 503.48 151.227 503.499 151.314 503.535C151.401 503.571 151.48 503.624 151.546 503.691C151.612 503.758 151.664 503.838 151.699 503.925C151.734 504.013 151.751 504.106 151.75 504.2C151.59 517.393 151.54 532.977 151.6 550.95C151.607 553.783 152.99 555.197 155.75 555.19C190.683 555.117 220.863 555.25 246.29 555.59C229.957 556.67 212.193 557.043 193 556.71C186.347 556.59 173.347 556.633 154 556.84C150.61 556.88 149.69 551.59 149.66 548.74C149.547 536.573 149.613 522.217 149.86 505.67C149.86 505.523 149.805 505.381 149.704 505.273C149.604 505.166 149.467 505.1 149.32 505.09L143.16 504.67C142.894 504.651 142.641 504.541 142.44 504.36C139.24 501.49 139.12 495.5 140.7 492.05C142.14 488.91 146.46 486.05 149.18 483.38C154.26 478.38 158.84 473.09 164.19 468.28C171.263 461.92 175.273 458.193 176.22 457.1C178.69 454.26 185.62 448.72 193.8 441.24C201.22 434.46 209.01 440.62 212.85 447.36C212.869 447.398 212.877 447.442 212.872 447.485C212.867 447.527 212.85 447.568 212.822 447.601C212.795 447.634 212.758 447.658 212.717 447.67C212.675 447.683 212.631 447.682 212.59 447.67C211.843 447.423 211.287 447.417 210.92 447.65Z" fill="#081C2F"/>
<path d="M210.92 447.65L258.29 491.63C258.609 491.926 258.863 492.286 259.036 492.687C259.21 493.088 259.3 493.521 259.3 493.96V500.98C259.3 501.667 259.027 502.326 258.541 502.811C258.056 503.297 257.397 503.57 256.71 503.57H249.92C249.827 503.57 249.735 503.588 249.65 503.624C249.564 503.659 249.487 503.711 249.421 503.776C249.356 503.841 249.305 503.918 249.27 504.003C249.236 504.088 249.219 504.179 249.22 504.27C249.353 519.543 249.377 534.953 249.29 550.5C249.277 552.773 248.277 554.47 246.29 555.59C220.863 555.25 190.683 555.117 155.75 555.19C152.99 555.197 151.607 553.783 151.6 550.95C151.54 532.977 151.59 517.393 151.75 504.2C151.751 504.106 151.734 504.013 151.699 503.925C151.664 503.838 151.612 503.758 151.546 503.691C151.48 503.624 151.401 503.571 151.314 503.535C151.227 503.499 151.134 503.48 151.04 503.48H144.34C143.632 503.48 142.953 503.199 142.452 502.698C141.951 502.197 141.67 501.518 141.67 500.81V494.24C141.67 493.695 141.784 493.155 142.004 492.654C142.224 492.153 142.546 491.702 142.95 491.33C164.83 471.157 183.01 454.29 197.49 440.73C198.817 439.483 200.233 439.053 201.74 439.44C202.009 439.512 202.256 439.646 202.46 439.83L210.92 447.65ZM178.73 479.69L165.3 490.23C165.119 490.374 164.972 490.556 164.87 490.764C164.768 490.971 164.713 491.199 164.71 491.43L164.66 539.89L164.63 542.54C164.625 542.888 164.75 543.226 164.979 543.487C165.208 543.748 165.526 543.913 165.87 543.95L168.78 544.26C175.3 544.893 181.767 544.713 188.18 543.72C188.331 543.694 188.467 543.617 188.566 543.502C188.665 543.386 188.719 543.241 188.72 543.09C188.667 535.277 188.663 527.423 188.71 519.53C188.74 515.59 192.12 515.31 195.53 515.43C200.177 515.397 204.81 515.483 209.43 515.69C210.477 515.737 211.423 516.317 212.27 517.43C212.477 528.423 212.537 536.78 212.45 542.5C212.437 543.313 212.873 543.78 213.76 543.9C220.9 545.027 228.147 545.027 235.5 543.9C235.754 543.862 235.985 543.734 236.152 543.539C236.319 543.344 236.41 543.096 236.41 542.84L236.44 535.46L236.27 491.22C236.27 491.062 236.233 490.905 236.162 490.763C236.091 490.62 235.988 490.496 235.86 490.4L226.12 482.94L201.06 463.09C200.883 462.95 200.665 462.875 200.44 462.875C200.215 462.875 199.997 462.95 199.82 463.09L178.73 479.69Z" fill="#F5F4F5"/>
<path d="M732.31 466.83C732.199 466.971 732.041 467.068 731.865 467.103C731.689 467.138 731.506 467.108 731.35 467.02C722.99 462.15 713.96 459.62 704.43 462.41C696.47 464.74 694.75 474.86 700.99 480.08C703.57 482.24 706.297 483.983 709.17 485.31C719.48 490.07 726.95 492.68 733.3 498.91C741.39 506.86 741.4 520.8 737.08 530.36C730.86 544.14 717.26 547.29 703.46 546.51C694.97 546.04 685.19 543.18 679.33 536.82C679.002 536.461 678.797 536.006 678.745 535.522C678.693 535.039 678.796 534.551 679.04 534.13L685.17 523.51C685.248 523.376 685.353 523.259 685.479 523.169C685.605 523.078 685.749 523.015 685.901 522.984C686.053 522.953 686.21 522.954 686.362 522.988C686.513 523.022 686.656 523.087 686.78 523.18C692.68 527.58 699.337 529.947 706.75 530.28C713.49 530.59 720.78 528.67 722.26 521.03C723.84 512.92 718.51 508.9 711.83 506.04C695.64 499.13 680.43 494.01 679.94 474.79C679.57 460.05 688.69 449.2 703.18 446.93C713.87 445.25 725.17 446.91 734.27 452.69C735.383 453.397 736.267 454.227 736.92 455.18C737.024 455.338 737.096 455.515 737.13 455.7C737.164 455.886 737.161 456.076 737.12 456.26C736.153 460.447 734.55 463.97 732.31 466.83ZM682.34 537.45C687.89 540.61 693.29 543.52 699.03 544.52C702.983 545.213 707.697 545.247 713.17 544.62C727.42 543 735.97 534.3 737.39 520.55C738.21 512.61 736.97 504.64 730.77 499.35C727.57 496.617 724.75 494.673 722.31 493.52C715.01 490.08 709.397 487.28 705.47 485.12C699.75 481.98 695.21 477.52 696 470.48C696.447 466.58 698.517 463.687 702.21 461.8C712.04 456.81 721.32 459.52 730.36 464.7C730.513 464.787 730.682 464.842 730.857 464.86C731.031 464.878 731.208 464.86 731.374 464.806C731.541 464.753 731.695 464.665 731.825 464.548C731.955 464.432 732.059 464.289 732.13 464.13L735.41 456.84C735.496 456.649 735.516 456.434 735.465 456.229C735.414 456.024 735.296 455.841 735.13 455.71C726.34 448.72 716.18 447.39 705.08 448.41C701.187 448.763 698.147 449.537 695.96 450.73C689.86 454.05 684.18 460.07 682.7 466.94C680.81 475.64 682.31 486.27 689.49 492.06C697.22 498.3 707.75 501.82 715.37 505.63C717.883 506.877 719.95 508.643 721.57 510.93C725.8 516.88 724.23 526.11 717.95 529.75C709.54 534.63 695.97 531.21 687.64 526.26C687.376 526.102 687.065 526.044 686.763 526.097C686.462 526.151 686.19 526.312 686 526.55C683.693 529.41 682.167 532.327 681.42 535.3C681.317 535.708 681.352 536.14 681.518 536.528C681.684 536.916 681.973 537.24 682.34 537.45ZM332.98 544.97C337.34 543.463 341.747 542.977 346.2 543.51C346.332 543.525 346.466 543.513 346.593 543.473C346.72 543.434 346.837 543.368 346.937 543.281C347.037 543.193 347.117 543.085 347.173 542.965C347.228 542.844 347.258 542.713 347.26 542.58C347.647 523.027 347.667 504.423 347.32 486.77C347.07 473.89 347.41 460.56 347.81 449.68C347.818 449.484 347.751 449.293 347.622 449.147C347.493 449.002 347.313 448.913 347.12 448.9C342.33 448.61 336.38 448.38 332.03 450.34C331.949 450.375 331.862 450.391 331.774 450.388C331.687 450.384 331.601 450.361 331.525 450.319C331.448 450.277 331.383 450.219 331.333 450.148C331.284 450.077 331.252 449.995 331.24 449.91L331.09 448.97C331.343 447.617 332.317 446.933 334.01 446.92C338.243 446.887 342.493 446.923 346.76 447.03C348.473 447.077 349.333 447.897 349.34 449.49C349.36 505.257 349.367 536.51 349.36 543.25C349.36 543.489 349.313 543.725 349.221 543.945C349.13 544.165 348.995 544.365 348.826 544.533C348.657 544.702 348.456 544.835 348.236 544.925C348.015 545.015 347.779 545.061 347.54 545.06L332.98 544.97Z" fill="#081C2F"/>
<path d="M682.34 537.45C681.973 537.24 681.684 536.916 681.518 536.528C681.352 536.14 681.317 535.708 681.42 535.3C682.167 532.327 683.693 529.41 686 526.55C686.19 526.312 686.462 526.151 686.763 526.097C687.065 526.044 687.376 526.102 687.64 526.26C695.97 531.21 709.54 534.63 717.95 529.75C724.23 526.11 725.8 516.88 721.57 510.93C719.95 508.643 717.883 506.877 715.37 505.63C707.75 501.82 697.22 498.3 689.49 492.06C682.31 486.27 680.81 475.64 682.7 466.94C684.18 460.07 689.86 454.05 695.96 450.73C698.147 449.537 701.187 448.763 705.08 448.41C716.18 447.39 726.34 448.72 735.13 455.71C735.296 455.841 735.414 456.024 735.465 456.229C735.516 456.434 735.496 456.649 735.41 456.84L732.13 464.13C732.059 464.289 731.955 464.432 731.825 464.548C731.695 464.665 731.541 464.753 731.374 464.806C731.208 464.86 731.031 464.878 730.857 464.86C730.682 464.842 730.513 464.787 730.36 464.7C721.32 459.52 712.04 456.81 702.21 461.8C698.517 463.687 696.447 466.58 696 470.48C695.21 477.52 699.75 481.98 705.47 485.12C709.397 487.28 715.01 490.08 722.31 493.52C724.75 494.673 727.57 496.617 730.77 499.35C736.97 504.64 738.21 512.61 737.39 520.55C735.97 534.3 727.42 543 713.17 544.62C707.697 545.247 702.983 545.213 699.03 544.52C693.29 543.52 687.89 540.61 682.34 537.45ZM332.98 544.97C331.74 545.23 331.113 544.72 331.1 543.44C331.013 530.34 331.01 498.85 331.09 448.97L331.24 449.91C331.252 449.996 331.284 450.077 331.334 450.148C331.383 450.219 331.448 450.277 331.525 450.319C331.601 450.361 331.687 450.384 331.774 450.388C331.862 450.391 331.949 450.375 332.03 450.34C336.38 448.38 342.33 448.61 347.12 448.9C347.313 448.913 347.493 449.002 347.622 449.147C347.751 449.293 347.818 449.484 347.81 449.68C347.41 460.56 347.07 473.89 347.32 486.77C347.667 504.423 347.647 523.027 347.26 542.58C347.258 542.713 347.228 542.844 347.173 542.965C347.117 543.085 347.037 543.193 346.937 543.281C346.837 543.368 346.72 543.434 346.593 543.473C346.466 543.513 346.332 543.525 346.2 543.51C341.747 542.977 337.34 543.463 332.98 544.97Z" fill="#1D3542"/>
<path d="M774.63 490.94C774.401 490.94 774.181 491.029 774.018 491.188C773.855 491.347 773.763 491.564 773.76 491.79C773.607 502.023 773.633 512.01 773.84 521.75C773.91 525.43 774.77 529.57 778.64 530.91C781.633 531.943 784.573 531.633 787.46 529.98C787.626 529.886 787.812 529.833 788.003 529.826C788.193 529.818 788.383 529.857 788.555 529.938C788.728 530.02 788.878 530.141 788.994 530.293C789.11 530.445 789.187 530.622 789.22 530.81L791.09 541.53C791.199 542.152 791.087 542.793 790.772 543.34C790.458 543.887 789.961 544.304 789.37 544.52C782.87 546.89 773.89 547.75 767.52 544.85C756.51 539.83 755.57 527.87 755.37 516.76C755.357 515.893 755.403 507.733 755.51 492.28C755.511 492.148 755.486 492.017 755.437 491.894C755.387 491.772 755.314 491.66 755.221 491.566C755.128 491.473 755.017 491.398 754.895 491.347C754.773 491.296 754.642 491.27 754.51 491.27H748.52C748.056 491.27 747.611 491.086 747.283 490.757C746.954 490.429 746.77 489.984 746.77 489.52V478.51C746.771 478.095 746.928 477.695 747.209 477.389C747.491 477.084 747.876 476.895 748.29 476.86C750.6 476.67 752.94 476.61 754.5 475.66C758.88 472.99 757.92 467.08 757.99 462.52C757.996 462.198 758.113 461.888 758.321 461.644C758.529 461.4 758.815 461.236 759.13 461.18L770.5 459.2C770.725 459.16 770.956 459.168 771.177 459.223C771.399 459.278 771.607 459.379 771.787 459.52C771.967 459.66 772.115 459.837 772.223 460.039C772.33 460.24 772.394 460.462 772.41 460.69C772.437 461.083 772.64 465.02 773.02 472.5C773.153 475.04 774.747 476.34 777.8 476.4C781.8 476.48 785.3 476.47 788.3 476.37C788.535 476.362 788.769 476.401 788.988 476.486C789.207 476.57 789.408 476.698 789.576 476.861C789.745 477.024 789.88 477.22 789.971 477.436C790.063 477.653 790.11 477.885 790.11 478.12V488.85C790.11 489.404 789.89 489.936 789.498 490.328C789.106 490.72 788.574 490.94 788.02 490.94H774.63ZM749.11 489.73H755.12C755.397 489.731 755.666 489.824 755.884 489.994C756.102 490.165 756.255 490.403 756.32 490.67C757.027 493.47 757.377 496.427 757.37 499.54C757.31 512.58 757.517 521.397 757.99 525.99C758.89 534.79 762.93 542.39 771.61 544.28C777.137 545.48 782.717 545.09 788.35 543.11C788.692 542.99 788.98 542.753 789.163 542.441C789.346 542.13 789.412 541.765 789.35 541.41L787.91 533.19C787.859 532.895 787.693 532.633 787.45 532.459C787.207 532.285 786.905 532.214 786.61 532.26C783.47 532.73 779.82 533.05 777.28 531.63C772.09 528.73 771.86 520.92 771.72 515.52C771.45 505.87 771.38 498.32 772.58 490.96C772.656 490.5 772.892 490.082 773.247 489.779C773.603 489.477 774.054 489.311 774.52 489.31H787.26C787.637 489.31 787.998 489.161 788.264 488.897C788.53 488.633 788.68 488.274 788.68 487.9V479.56C788.68 479.36 788.64 479.162 788.562 478.978C788.483 478.795 788.368 478.629 788.224 478.491C788.08 478.354 787.91 478.247 787.723 478.178C787.537 478.109 787.338 478.079 787.14 478.09C780.88 478.38 772.35 478.96 771.41 470.56C771.05 467.293 770.87 464.327 770.87 461.66C770.87 461.55 770.847 461.442 770.8 461.343C770.753 461.243 770.685 461.155 770.6 461.085C770.516 461.014 770.416 460.963 770.309 460.934C770.202 460.906 770.089 460.901 769.98 460.92L760.42 462.59C760.25 462.619 760.097 462.707 759.987 462.839C759.877 462.971 759.818 463.138 759.82 463.31C759.94 471.53 758.51 477.23 749.32 478.33C749.078 478.357 748.855 478.473 748.693 478.655C748.531 478.838 748.441 479.075 748.44 479.32V489.07C748.44 489.245 748.511 489.413 748.636 489.537C748.762 489.66 748.932 489.73 749.11 489.73ZM601.36 530C601.491 529.918 601.64 529.867 601.794 529.851C601.948 529.835 602.104 529.854 602.249 529.907C602.395 529.96 602.526 530.045 602.634 530.157C602.741 530.268 602.822 530.403 602.87 530.55C604.15 534.63 604.823 538.743 604.89 542.89C604.893 543.156 604.82 543.418 604.68 543.644C604.54 543.871 604.339 544.053 604.1 544.17C599.13 546.58 592.48 547.14 587.23 546.52C574.78 545.05 570.08 534.81 569.91 523.17C569.803 515.697 569.783 505.547 569.85 492.72C569.851 492.545 569.818 492.371 569.751 492.208C569.684 492.045 569.586 491.898 569.461 491.773C569.336 491.649 569.188 491.55 569.025 491.482C568.862 491.415 568.687 491.38 568.51 491.38H562.85C562.624 491.38 562.4 491.336 562.192 491.249C561.983 491.163 561.794 491.036 561.634 490.876C561.474 490.717 561.347 490.527 561.261 490.318C561.174 490.11 561.13 489.886 561.13 489.66V478.23C561.13 477.873 561.272 477.53 561.524 477.275C561.777 477.021 562.12 476.875 562.48 476.87C573.59 476.71 572.12 470.55 572.48 462.3C572.492 462.041 572.591 461.795 572.762 461.6C572.933 461.406 573.165 461.275 573.42 461.23L584.37 459.32C584.59 459.282 584.815 459.29 585.032 459.345C585.248 459.4 585.451 459.5 585.625 459.639C585.8 459.778 585.943 459.953 586.046 460.151C586.148 460.349 586.208 460.567 586.22 460.79C586.527 466.537 586.69 469.893 586.71 470.86C586.78 474.56 588.1 476.36 591.79 476.4C594.09 476.427 597.57 476.41 602.23 476.35C602.464 476.347 602.696 476.391 602.914 476.479C603.131 476.567 603.328 476.697 603.495 476.861C603.661 477.026 603.793 477.222 603.883 477.438C603.974 477.654 604.02 477.886 604.02 478.12V489.19C604.02 489.651 603.837 490.094 603.51 490.42C603.184 490.747 602.742 490.93 602.28 490.93H588.37C588.13 490.93 587.9 491.026 587.73 491.196C587.56 491.366 587.463 491.598 587.46 491.84C587.433 503.593 587.45 513.397 587.51 521.25C587.55 526.13 588.57 530.87 594.27 531.5C596.923 531.787 599.287 531.287 601.36 530ZM586.12 491.19C586.262 490.578 586.608 490.033 587.1 489.642C587.592 489.252 588.202 489.039 588.83 489.04H600.34C600.852 489.04 601.343 488.837 601.705 488.475C602.067 488.113 602.27 487.622 602.27 487.11V478.83C602.27 478.697 602.243 478.564 602.19 478.442C602.137 478.319 602.059 478.209 601.962 478.118C601.864 478.027 601.749 477.957 601.623 477.913C601.497 477.868 601.363 477.85 601.23 477.86C595.64 478.25 586.94 479.47 585.66 471.79C585.027 467.997 584.627 465.623 584.46 464.67C584.344 463.993 584.018 463.368 583.529 462.884C583.039 462.4 582.41 462.081 581.73 461.97C578.997 461.53 576.84 462.353 575.26 464.44C573.72 466.47 573.75 471.11 572.35 473.36C570.91 475.69 568.84 476.83 566.55 477.94C562.36 479.97 561.46 486.79 565.73 489.23C567.47 490.23 569 490.78 570.02 492.3C571.093 493.907 571.623 496.007 571.61 498.6C571.59 503.147 571.64 510.95 571.76 522.01C571.83 528.8 573.29 536.93 578.32 541.06C580.587 542.927 582.757 544.057 584.83 544.45C590.73 545.577 596.57 545.267 602.35 543.52C602.695 543.418 602.991 543.192 603.181 542.886C603.371 542.58 603.441 542.215 603.38 541.86L601.8 532.84C601.766 532.635 601.654 532.451 601.489 532.324C601.324 532.198 601.117 532.139 600.91 532.16C599.79 532.27 598.18 532.99 597.23 533.07C590.617 533.617 586.86 530.583 585.96 523.97C585.2 518.35 584.88 511.043 585 502.05C585.06 497.723 585.433 494.103 586.12 491.19Z" fill="#081C2F"/>
<path d="M748.44 489.07V479.32C748.441 479.075 748.531 478.838 748.693 478.655C748.855 478.473 749.078 478.357 749.32 478.33C758.51 477.23 759.94 471.53 759.82 463.31C759.818 463.138 759.877 462.971 759.987 462.839C760.097 462.707 760.25 462.619 760.42 462.59L769.98 460.92C770.089 460.901 770.202 460.906 770.309 460.934C770.416 460.963 770.516 461.014 770.6 461.085C770.685 461.155 770.753 461.243 770.8 461.343C770.847 461.442 770.87 461.55 770.87 461.66C770.87 464.327 771.05 467.293 771.41 470.56C772.35 478.96 780.88 478.38 787.14 478.09C787.338 478.079 787.537 478.109 787.723 478.178C787.91 478.247 788.08 478.354 788.224 478.491C788.368 478.629 788.483 478.795 788.562 478.978C788.64 479.162 788.68 479.36 788.68 479.56V487.9C788.68 488.274 788.53 488.633 788.264 488.897C787.998 489.161 787.637 489.31 787.26 489.31H774.52C774.054 489.311 773.603 489.477 773.247 489.779C772.892 490.081 772.656 490.5 772.58 490.96C771.38 498.32 771.45 505.87 771.72 515.52C771.86 520.92 772.09 528.73 777.28 531.63C779.82 533.05 783.47 532.73 786.61 532.26C786.905 532.214 787.207 532.285 787.45 532.459C787.693 532.633 787.859 532.895 787.91 533.19L789.35 541.41C789.412 541.765 789.346 542.13 789.163 542.441C788.98 542.753 788.692 542.99 788.35 543.11C782.717 545.09 777.137 545.48 771.61 544.28C762.93 542.39 758.89 534.79 757.99 525.99C757.517 521.397 757.31 512.58 757.37 499.54C757.377 496.427 757.027 493.47 756.32 490.67C756.255 490.403 756.102 490.164 755.884 489.994C755.666 489.824 755.397 489.731 755.12 489.73H749.11C748.932 489.73 748.762 489.66 748.636 489.537C748.511 489.413 748.44 489.245 748.44 489.07ZM586.12 491.19C585.433 494.103 585.06 497.723 585 502.05C584.88 511.043 585.2 518.35 585.96 523.97C586.86 530.583 590.617 533.617 597.23 533.07C598.18 532.99 599.79 532.27 600.91 532.16C601.117 532.139 601.324 532.198 601.489 532.324C601.654 532.451 601.766 532.635 601.8 532.84L603.38 541.86C603.441 542.215 603.371 542.58 603.181 542.886C602.991 543.192 602.695 543.418 602.35 543.52C596.57 545.267 590.73 545.577 584.83 544.45C582.757 544.057 580.587 542.927 578.32 541.06C573.29 536.93 571.83 528.8 571.76 522.01C571.64 510.95 571.59 503.147 571.61 498.6C571.623 496.007 571.093 493.907 570.02 492.3C569 490.78 567.47 490.23 565.73 489.23C561.46 486.79 562.36 479.97 566.55 477.94C568.84 476.83 570.91 475.69 572.35 473.36C573.75 471.11 573.72 466.47 575.26 464.44C576.84 462.353 578.997 461.53 581.73 461.97C582.41 462.081 583.039 462.4 583.529 462.884C584.018 463.368 584.344 463.993 584.46 464.67C584.627 465.623 585.027 467.997 585.66 471.79C586.94 479.47 595.64 478.25 601.23 477.86C601.363 477.85 601.497 477.868 601.623 477.913C601.749 477.957 601.864 478.027 601.962 478.118C602.059 478.209 602.137 478.319 602.19 478.442C602.243 478.564 602.27 478.696 602.27 478.83V487.11C602.27 487.622 602.067 488.113 601.705 488.475C601.343 488.837 600.852 489.04 600.34 489.04H588.83C588.202 489.039 587.592 489.252 587.1 489.642C586.608 490.033 586.262 490.578 586.12 491.19ZM226.12 482.94C230.76 488.453 233.23 493.563 233.53 498.27C234.217 509.077 234.647 519.89 234.82 530.71C234.84 531.777 235.38 533.36 236.44 535.46L236.41 542.84C236.41 543.096 236.319 543.344 236.152 543.539C235.985 543.734 235.754 543.862 235.5 543.9C228.147 545.027 220.9 545.027 213.76 543.9C214 536.347 214.13 528.853 214.15 521.42C214.15 519.98 214.01 518.723 213.73 517.65C213.117 515.323 212.63 515.25 212.27 517.43C211.423 516.317 210.477 515.737 209.43 515.69C204.81 515.483 200.177 515.397 195.53 515.43L199.67 515.1C199.745 515.092 199.816 515.058 199.868 515.004C199.921 514.949 199.952 514.878 199.957 514.802C199.962 514.726 199.939 514.652 199.894 514.591C199.849 514.53 199.784 514.487 199.71 514.47C195.04 513.44 187.96 512.23 186.95 518.99C186.57 521.543 186.493 524.447 186.72 527.7C187.04 532.373 187.09 537.11 186.87 541.91C186.863 542.08 186.792 542.241 186.671 542.361C186.551 542.482 186.39 542.553 186.22 542.56C180.613 542.847 175.27 542.903 170.19 542.73C169.55 542.71 169.08 543.22 168.78 544.26L165.87 543.95C165.526 543.913 165.208 543.748 164.979 543.487C164.75 543.226 164.625 542.888 164.63 542.54L164.66 539.89C167.1 535.56 166.9 529.26 166.8 524.46C166.593 514.213 166.587 503.55 166.78 492.47C166.78 492.318 166.812 492.168 166.874 492.029C166.936 491.889 167.027 491.764 167.14 491.66C168.78 490.16 172.44 487.09 178.12 482.45C179.147 481.603 179.35 480.683 178.73 479.69L199.82 463.09C199.997 462.95 200.215 462.875 200.44 462.875C200.665 462.875 200.883 462.95 201.06 463.09L226.12 482.94Z" fill="#1D3542"/>
<path d="M620.18 490.83C620.03 490.878 619.871 490.893 619.714 490.872C619.557 490.851 619.408 490.795 619.275 490.709C619.143 490.623 619.032 490.508 618.95 490.373C618.867 490.239 618.816 490.087 618.8 489.93C618.56 487.56 618.34 481.08 619.92 478.76C620.155 478.42 620.481 478.156 620.86 478C631.407 473.733 641.887 472.833 652.3 475.3C665.67 478.46 670.39 489.39 670.37 502.18C670.337 524.167 670.307 538.113 670.28 544.02C670.28 544.199 670.245 544.375 670.176 544.54C670.107 544.705 670.006 544.855 669.879 544.982C669.752 545.108 669.6 545.208 669.434 545.276C669.268 545.345 669.09 545.38 668.91 545.38H655.12C654.725 545.38 654.346 545.223 654.066 544.944C653.787 544.664 653.63 544.285 653.63 543.89V539.45C653.63 539.286 653.581 539.126 653.487 538.991C653.393 538.856 653.261 538.754 653.107 538.697C652.953 538.64 652.785 538.632 652.627 538.674C652.468 538.716 652.326 538.805 652.22 538.93C643.7 548.81 622.87 549.18 614.58 538.61C609.96 532.72 609.71 522.86 611.99 515.97C617.6 499 638.08 499.98 652.06 501.32C652.234 501.337 652.41 501.317 652.577 501.262C652.743 501.206 652.896 501.117 653.026 501C653.156 500.882 653.26 500.739 653.331 500.578C653.402 500.418 653.439 500.245 653.44 500.07C653.433 495.483 652.083 491.997 649.39 489.61C644.38 485.16 633.95 485.59 627.99 487.98C625.377 489.033 622.773 489.983 620.18 490.83ZM654.72 538.87L655.39 542.12C655.48 542.563 655.72 542.961 656.07 543.247C656.42 543.533 656.858 543.69 657.31 543.69H667.35C667.473 543.69 667.592 543.647 667.687 543.568C667.782 543.49 667.847 543.381 667.87 543.26C668.29 541.12 668.61 538.58 668.61 536.58C668.55 523.2 668.597 512.65 668.75 504.93C669.02 491.4 665.46 479.72 650.5 476.67C640.847 474.697 631.09 475.687 621.23 479.64C621.005 479.732 620.812 479.887 620.677 480.087C620.541 480.286 620.469 480.521 620.47 480.76V488.33C620.47 488.421 620.493 488.511 620.536 488.591C620.58 488.671 620.643 488.738 620.72 488.787C620.797 488.836 620.885 488.865 620.976 488.87C621.067 488.876 621.158 488.859 621.24 488.82C624.7 487.18 628.133 486.013 631.54 485.32C638.67 483.86 648.04 484.41 652.34 491.15C653.78 493.41 654.42 497.08 654.78 499.82C654.829 500.183 654.797 500.552 654.688 500.901C654.579 501.25 654.395 501.571 654.149 501.841C653.903 502.111 653.601 502.323 653.264 502.463C652.927 502.603 652.564 502.667 652.2 502.65C644.993 502.337 638.387 502.493 632.38 503.12C627.907 503.587 623.93 505.043 620.45 507.49C613.82 512.15 611.35 522.12 612.82 529.74C614.64 539.11 620.94 543.34 629.91 544.5C638.117 545.553 645.093 543.467 650.84 538.24C650.999 538.096 651.196 538 651.406 537.963C651.617 537.926 651.833 537.949 652.03 538.03C653.27 538.537 653.997 538.737 654.21 538.63C654.258 538.604 654.312 538.589 654.367 538.588C654.422 538.586 654.476 538.598 654.526 538.621C654.575 538.644 654.619 538.679 654.652 538.722C654.686 538.766 654.709 538.816 654.72 538.87ZM838.42 539.13C838.387 539.034 838.329 538.948 838.252 538.881C838.175 538.814 838.082 538.768 837.981 538.748C837.881 538.728 837.776 538.734 837.678 538.766C837.579 538.798 837.491 538.854 837.42 538.93C834.06 542.543 829.977 544.787 825.17 545.66C806.62 549.03 792.44 538.22 796.87 518.36C800.22 503.39 815.93 499.78 829.01 500.77C834.457 501.19 837.19 501.4 837.21 501.4C837.427 501.413 837.644 501.38 837.846 501.303C838.049 501.225 838.233 501.106 838.386 500.951C838.538 500.797 838.656 500.611 838.731 500.408C838.806 500.204 838.836 499.986 838.82 499.77C838.433 494.743 836.71 491.173 833.65 489.06C828.07 485.2 818.61 486.03 812.26 488.51C811.04 488.99 808.943 489.78 805.97 490.88C805.736 490.966 805.483 490.992 805.236 490.956C804.989 490.92 804.755 490.823 804.556 490.674C804.357 490.525 804.199 490.328 804.097 490.102C803.994 489.876 803.951 489.627 803.97 489.38L804.64 480.18C804.67 479.757 804.814 479.351 805.057 479.004C805.301 478.657 805.633 478.383 806.02 478.21C816.61 473.48 830.17 472.56 840.52 476.31C854.96 481.53 855.51 495.58 855.48 508.41C855.447 522.49 855.443 534.303 855.47 543.85C855.47 544.37 855.265 544.868 854.899 545.236C854.533 545.603 854.037 545.81 853.52 545.81H840.65C840.409 545.81 840.171 545.762 839.949 545.668C839.728 545.575 839.527 545.438 839.359 545.265C839.191 545.093 839.06 544.888 838.972 544.664C838.885 544.44 838.843 544.201 838.85 543.96C838.917 541.74 838.773 540.13 838.42 539.13ZM841.25 543.94C845.59 544.513 849.607 544.463 853.3 543.79C853.491 543.756 853.662 543.649 853.778 543.491C853.893 543.333 853.944 543.136 853.92 542.94C853.493 539.753 853.273 536.353 853.26 532.74C853.247 528.767 853.35 519.56 853.57 505.12C853.64 500.37 853.25 494.28 852.15 491.12C849.37 483.147 843.66 478.347 835.02 476.72C825.107 474.853 815.79 475.837 807.07 479.67C806.884 479.752 806.723 479.882 806.602 480.047C806.481 480.212 806.405 480.406 806.38 480.61L805.49 488.4C805.477 488.525 805.497 488.651 805.549 488.766C805.602 488.88 805.684 488.978 805.787 489.05C805.891 489.121 806.011 489.164 806.137 489.173C806.262 489.181 806.388 489.156 806.5 489.1C813.59 485.52 820.14 484.22 827.64 485.34C836.47 486.67 839.7 492.48 840.12 500.86C840.132 501.067 840.075 501.272 839.958 501.444C839.84 501.615 839.669 501.744 839.47 501.81C837.543 502.457 835.587 502.743 833.6 502.67C829.913 502.537 825.08 502.67 819.1 503.07C805.21 503.99 796.56 514.04 798.3 528.15C799.407 537.063 804.523 542.37 813.65 544.07C822.17 545.657 829.74 543.7 836.36 538.2C836.666 537.945 837.033 537.775 837.425 537.707C837.817 537.638 838.22 537.674 838.594 537.811C838.968 537.948 839.299 538.181 839.555 538.486C839.81 538.791 839.981 539.158 840.05 539.55L840.72 543.44C840.743 543.568 840.806 543.686 840.902 543.776C840.997 543.866 841.119 543.923 841.25 543.94ZM510.56 528.59C512.58 529.41 514.417 530.177 516.07 530.89C521.99 533.437 527.957 534.23 533.97 533.27C537.82 532.65 541.66 529.07 539.85 524.62C539.29 523.25 535.8 521.27 533.73 520.54C520.18 515.79 503.53 511.73 505.32 493.2C505.807 488.16 507.633 484.113 510.8 481.06C517.85 474.25 527.27 473.71 537 474.32C542.127 474.647 546.813 475.96 551.06 478.26C551.473 478.484 551.81 478.827 552.028 479.244C552.245 479.66 552.333 480.133 552.28 480.6C551.987 483.113 551.377 485.643 550.45 488.19C549.93 489.617 548.927 490.073 547.44 489.56C541.62 487.54 523.65 483.8 520.82 491.39C518.96 496.37 523.03 499.44 527.28 501C538.96 505.3 556.2 509.07 556.09 524.72C555.98 538.96 545 545.94 531.91 546.62C524.42 547.01 515.32 545.83 508.28 542.24C506.71 541.44 505.32 540.47 505.63 538.51C506.17 535.083 507.453 531.887 509.48 528.92C509.595 528.75 509.765 528.625 509.962 528.565C510.158 528.504 510.369 528.514 510.56 528.59ZM509.87 531.37C508.517 534.29 508.16 537.377 508.8 540.63C508.833 540.81 508.912 540.977 509.03 541.116C509.148 541.255 509.299 541.359 509.47 541.42C516.383 543.947 523.4 545.173 530.52 545.1C538.37 545.02 544.21 543 549.39 537.62C552.09 534.827 553.53 531.333 553.71 527.14C553.91 522.63 553.68 518.19 550.47 514.75C546.97 511.003 542.72 508.283 537.72 506.59C531.16 504.38 517.29 501.41 519.37 492.3C521.82 481.56 540.52 485.68 548.17 487.59C548.336 487.633 548.512 487.616 548.669 487.541C548.826 487.466 548.954 487.339 549.03 487.18C549.837 485.467 550.38 483.357 550.66 480.85C550.678 480.697 550.653 480.542 550.587 480.402C550.522 480.263 550.419 480.144 550.29 480.06C542.32 474.82 525.68 474.57 517.69 478.33C510.47 481.743 507.05 487.823 507.43 496.57C507.87 506.82 515.08 511.61 523.83 514.96C530.32 517.45 537.78 519.46 539.93 523.16C543.68 529.64 538.78 533.99 532.31 534.78C525.09 535.66 518.22 533.92 511.63 530.74C511.473 530.666 511.303 530.623 511.13 530.614C510.956 530.606 510.783 530.631 510.619 530.69C510.456 530.748 510.305 530.839 510.177 530.955C510.048 531.072 509.944 531.213 509.87 531.37ZM407.23 544.94C411.63 543.5 416.147 543.09 420.78 543.71C420.911 543.727 421.044 543.716 421.17 543.677C421.296 543.638 421.413 543.572 421.512 543.484C421.612 543.396 421.691 543.288 421.746 543.167C421.801 543.045 421.829 542.913 421.83 542.78C421.82 532.09 422.41 521.45 421.9 510.74C421.44 501.24 421.66 493.95 417.6 487.11C413.187 479.683 406.277 476.217 396.87 476.71C390.1 477.07 385.53 480.48 380.27 484.33C379.991 484.534 379.665 484.664 379.322 484.707C378.98 484.75 378.632 484.705 378.311 484.575C377.991 484.446 377.708 484.237 377.491 483.969C377.274 483.7 377.129 483.38 377.07 483.04L376.17 477.88C376.159 477.817 376.128 477.759 376.081 477.716C376.034 477.672 375.974 477.646 375.91 477.64L368.47 476.95C368.378 476.943 368.29 476.904 368.224 476.839C368.157 476.775 368.114 476.689 368.104 476.597C368.093 476.505 368.115 476.412 368.165 476.334C368.216 476.256 368.292 476.198 368.38 476.17C369.12 475.93 369.983 475.82 370.97 475.84L376.94 475.85C377.266 475.85 377.579 475.98 377.81 476.21C378.04 476.441 378.17 476.754 378.17 477.08V482.96C378.168 483.115 378.212 483.267 378.298 483.397C378.384 483.526 378.506 483.627 378.65 483.685C378.794 483.743 378.952 483.757 379.104 483.724C379.255 483.691 379.394 483.613 379.5 483.5C385.29 477.55 392.93 473.95 401.24 474.79C415.8 476.27 422.96 487.98 423.46 501.76C423.8 510.933 423.86 524.597 423.64 542.75C423.62 544.423 422.88 545.223 421.42 545.15C416.71 544.93 412.01 545.22 407.23 544.94ZM450.49 483.11C450.489 483.239 450.526 483.365 450.597 483.472C450.668 483.58 450.77 483.663 450.89 483.712C451.01 483.762 451.143 483.774 451.271 483.749C451.399 483.724 451.517 483.661 451.61 483.57C454.097 481.11 456.92 479.07 460.08 477.45C469.18 472.78 481.77 474.4 488.84 482.15C495.27 489.21 496.77 498.28 496.86 507.75C496.873 509.13 496.8 521.163 496.64 543.85C496.64 544.205 496.499 544.546 496.248 544.798C495.996 545.049 495.655 545.19 495.3 545.19H480.79C480.273 545.19 479.777 544.985 479.411 544.619C479.045 544.253 478.84 543.757 478.84 543.24C478.86 528.747 478.833 516.253 478.76 505.76C478.747 503.8 478.1 501.18 476.82 497.9C474.79 492.69 468.81 490.87 463.42 491.82C452.93 493.65 451.9 502.65 452.03 512.6C452.09 517.427 452.047 527.367 451.9 542.42C451.887 544.28 451.217 545.203 449.89 545.19C444.263 545.15 439.577 545.123 435.83 545.11C435.421 545.107 435.029 544.942 434.74 544.65C434.452 544.357 434.29 543.962 434.29 543.55V477.79C434.29 477.252 434.504 476.735 434.885 476.355C435.265 475.974 435.782 475.76 436.32 475.76H448.99C449.388 475.76 449.769 475.918 450.051 476.199C450.332 476.481 450.49 476.862 450.49 477.26V483.11ZM495.09 542.9C495.45 531.967 495.5 519.393 495.24 505.18C495.14 500.2 494.12 495.32 492.38 491.12C487.62 479.68 476.36 474.66 464.49 477.63C459.64 478.84 455.46 482.6 451.3 484.48C451.144 484.551 450.974 484.586 450.802 484.581C450.63 484.576 450.462 484.532 450.311 484.452C450.159 484.371 450.028 484.257 449.927 484.118C449.826 483.979 449.759 483.819 449.73 483.65L448.7 477.76C448.679 477.626 448.608 477.504 448.502 477.416C448.396 477.328 448.26 477.28 448.12 477.28H437.17C436.852 477.28 436.547 477.406 436.321 477.631C436.096 477.857 435.97 478.162 435.97 478.48V542.76C435.97 542.972 436.054 543.176 436.204 543.326C436.354 543.476 436.558 543.56 436.77 543.56H449.75C449.866 543.561 449.982 543.537 450.089 543.49C450.195 543.443 450.291 543.374 450.37 543.287C450.449 543.201 450.51 543.098 450.547 542.987C450.585 542.876 450.6 542.757 450.59 542.64C449.88 534.9 450.19 526.71 450.45 511.91C450.67 499.45 454.37 487.87 469.9 491C477.65 492.57 479.99 500.05 480.27 506.82C480.71 517.227 480.647 529.073 480.08 542.36C480.073 542.519 480.099 542.678 480.155 542.827C480.211 542.976 480.297 543.112 480.407 543.227C480.518 543.342 480.65 543.433 480.797 543.496C480.943 543.558 481.101 543.59 481.26 543.59H494.38C494.565 543.59 494.743 543.518 494.875 543.389C495.008 543.26 495.085 543.085 495.09 542.9Z" fill="#081C2F"/>
<path d="M654.21 538.63C653.997 538.737 653.27 538.537 652.03 538.03C651.833 537.949 651.617 537.926 651.406 537.963C651.196 538 650.999 538.096 650.84 538.24C645.093 543.467 638.117 545.553 629.91 544.5C620.94 543.34 614.64 539.11 612.82 529.74C611.35 522.12 613.82 512.15 620.45 507.49C623.93 505.043 627.907 503.587 632.38 503.12C638.387 502.493 644.993 502.337 652.2 502.65C652.564 502.667 652.927 502.603 653.264 502.463C653.601 502.323 653.903 502.111 654.149 501.841C654.395 501.571 654.579 501.25 654.688 500.901C654.797 500.552 654.829 500.183 654.78 499.82C654.42 497.08 653.78 493.41 652.34 491.15C648.04 484.41 638.67 483.86 631.54 485.32C628.133 486.013 624.7 487.18 621.24 488.82C621.158 488.859 621.067 488.876 620.976 488.87C620.885 488.865 620.797 488.836 620.72 488.787C620.643 488.738 620.58 488.671 620.536 488.591C620.493 488.511 620.47 488.421 620.47 488.33V480.76C620.469 480.521 620.541 480.286 620.677 480.087C620.812 479.887 621.005 479.732 621.23 479.64C631.09 475.687 640.847 474.697 650.5 476.67C665.46 479.72 669.02 491.4 668.75 504.93C668.597 512.65 668.55 523.2 668.61 536.58C668.61 538.58 668.29 541.12 667.87 543.26C667.847 543.381 667.782 543.49 667.687 543.568C667.592 543.647 667.473 543.69 667.35 543.69H657.31C656.858 543.69 656.42 543.533 656.07 543.247C655.72 542.961 655.48 542.563 655.39 542.12L654.72 538.87C654.709 538.816 654.686 538.766 654.652 538.722C654.619 538.679 654.575 538.644 654.526 538.621C654.476 538.598 654.422 538.586 654.367 538.588C654.312 538.589 654.258 538.604 654.21 538.63ZM652.98 513.16C645.367 512.067 638.793 512.157 633.26 513.43C627.57 514.74 624.82 519.81 625.44 525.55C626.39 534.35 635.22 536.56 642.63 534.08C648.75 532.027 652.42 527.583 653.64 520.75C654.007 518.697 654.02 516.403 653.68 513.87C653.658 513.692 653.577 513.527 653.451 513.399C653.324 513.271 653.159 513.187 652.98 513.16ZM840.72 543.44L840.05 539.55C839.981 539.158 839.81 538.791 839.555 538.486C839.299 538.181 838.968 537.948 838.594 537.811C838.22 537.674 837.817 537.638 837.425 537.707C837.033 537.775 836.666 537.945 836.36 538.2C829.74 543.7 822.17 545.657 813.65 544.07C804.523 542.37 799.407 537.063 798.3 528.15C796.56 514.04 805.21 503.99 819.1 503.07C825.08 502.67 829.913 502.537 833.6 502.67C835.587 502.743 837.543 502.457 839.47 501.81C839.669 501.744 839.84 501.615 839.958 501.444C840.075 501.272 840.132 501.067 840.12 500.86C839.7 492.48 836.47 486.67 827.64 485.34C820.14 484.22 813.59 485.52 806.5 489.1C806.388 489.156 806.262 489.181 806.137 489.173C806.011 489.164 805.891 489.121 805.787 489.05C805.684 488.978 805.602 488.88 805.549 488.766C805.497 488.651 805.477 488.525 805.49 488.4L806.38 480.61C806.405 480.406 806.481 480.211 806.602 480.047C806.723 479.882 806.884 479.752 807.07 479.67C815.79 475.837 825.107 474.853 835.02 476.72C843.66 478.347 849.37 483.147 852.15 491.12C853.25 494.28 853.64 500.37 853.57 505.12C853.35 519.56 853.247 528.767 853.26 532.74C853.273 536.353 853.493 539.753 853.92 542.94C853.944 543.136 853.893 543.333 853.778 543.491C853.662 543.649 853.491 543.756 853.3 543.79C849.607 544.463 845.59 544.513 841.25 543.94C841.119 543.923 840.997 543.866 840.902 543.776C840.806 543.686 840.743 543.568 840.72 543.44ZM838 512.86C831.7 512.07 824.31 511.99 819 513.38C812.9 514.96 808.67 521.68 810.94 527.72C814.33 536.75 825.41 536.26 832.23 532C838.54 528.05 840 520.85 839.1 513.96C839.063 513.681 838.935 513.423 838.736 513.224C838.537 513.025 838.279 512.897 838 512.86ZM370.97 475.84C369.983 475.82 369.12 475.93 368.38 476.17C368.292 476.198 368.216 476.256 368.165 476.334C368.115 476.412 368.093 476.505 368.104 476.597C368.114 476.689 368.157 476.775 368.224 476.839C368.29 476.904 368.377 476.943 368.47 476.95L375.91 477.64C375.974 477.646 376.034 477.672 376.081 477.716C376.128 477.759 376.159 477.817 376.17 477.88L377.07 483.04C377.129 483.38 377.274 483.7 377.491 483.969C377.708 484.237 377.991 484.446 378.311 484.575C378.631 484.705 378.98 484.75 379.322 484.707C379.665 484.664 379.991 484.534 380.27 484.33C385.53 480.48 390.1 477.07 396.87 476.71C406.277 476.217 413.187 479.683 417.6 487.11C421.66 493.95 421.44 501.24 421.9 510.74C422.41 521.45 421.82 532.09 421.83 542.78C421.829 542.913 421.801 543.045 421.746 543.167C421.691 543.288 421.612 543.396 421.512 543.484C421.413 543.572 421.296 543.638 421.17 543.677C421.044 543.716 420.911 543.727 420.78 543.71C416.147 543.09 411.63 543.5 407.23 544.94C406.543 544.813 406.193 544.437 406.18 543.81C406.02 537.577 406.033 528.247 406.22 515.82C408.78 507.38 408.37 493.62 398.11 491.03C388.497 488.597 382.133 491.96 379.02 501.12C378.894 501.505 378.817 501.905 378.79 502.31C378.59 506.18 377.95 511.3 377.95 515.94C377.96 527.61 378.27 535.46 376.85 542.99C376.826 543.124 376.753 543.245 376.644 543.33C376.535 543.415 376.399 543.457 376.26 543.45C373.047 543.25 370.017 543.777 367.17 545.03C366.023 545.263 364.973 545.267 364.02 545.04C363.589 544.935 363.207 544.687 362.933 544.338C362.659 543.988 362.51 543.555 362.51 543.11V477.56C362.51 477.101 362.692 476.661 363.017 476.337C363.341 476.012 363.781 475.83 364.24 475.83L370.97 475.84ZM509.87 531.37C509.944 531.213 510.048 531.072 510.177 530.955C510.305 530.839 510.456 530.748 510.619 530.69C510.783 530.631 510.956 530.606 511.13 530.614C511.303 530.623 511.473 530.666 511.63 530.74C518.22 533.92 525.09 535.66 532.31 534.78C538.78 533.99 543.68 529.64 539.93 523.16C537.78 519.46 530.32 517.45 523.83 514.96C515.08 511.61 507.87 506.82 507.43 496.57C507.05 487.823 510.47 481.743 517.69 478.33C525.68 474.57 542.32 474.82 550.29 480.06C550.419 480.144 550.522 480.263 550.587 480.402C550.653 480.542 550.678 480.697 550.66 480.85C550.38 483.357 549.837 485.467 549.03 487.18C548.954 487.339 548.826 487.466 548.669 487.541C548.512 487.616 548.336 487.633 548.17 487.59C540.52 485.68 521.82 481.56 519.37 492.3C517.29 501.41 531.16 504.38 537.72 506.59C542.72 508.283 546.97 511.003 550.47 514.75C553.68 518.19 553.91 522.63 553.71 527.14C553.53 531.333 552.09 534.827 549.39 537.62C544.21 543 538.37 545.02 530.52 545.1C523.4 545.173 516.383 543.947 509.47 541.42C509.299 541.359 509.148 541.255 509.03 541.116C508.912 540.977 508.833 540.81 508.8 540.63C508.16 537.377 508.517 534.29 509.87 531.37Z" fill="#1D3542"/>
<path d="M890.77 522.22C889.27 520.907 888.227 519.427 887.64 517.78C885.693 512.313 883.447 505.623 880.9 497.71C878.36 489.837 876.103 483.44 874.13 478.52C874.077 478.393 873.988 478.284 873.874 478.207C873.76 478.131 873.626 478.09 873.49 478.09H861.3C861.216 478.089 861.134 478.108 861.059 478.146C860.984 478.183 860.919 478.238 860.869 478.305C860.819 478.372 860.786 478.45 860.772 478.533C860.759 478.616 860.765 478.7 860.79 478.78C862.703 484.7 863.713 487.813 863.82 488.12C869.8 504.853 875.673 521.667 881.44 538.56C883.84 545.593 882.643 551.693 877.85 556.86C874.64 560.33 869.47 561.83 864.97 562.3C864.758 562.323 864.563 562.424 864.423 562.584C864.284 562.744 864.211 562.95 864.22 563.16L864.74 577.92C863.247 578.207 862.503 577.823 862.51 576.77L862.57 562.8C862.572 562.293 862.762 561.804 863.102 561.429C863.441 561.054 863.908 560.82 864.41 560.77C873.81 559.86 880.46 555.26 881.12 545.4C881.233 543.753 880.513 540.72 878.96 536.3C868.753 507.267 862.053 488.033 858.86 478.6C858.771 478.337 858.746 478.056 858.787 477.781C858.829 477.506 858.935 477.245 859.097 477.019C859.259 476.793 859.473 476.609 859.72 476.482C859.968 476.356 860.242 476.29 860.52 476.29H874.19C874.551 476.289 874.904 476.402 875.198 476.612C875.492 476.822 875.713 477.118 875.83 477.46L890.77 522.22Z" fill="#081C2F"/>
<path d="M867.2 577.99L876.34 575.01C876.599 574.93 876.844 574.819 877.07 574.68C886.94 568.7 891.99 555.67 896.59 544.07C900.037 535.383 908.453 513.75 921.84 479.17C921.894 479.032 921.913 478.883 921.896 478.736C921.879 478.588 921.826 478.448 921.743 478.325C921.659 478.203 921.546 478.103 921.415 478.034C921.284 477.966 921.138 477.93 920.99 477.93H909.96C909.596 477.93 909.242 478.044 908.948 478.256C908.653 478.468 908.434 478.767 908.32 479.11C903.927 492.543 899.573 505.25 895.26 517.23C894.587 519.117 893.41 520.78 891.73 522.22L907.06 477.74C907.204 477.323 907.474 476.961 907.835 476.705C908.195 476.448 908.627 476.31 909.07 476.31H922.61C922.837 476.309 923.061 476.363 923.262 476.469C923.464 476.574 923.636 476.728 923.764 476.915C923.892 477.103 923.973 477.319 923.998 477.544C924.024 477.77 923.993 477.999 923.91 478.21C921.11 485.417 912.15 508.437 897.03 547.27C894.863 552.83 892.493 557.967 889.92 562.68C884.97 571.73 878.32 578.24 867.2 577.99Z" fill="#081C2F"/>
<path d="M494.38 543.59H481.26C481.101 543.59 480.943 543.558 480.797 543.496C480.65 543.433 480.518 543.342 480.407 543.227C480.297 543.112 480.211 542.976 480.155 542.827C480.099 542.678 480.073 542.519 480.08 542.36C480.647 529.073 480.71 517.227 480.27 506.82C479.99 500.05 477.65 492.57 469.9 491C454.37 487.87 450.67 499.45 450.45 511.91C450.19 526.71 449.88 534.9 450.59 542.64C450.6 542.757 450.585 542.876 450.547 542.987C450.51 543.098 450.449 543.201 450.37 543.287C450.291 543.374 450.195 543.443 450.089 543.49C449.982 543.537 449.866 543.561 449.75 543.56H436.77C436.558 543.56 436.354 543.476 436.204 543.326C436.054 543.176 435.97 542.972 435.97 542.76V478.48C435.97 478.162 436.096 477.857 436.321 477.631C436.547 477.406 436.852 477.28 437.17 477.28H448.12C448.26 477.28 448.396 477.328 448.502 477.416C448.608 477.504 448.679 477.626 448.7 477.76L449.73 483.65C449.759 483.819 449.826 483.979 449.927 484.118C450.028 484.257 450.159 484.371 450.311 484.452C450.462 484.532 450.63 484.576 450.802 484.581C450.974 484.586 451.144 484.551 451.3 484.48C455.46 482.6 459.64 478.84 464.49 477.63C476.36 474.66 487.62 479.68 492.38 491.12C494.12 495.32 495.14 500.2 495.24 505.18C495.5 519.393 495.45 531.967 495.09 542.9C495.085 543.085 495.008 543.26 494.875 543.389C494.743 543.518 494.565 543.59 494.38 543.59ZM890.77 522.22C890.617 522.453 890.937 522.453 891.73 522.22C893.41 520.78 894.587 519.117 895.26 517.23C899.573 505.25 903.927 492.543 908.32 479.11C908.434 478.767 908.653 478.468 908.948 478.256C909.242 478.044 909.596 477.93 909.96 477.93H920.99C921.138 477.93 921.284 477.966 921.415 478.034C921.546 478.103 921.659 478.203 921.743 478.325C921.826 478.448 921.879 478.588 921.896 478.736C921.913 478.883 921.894 479.032 921.84 479.17C908.453 513.75 900.037 535.383 896.59 544.07C891.99 555.67 886.94 568.7 877.07 574.68C876.844 574.819 876.599 574.93 876.34 575.01L867.2 577.99C866.393 578.143 865.573 578.12 864.74 577.92L864.22 563.16C864.211 562.95 864.284 562.744 864.423 562.584C864.563 562.424 864.758 562.323 864.97 562.3C869.47 561.83 874.64 560.33 877.85 556.86C882.643 551.693 883.84 545.593 881.44 538.56C875.673 521.667 869.8 504.853 863.82 488.12C863.713 487.813 862.703 484.7 860.79 478.78C860.765 478.7 860.759 478.616 860.772 478.533C860.786 478.45 860.819 478.372 860.869 478.305C860.919 478.238 860.984 478.183 861.059 478.146C861.134 478.108 861.216 478.089 861.3 478.09H873.49C873.626 478.09 873.76 478.131 873.874 478.207C873.988 478.284 874.077 478.393 874.13 478.52C876.103 483.44 878.36 489.837 880.9 497.71C883.447 505.623 885.693 512.313 887.64 517.78C888.227 519.427 889.27 520.907 890.77 522.22Z" fill="#1D3542"/>
<path d="M164.66 539.89L164.71 491.43C164.713 491.199 164.768 490.971 164.87 490.764C164.972 490.556 165.119 490.374 165.3 490.23L178.73 479.69C179.35 480.683 179.147 481.603 178.12 482.45C172.44 487.09 168.78 490.16 167.14 491.66C167.027 491.764 166.936 491.889 166.874 492.029C166.812 492.168 166.78 492.318 166.78 492.47C166.587 503.55 166.593 514.213 166.8 524.46C166.9 529.26 167.1 535.56 164.66 539.89ZM226.12 482.94L235.86 490.4C235.988 490.496 236.091 490.62 236.162 490.763C236.233 490.905 236.27 491.061 236.27 491.22L236.44 535.46C235.38 533.36 234.84 531.777 234.82 530.71C234.647 519.89 234.217 509.077 233.53 498.27C233.23 493.563 230.76 488.453 226.12 482.94ZM406.22 515.82C406.22 509.69 407.32 497.59 401.09 493.66C394.28 489.35 384.13 491.63 381.21 499.77C380.363 502.137 379.933 504.883 379.92 508.01C379.853 525.543 379.817 537.127 379.81 542.76C379.81 544.007 379.41 544.757 378.61 545.01C378.47 545.057 377.55 545.093 375.85 545.12C372.97 545.167 370.077 545.137 367.17 545.03C370.017 543.777 373.047 543.25 376.26 543.45C376.399 543.457 376.535 543.415 376.644 543.33C376.753 543.245 376.826 543.124 376.85 542.99C378.27 535.46 377.96 527.61 377.95 515.94C377.95 511.3 378.59 506.18 378.79 502.31C378.817 501.905 378.894 501.505 379.02 501.12C382.133 491.96 388.497 488.597 398.11 491.03C408.37 493.62 408.78 507.38 406.22 515.82ZM838 512.86C838.279 512.897 838.537 513.025 838.736 513.224C838.935 513.423 839.063 513.681 839.1 513.96C840 520.85 838.54 528.05 832.23 532C825.41 536.26 814.33 536.75 810.94 527.72C808.67 521.68 812.9 514.96 819 513.38C824.31 511.99 831.7 512.07 838 512.86ZM837.09 514.04C831.857 513.527 827.137 513.457 822.93 513.83C807.68 515.19 807.92 535.36 823.77 533.5C830.61 532.71 836.13 528.31 837.35 521.47C837.717 519.377 837.96 517.283 838.08 515.19C838.097 514.909 838.003 514.632 837.818 514.418C837.634 514.203 837.373 514.068 837.09 514.04ZM653.68 513.87C654.02 516.403 654.007 518.697 653.64 520.75C652.42 527.583 648.75 532.027 642.63 534.08C635.22 536.56 626.39 534.35 625.44 525.55C624.82 519.81 627.57 514.74 633.26 513.43C638.793 512.157 645.367 512.067 652.98 513.16C653.159 513.187 653.324 513.271 653.451 513.399C653.577 513.527 653.658 513.692 653.68 513.87ZM651.73 514.07C646.497 513.557 641.777 513.483 637.57 513.85C622.33 515.2 622.56 535.37 638.4 533.52C645.24 532.73 650.76 528.34 651.99 521.5C652.357 519.407 652.6 517.313 652.72 515.22C652.737 514.939 652.643 514.662 652.458 514.448C652.274 514.233 652.013 514.098 651.73 514.07Z" fill="#081C2F"/>
<path d="M195.53 515.43C192.12 515.31 188.74 515.59 188.71 519.53C188.663 527.423 188.667 535.277 188.72 543.09C188.719 543.241 188.665 543.386 188.566 543.502C188.468 543.617 188.331 543.694 188.18 543.72C181.767 544.713 175.3 544.893 168.78 544.26C169.08 543.22 169.55 542.71 170.19 542.73C175.27 542.903 180.613 542.847 186.22 542.56C186.39 542.553 186.551 542.482 186.671 542.361C186.792 542.241 186.863 542.08 186.87 541.91C187.09 537.11 187.04 532.373 186.72 527.7C186.493 524.447 186.57 521.543 186.95 518.99C187.96 512.23 195.04 513.44 199.71 514.47C199.784 514.487 199.849 514.53 199.894 514.591C199.939 514.652 199.962 514.726 199.957 514.802C199.952 514.878 199.921 514.949 199.868 515.004C199.816 515.058 199.745 515.092 199.67 515.1L195.53 515.43Z" fill="#081C2F"/>
<path d="M213.76 543.9C212.873 543.78 212.437 543.313 212.45 542.5C212.537 536.78 212.477 528.423 212.27 517.43C212.63 515.25 213.117 515.323 213.73 517.65C214.01 518.723 214.15 519.98 214.15 521.42C214.13 528.853 214 536.347 213.76 543.9Z" fill="#081C2F"/>
</svg>
