<?xml version="1.0" encoding="utf-8"?>
<svg fill="none" viewBox="0 0 1016 1016" xmlns="http://www.w3.org/2000/svg">
<g clip-path="url(#clip0_8_59)">
<path d="M260.281 426.561L262.057 429.022C262.081 429.053 262.095 429.091 262.098 429.131C262.1 429.171 262.091 429.211 262.07 429.245C262.05 429.279 262.02 429.306 261.984 429.323C261.948 429.34 261.907 429.346 261.868 429.339C260.214 429.035 258.809 428.403 257.651 427.444C247.898 419.328 234.98 412.294 222.151 409.773C217.418 408.851 208.617 405.745 201.275 406.073C193.139 406.436 185.896 407.276 179.546 408.593C164.452 411.728 150.932 418.343 138.986 428.437C132.695 433.755 127.248 440.65 122.406 447.546C114.449 458.897 109.458 471.484 107.434 485.309C103.971 509.091 110.778 536.297 125.7 555.188C128.71 558.998 131.26 562.207 133.35 564.813C133.554 565.063 133.791 565.286 134.054 565.477C137.474 567.918 140.024 570.885 141.704 574.377C134.217 568.649 127.84 561.978 122.575 554.365C106.581 531.26 101.435 505.956 107.136 478.453C111.046 459.548 120.25 443.296 134.749 429.697C169.446 397.143 223.649 395.615 260.281 426.561Z" fill="#081C2F"/>
<path d="M260.281 426.561C284.668 447.01 295.989 476.706 292.953 508.228C286.861 571.311 224.959 610.046 165.427 587.623C156.537 584.269 148.63 579.854 141.704 574.377C140.024 570.885 137.474 567.918 134.054 565.477C133.791 565.286 133.554 565.063 133.35 564.813C131.26 562.207 128.71 558.998 125.7 555.188C110.778 536.297 103.971 509.091 107.434 485.309C109.458 471.484 114.449 458.897 122.406 447.546C127.248 440.65 132.695 433.755 138.986 428.436C150.932 418.343 164.452 411.728 179.546 408.593C185.896 407.276 193.139 406.436 201.275 406.073C208.617 405.745 217.418 408.851 222.151 409.773C234.98 412.294 247.898 419.328 257.651 427.444C258.809 428.403 260.214 429.035 261.868 429.339C261.907 429.346 261.948 429.34 261.984 429.323C262.02 429.306 262.05 429.279 262.07 429.245C262.091 429.211 262.1 429.171 262.098 429.131C262.095 429.091 262.081 429.053 262.057 429.022L260.281 426.561ZM244.366 551.249C246.337 550.138 247.329 548.455 247.342 546.199C247.428 530.774 247.405 515.484 247.273 500.33C247.272 500.24 247.289 500.15 247.323 500.065C247.357 499.981 247.408 499.905 247.473 499.84C247.537 499.775 247.614 499.724 247.699 499.689C247.784 499.654 247.875 499.636 247.967 499.636H254.704C255.386 499.636 256.04 499.365 256.522 498.883C257.003 498.401 257.274 497.748 257.274 497.066V490.101C257.274 489.665 257.185 489.235 257.013 488.838C256.84 488.44 256.588 488.083 256.272 487.789L209.272 444.153C209.636 443.921 210.188 443.928 210.929 444.173C210.97 444.185 211.014 444.185 211.055 444.173C211.096 444.161 211.132 444.137 211.16 444.104C211.187 444.071 211.204 444.031 211.209 443.989C211.214 443.946 211.206 443.903 211.187 443.865C207.377 437.178 199.648 431.066 192.286 437.793C184.17 445.214 177.294 450.711 174.843 453.529C173.904 454.614 169.925 458.311 162.907 464.622C157.599 469.394 153.055 474.643 148.015 479.604C145.316 482.253 141.03 485.09 139.601 488.206C138.033 491.629 138.152 497.572 141.327 500.42C141.526 500.6 141.778 500.708 142.042 500.727L148.153 501.144C148.299 501.154 148.435 501.219 148.535 501.326C148.634 501.433 148.69 501.573 148.689 501.719C148.444 518.137 148.378 532.381 148.491 544.453C148.521 547.281 149.433 552.529 152.797 552.49C171.992 552.285 184.891 552.242 191.492 552.361C210.536 552.691 228.16 552.321 244.366 551.249Z" fill="#1D3542"/>
<path d="M209.272 444.153L200.878 436.394C200.676 436.211 200.431 436.079 200.164 436.007C198.669 435.623 197.263 436.05 195.947 437.287C181.58 450.741 163.542 467.476 141.833 487.491C141.433 487.861 141.113 488.308 140.894 488.805C140.676 489.302 140.563 489.838 140.563 490.379V496.897C140.563 497.6 140.842 498.274 141.339 498.771C141.836 499.267 142.51 499.547 143.212 499.547H149.86C149.953 499.547 150.046 499.565 150.132 499.601C150.218 499.637 150.296 499.69 150.362 499.756C150.427 499.823 150.479 499.902 150.514 499.988C150.548 500.075 150.566 500.168 150.564 500.261C150.406 513.351 150.356 528.813 150.416 546.646C150.422 549.457 151.795 550.859 154.533 550.853C189.194 550.78 219.138 550.912 244.366 551.249C228.16 552.321 210.536 552.691 191.492 552.361C184.891 552.242 171.992 552.285 152.797 552.49C149.433 552.529 148.521 547.281 148.491 544.453C148.378 532.381 148.444 518.137 148.689 501.719C148.69 501.573 148.634 501.433 148.535 501.326C148.435 501.219 148.299 501.154 148.153 501.144L142.042 500.727C141.778 500.708 141.526 500.6 141.327 500.42C138.152 497.572 138.033 491.629 139.601 488.206C141.03 485.09 145.316 482.253 148.014 479.604C153.055 474.643 157.599 469.394 162.907 464.622C169.925 458.311 173.904 454.614 174.843 453.529C177.294 450.711 184.17 445.214 192.286 437.793C199.648 431.066 207.377 437.178 211.187 443.865C211.206 443.903 211.214 443.946 211.209 443.989C211.204 444.031 211.187 444.071 211.16 444.104C211.132 444.137 211.096 444.161 211.055 444.173C211.014 444.185 210.97 444.185 210.929 444.173C210.188 443.928 209.636 443.921 209.272 444.153Z" fill="#081C2F"/>
<path d="M209.272 444.153L256.272 487.789C256.588 488.083 256.84 488.44 257.013 488.838C257.185 489.235 257.274 489.665 257.274 490.101V497.066C257.274 497.748 257.003 498.401 256.522 498.883C256.04 499.365 255.386 499.636 254.704 499.636H247.967C247.875 499.636 247.784 499.654 247.699 499.689C247.614 499.724 247.537 499.775 247.473 499.84C247.408 499.905 247.357 499.981 247.323 500.065C247.289 500.15 247.272 500.24 247.273 500.33C247.405 515.484 247.428 530.774 247.342 546.199C247.329 548.455 246.337 550.138 244.366 551.25C219.138 550.912 189.194 550.78 154.533 550.853C151.795 550.859 150.422 549.457 150.416 546.646C150.356 528.813 150.406 513.351 150.564 500.261C150.566 500.168 150.548 500.075 150.514 499.988C150.479 499.902 150.427 499.823 150.362 499.756C150.296 499.69 150.218 499.637 150.132 499.601C150.046 499.565 149.953 499.547 149.86 499.547H143.212C142.51 499.547 141.836 499.267 141.339 498.771C140.842 498.274 140.563 497.6 140.563 496.897V490.379C140.563 489.838 140.676 489.302 140.894 488.805C141.113 488.308 141.433 487.861 141.833 487.491C163.542 467.476 181.58 450.741 195.947 437.287C197.263 436.05 198.669 435.623 200.164 436.007C200.431 436.079 200.676 436.211 200.878 436.394L209.272 444.153ZM177.334 475.942L164.009 486.4C163.829 486.543 163.683 486.724 163.582 486.93C163.481 487.135 163.426 487.361 163.423 487.591L163.374 535.672L163.344 538.301C163.339 538.647 163.463 538.982 163.69 539.241C163.918 539.5 164.233 539.663 164.574 539.7L167.461 540.008C173.93 540.636 180.347 540.458 186.71 539.472C186.859 539.447 186.995 539.37 187.093 539.256C187.191 539.141 187.245 538.997 187.246 538.847C187.193 531.095 187.189 523.303 187.236 515.471C187.265 511.562 190.619 511.284 194.002 511.403C198.613 511.37 203.21 511.456 207.794 511.661C208.832 511.707 209.772 512.283 210.612 513.388C210.817 524.295 210.876 532.586 210.79 538.262C210.777 539.069 211.21 539.532 212.09 539.651C219.174 540.769 226.364 540.769 233.66 539.651C233.912 539.613 234.141 539.486 234.307 539.293C234.473 539.1 234.564 538.854 234.563 538.599L234.593 531.277L234.424 487.382C234.424 487.225 234.388 487.07 234.317 486.928C234.247 486.787 234.144 486.664 234.017 486.569L224.353 479.167L199.489 459.472C199.314 459.334 199.097 459.258 198.874 459.258C198.651 459.258 198.434 459.334 198.259 459.472L177.334 475.942Z" fill="#F5F4F5"/>
<path d="M726.589 463.183C726.479 463.323 726.322 463.419 726.148 463.454C725.973 463.489 725.791 463.459 725.636 463.371C717.342 458.539 708.382 456.029 698.927 458.797C691.029 461.109 689.322 471.15 695.513 476.329C698.073 478.473 700.779 480.202 703.63 481.519C713.859 486.241 721.271 488.831 727.571 495.012C735.598 502.9 735.608 516.731 731.322 526.217C725.15 539.889 711.656 543.014 697.964 542.24C689.541 541.774 679.837 538.936 674.023 532.626C673.698 532.269 673.494 531.819 673.443 531.339C673.391 530.859 673.493 530.375 673.735 529.957L679.817 519.42C679.894 519.287 679.999 519.171 680.124 519.081C680.249 518.991 680.391 518.929 680.542 518.898C680.693 518.867 680.849 518.868 680.999 518.902C681.15 518.936 681.291 519.001 681.415 519.093C687.268 523.458 693.873 525.807 701.228 526.137C707.916 526.445 715.149 524.54 716.617 516.96C718.185 508.913 712.897 504.924 706.269 502.087C690.205 495.231 675.114 490.151 674.628 471.081C674.261 456.456 683.31 445.691 697.686 443.438C708.293 441.771 719.505 443.419 728.534 449.153C729.638 449.855 730.515 450.678 731.163 451.624C731.266 451.781 731.337 451.956 731.371 452.14C731.405 452.324 731.402 452.513 731.361 452.695C730.402 456.849 728.811 460.345 726.589 463.183ZM677.009 533.251C682.516 536.387 687.874 539.274 693.569 540.266C697.491 540.954 702.168 540.987 707.598 540.365C721.737 538.758 730.22 530.126 731.629 516.483C732.443 508.605 731.212 500.698 725.061 495.449C721.886 492.737 719.088 490.809 716.667 489.664C709.424 486.251 703.854 483.473 699.958 481.33C694.283 478.215 689.779 473.789 690.562 466.804C691.006 462.935 693.06 460.064 696.724 458.192C706.477 453.241 715.685 455.93 724.654 461.07C724.806 461.156 724.973 461.21 725.147 461.228C725.32 461.246 725.495 461.228 725.661 461.175C725.826 461.122 725.978 461.034 726.107 460.919C726.236 460.803 726.34 460.662 726.41 460.504L729.665 453.271C729.75 453.081 729.77 452.868 729.719 452.665C729.669 452.461 729.552 452.28 729.387 452.15C720.665 445.214 710.585 443.895 699.572 444.907C695.709 445.257 692.692 446.025 690.523 447.209C684.47 450.503 678.835 456.476 677.366 463.292C675.491 471.924 676.979 482.471 684.103 488.216C691.773 494.407 702.221 497.9 709.781 501.68C712.275 502.917 714.325 504.67 715.933 506.938C720.13 512.842 718.572 522 712.341 525.611C703.997 530.453 690.533 527.06 682.268 522.149C682.006 521.992 681.697 521.934 681.398 521.987C681.099 522.04 680.829 522.2 680.641 522.436C678.352 525.274 676.837 528.168 676.096 531.118C675.994 531.523 676.029 531.951 676.193 532.336C676.358 532.721 676.645 533.043 677.009 533.251ZM330.379 540.712C334.705 539.218 339.077 538.735 343.495 539.264C343.626 539.279 343.759 539.267 343.885 539.228C344.011 539.188 344.127 539.123 344.226 539.036C344.325 538.949 344.405 538.842 344.46 538.723C344.516 538.603 344.545 538.473 344.547 538.341C344.931 518.941 344.951 500.483 344.607 482.967C344.359 470.188 344.696 456.962 345.093 446.167C345.101 445.973 345.034 445.783 344.906 445.638C344.778 445.494 344.6 445.406 344.408 445.393C339.656 445.105 333.752 444.877 329.436 446.822C329.356 446.857 329.269 446.873 329.182 446.869C329.095 446.866 329.011 446.842 328.935 446.801C328.859 446.76 328.794 446.701 328.745 446.631C328.696 446.561 328.664 446.48 328.652 446.395L328.503 445.462C328.755 444.12 329.72 443.442 331.401 443.428C335.601 443.395 339.818 443.432 344.051 443.538C345.751 443.584 346.604 444.397 346.611 445.978C346.631 501.309 346.637 532.319 346.631 539.006C346.631 539.243 346.584 539.477 346.493 539.695C346.402 539.914 346.269 540.112 346.101 540.279C345.933 540.446 345.734 540.578 345.515 540.668C345.296 540.758 345.062 540.803 344.825 540.802L330.379 540.712Z" fill="#081C2F"/>
<path d="M677.009 533.251C676.645 533.043 676.358 532.721 676.193 532.336C676.029 531.951 675.994 531.523 676.096 531.118C676.837 528.168 678.352 525.274 680.641 522.436C680.829 522.2 681.099 522.04 681.398 521.987C681.697 521.934 682.006 521.992 682.268 522.149C690.533 527.06 703.997 530.453 712.341 525.611C718.572 522 720.13 512.842 715.933 506.938C714.325 504.67 712.275 502.917 709.781 501.68C702.221 497.9 691.773 494.407 684.103 488.216C676.979 482.471 675.491 471.924 677.366 463.292C678.835 456.476 684.47 450.503 690.523 447.209C692.692 446.025 695.709 445.257 699.572 444.907C710.585 443.895 720.665 445.214 729.387 452.15C729.552 452.28 729.669 452.461 729.719 452.665C729.77 452.868 729.75 453.081 729.665 453.271L726.41 460.504C726.34 460.662 726.236 460.803 726.107 460.919C725.978 461.034 725.826 461.122 725.661 461.175C725.495 461.228 725.32 461.246 725.147 461.228C724.973 461.21 724.806 461.156 724.654 461.07C715.685 455.93 706.477 453.241 696.724 458.192C693.06 460.064 691.006 462.935 690.562 466.804C689.779 473.789 694.283 478.215 699.958 481.33C703.854 483.473 709.424 486.251 716.667 489.664C719.088 490.809 721.886 492.737 725.061 495.449C731.212 500.698 732.443 508.605 731.629 516.483C730.22 530.126 721.737 538.758 707.598 540.365C702.168 540.987 697.491 540.954 693.569 540.266C687.874 539.274 682.516 536.387 677.009 533.251ZM330.379 540.712C329.148 540.97 328.527 540.464 328.513 539.194C328.427 526.197 328.424 494.953 328.503 445.462L328.652 446.395C328.664 446.48 328.696 446.561 328.745 446.631C328.794 446.701 328.859 446.76 328.935 446.801C329.011 446.842 329.095 446.866 329.182 446.869C329.269 446.873 329.356 446.857 329.436 446.822C333.752 444.877 339.656 445.105 344.408 445.393C344.599 445.406 344.778 445.494 344.906 445.638C345.034 445.783 345.101 445.973 345.093 446.167C344.696 456.962 344.359 470.188 344.607 482.967C344.951 500.483 344.931 518.941 344.547 538.341C344.545 538.473 344.516 538.603 344.46 538.723C344.405 538.842 344.325 538.949 344.226 539.036C344.127 539.123 344.011 539.188 343.885 539.228C343.759 539.267 343.626 539.279 343.495 539.264C339.077 538.735 334.705 539.218 330.379 540.712Z" fill="#1D3542"/>
<path d="M768.578 487.105C768.351 487.105 768.133 487.193 767.971 487.351C767.81 487.509 767.718 487.723 767.715 487.948C767.563 498.101 767.589 508.01 767.794 517.674C767.864 521.325 768.717 525.433 772.557 526.762C775.527 527.788 778.444 527.48 781.308 525.84C781.473 525.746 781.657 525.693 781.846 525.686C782.035 525.679 782.224 525.718 782.395 525.798C782.566 525.879 782.715 526 782.83 526.15C782.945 526.301 783.022 526.477 783.054 526.663L784.91 537.299C785.018 537.917 784.907 538.553 784.595 539.095C784.283 539.637 783.79 540.052 783.203 540.266C776.754 542.617 767.844 543.471 761.524 540.593C750.6 535.613 749.667 523.746 749.469 512.723C749.455 511.863 749.502 503.767 749.608 488.434C749.609 488.303 749.584 488.173 749.535 488.051C749.486 487.93 749.413 487.819 749.321 487.726C749.228 487.633 749.118 487.559 748.997 487.508C748.876 487.458 748.747 487.432 748.615 487.432H742.672C742.212 487.432 741.77 487.249 741.444 486.923C741.119 486.598 740.936 486.156 740.936 485.696V474.772C740.937 474.36 741.092 473.963 741.372 473.66C741.651 473.357 742.033 473.169 742.444 473.135C744.736 472.946 747.058 472.886 748.605 471.944C752.951 469.295 751.999 463.431 752.068 458.907C752.074 458.587 752.191 458.28 752.397 458.037C752.603 457.795 752.887 457.632 753.199 457.577L764.48 455.613C764.704 455.573 764.933 455.581 765.153 455.636C765.372 455.69 765.578 455.79 765.757 455.93C765.936 456.069 766.083 456.245 766.19 456.445C766.296 456.645 766.36 456.865 766.376 457.091C766.402 457.481 766.604 461.387 766.981 468.809C767.113 471.329 768.694 472.619 771.723 472.678C775.692 472.758 779.165 472.748 782.141 472.648C782.374 472.64 782.607 472.679 782.824 472.763C783.042 472.847 783.24 472.973 783.408 473.135C783.575 473.297 783.709 473.492 783.8 473.706C783.891 473.921 783.937 474.152 783.937 474.385V485.031C783.937 485.581 783.719 486.108 783.33 486.497C782.941 486.886 782.414 487.105 781.864 487.105H768.578ZM743.258 485.904H749.221C749.496 485.905 749.763 485.997 749.979 486.166C750.195 486.335 750.347 486.571 750.411 486.837C751.112 489.615 751.46 492.548 751.453 495.637C751.394 508.575 751.599 517.323 752.068 521.881C752.961 530.612 756.97 538.153 765.582 540.028C771.065 541.218 776.602 540.831 782.191 538.867C782.53 538.748 782.816 538.512 782.998 538.204C783.179 537.895 783.245 537.532 783.183 537.18L781.754 529.024C781.703 528.732 781.54 528.472 781.298 528.299C781.057 528.127 780.758 528.056 780.465 528.102C777.349 528.568 773.728 528.886 771.208 527.477C766.058 524.599 765.83 516.85 765.691 511.493C765.423 501.918 765.354 494.427 766.544 487.124C766.619 486.668 766.854 486.253 767.207 485.953C767.559 485.653 768.006 485.488 768.469 485.487H781.11C781.483 485.487 781.842 485.34 782.106 485.078C782.37 484.815 782.518 484.459 782.518 484.088V475.813C782.519 475.615 782.479 475.419 782.401 475.236C782.323 475.054 782.209 474.89 782.066 474.753C781.923 474.616 781.754 474.511 781.569 474.442C781.384 474.374 781.187 474.344 780.991 474.355C774.779 474.643 766.316 475.218 765.383 466.884C765.026 463.643 764.848 460.699 764.848 458.053C764.848 457.945 764.824 457.837 764.778 457.738C764.732 457.64 764.664 457.552 764.58 457.482C764.496 457.412 764.397 457.361 764.291 457.333C764.185 457.305 764.073 457.3 763.965 457.319L754.479 458.976C754.311 459.004 754.159 459.092 754.049 459.223C753.94 459.354 753.882 459.52 753.884 459.69C754.003 467.846 752.584 473.502 743.466 474.593C743.226 474.62 743.005 474.735 742.844 474.916C742.683 475.097 742.594 475.332 742.593 475.575V485.249C742.593 485.423 742.663 485.589 742.788 485.712C742.912 485.835 743.081 485.904 743.258 485.904ZM596.662 525.859C596.792 525.778 596.94 525.727 597.092 525.711C597.245 525.695 597.4 525.714 597.544 525.767C597.688 525.82 597.819 525.904 597.926 526.015C598.032 526.126 598.113 526.259 598.16 526.405C599.43 530.453 600.098 534.534 600.164 538.649C600.167 538.913 600.095 539.172 599.956 539.397C599.817 539.622 599.618 539.803 599.38 539.919C594.449 542.31 587.851 542.865 582.642 542.25C570.29 540.792 565.626 530.632 565.458 519.083C565.352 511.668 565.332 501.597 565.398 488.871C565.399 488.697 565.366 488.524 565.3 488.363C565.233 488.201 565.136 488.055 565.012 487.931C564.889 487.808 564.742 487.709 564.58 487.643C564.418 487.576 564.244 487.541 564.069 487.541H558.453C558.229 487.541 558.007 487.497 557.8 487.411C557.593 487.325 557.405 487.2 557.246 487.041C557.088 486.883 556.962 486.695 556.876 486.488C556.79 486.281 556.746 486.059 556.746 485.835V474.494C556.746 474.139 556.887 473.799 557.137 473.547C557.388 473.294 557.729 473.15 558.086 473.144C569.109 472.986 567.65 466.874 568.008 458.688C568.019 458.432 568.118 458.187 568.288 457.994C568.457 457.801 568.687 457.671 568.94 457.627L579.805 455.732C580.023 455.693 580.247 455.702 580.461 455.756C580.676 455.811 580.877 455.911 581.05 456.048C581.224 456.186 581.366 456.359 581.468 456.556C581.569 456.753 581.628 456.969 581.64 457.19C581.944 462.892 582.107 466.222 582.126 467.181C582.196 470.852 583.505 472.638 587.167 472.678C589.449 472.705 592.902 472.688 597.525 472.629C597.757 472.626 597.988 472.669 598.203 472.756C598.419 472.844 598.615 472.972 598.78 473.136C598.945 473.299 599.076 473.494 599.166 473.708C599.255 473.922 599.301 474.152 599.301 474.385V485.368C599.301 485.826 599.119 486.265 598.795 486.589C598.472 486.913 598.033 487.095 597.575 487.095H583.773C583.536 487.095 583.307 487.189 583.138 487.358C582.969 487.528 582.873 487.757 582.871 487.998C582.844 499.659 582.861 509.386 582.92 517.178C582.96 522.02 583.972 526.723 589.627 527.348C592.26 527.632 594.605 527.136 596.662 525.859ZM581.541 487.353C581.682 486.746 582.025 486.204 582.513 485.817C583.001 485.429 583.607 485.219 584.23 485.219H595.65C596.158 485.219 596.645 485.018 597.004 484.659C597.363 484.299 597.565 483.812 597.565 483.304V475.089C597.565 474.957 597.538 474.826 597.485 474.704C597.433 474.583 597.356 474.473 597.259 474.383C597.162 474.293 597.048 474.223 596.923 474.179C596.798 474.135 596.665 474.117 596.533 474.127C590.987 474.514 582.355 475.724 581.085 468.104C580.456 464.34 580.059 461.986 579.894 461.04C579.779 460.368 579.455 459.748 578.97 459.268C578.484 458.788 577.86 458.471 577.185 458.361C574.473 457.924 572.333 458.741 570.766 460.812C569.238 462.826 569.268 467.429 567.879 469.662C566.45 471.974 564.396 473.105 562.124 474.206C557.967 476.22 557.074 482.987 561.31 485.408C563.037 486.4 564.555 486.946 565.567 488.454C566.632 490.048 567.158 492.132 567.144 494.705C567.124 499.216 567.174 506.958 567.293 517.932C567.363 524.669 568.811 532.735 573.802 536.833C576.051 538.685 578.204 539.806 580.261 540.197C586.115 541.314 591.909 541.007 597.644 539.274C597.987 539.172 598.28 538.948 598.468 538.645C598.657 538.341 598.727 537.979 598.666 537.627L597.098 528.677C597.064 528.474 596.954 528.291 596.79 528.166C596.626 528.04 596.421 527.982 596.215 528.002C595.104 528.112 593.507 528.826 592.564 528.905C586.002 529.448 582.275 526.438 581.382 519.876C580.628 514.3 580.311 507.051 580.43 498.128C580.489 493.835 580.86 490.243 581.541 487.353Z" fill="#081C2F"/>
<path d="M742.593 485.249V475.575C742.593 475.332 742.683 475.097 742.844 474.916C743.005 474.735 743.226 474.62 743.466 474.593C752.584 473.502 754.003 467.846 753.884 459.69C753.882 459.52 753.94 459.354 754.049 459.223C754.159 459.092 754.311 459.004 754.479 458.976L763.965 457.319C764.073 457.3 764.185 457.305 764.291 457.333C764.397 457.361 764.496 457.412 764.58 457.482C764.664 457.552 764.732 457.64 764.778 457.738C764.824 457.837 764.848 457.945 764.848 458.053C764.848 460.699 765.026 463.643 765.383 466.884C766.316 475.218 774.779 474.643 780.99 474.355C781.187 474.344 781.384 474.374 781.569 474.442C781.754 474.511 781.923 474.616 782.066 474.753C782.209 474.89 782.323 475.054 782.401 475.236C782.479 475.419 782.519 475.615 782.518 475.813V484.088C782.518 484.459 782.37 484.815 782.106 485.078C781.842 485.34 781.483 485.487 781.11 485.487H768.469C768.006 485.488 767.559 485.653 767.207 485.953C766.854 486.253 766.619 486.668 766.544 487.124C765.354 494.427 765.423 501.918 765.691 511.493C765.83 516.85 766.058 524.599 771.208 527.477C773.728 528.886 777.349 528.568 780.465 528.102C780.758 528.056 781.057 528.127 781.298 528.299C781.54 528.472 781.703 528.732 781.754 529.024L783.183 537.18C783.245 537.532 783.179 537.895 782.998 538.204C782.816 538.512 782.53 538.748 782.191 538.867C776.602 540.831 771.065 541.218 765.582 540.028C756.97 538.153 752.961 530.612 752.068 521.881C751.599 517.323 751.394 508.575 751.453 495.637C751.46 492.548 751.112 489.615 750.411 486.837C750.347 486.571 750.195 486.335 749.979 486.166C749.763 485.997 749.496 485.905 749.221 485.904H743.258C743.081 485.904 742.912 485.835 742.788 485.712C742.663 485.589 742.593 485.423 742.593 485.249ZM581.541 487.353C580.86 490.243 580.489 493.835 580.43 498.128C580.311 507.051 580.628 514.3 581.382 519.876C582.275 526.438 586.002 529.448 592.564 528.905C593.507 528.826 595.104 528.112 596.215 528.002C596.421 527.982 596.626 528.04 596.79 528.166C596.954 528.291 597.064 528.474 597.098 528.677L598.666 537.627C598.727 537.979 598.657 538.341 598.468 538.645C598.28 538.948 597.987 539.172 597.644 539.274C591.909 541.007 586.115 541.314 580.261 540.197C578.204 539.806 576.051 538.685 573.802 536.833C568.811 532.735 567.363 524.669 567.293 517.932C567.174 506.958 567.124 499.216 567.144 494.705C567.158 492.132 566.632 490.048 565.567 488.454C564.555 486.946 563.037 486.4 561.31 485.408C557.074 482.987 557.967 476.22 562.124 474.206C564.396 473.105 566.45 471.974 567.878 469.662C569.268 467.429 569.238 462.826 570.766 460.812C572.333 458.741 574.473 457.924 577.185 458.361C577.86 458.471 578.484 458.788 578.97 459.268C579.455 459.748 579.778 460.368 579.894 461.04C580.059 461.986 580.456 464.34 581.085 468.104C582.355 475.724 590.987 474.514 596.533 474.127C596.665 474.117 596.798 474.135 596.923 474.179C597.047 474.223 597.162 474.293 597.259 474.383C597.356 474.473 597.433 474.583 597.485 474.704C597.538 474.826 597.565 474.957 597.565 475.089V483.304C597.565 483.812 597.363 484.299 597.004 484.659C596.645 485.018 596.158 485.219 595.65 485.219H584.23C583.607 485.219 583.001 485.429 582.513 485.817C582.025 486.204 581.682 486.746 581.541 487.353ZM224.353 479.167C228.957 484.637 231.408 489.707 231.706 494.377C232.387 505.1 232.814 515.828 232.985 526.564C233.005 527.622 233.541 529.193 234.593 531.277L234.563 538.599C234.564 538.854 234.473 539.1 234.307 539.293C234.141 539.486 233.912 539.613 233.66 539.651C226.364 540.769 219.174 540.769 212.09 539.651C212.328 532.156 212.457 524.722 212.477 517.346C212.477 515.918 212.338 514.671 212.06 513.606C211.452 511.297 210.969 511.225 210.612 513.388C209.772 512.283 208.832 511.707 207.794 511.661C203.21 511.456 198.613 511.37 194.002 511.403L198.11 511.076C198.185 511.068 198.254 511.034 198.307 510.98C198.359 510.926 198.39 510.855 198.395 510.78C198.399 510.705 198.377 510.631 198.333 510.571C198.288 510.51 198.223 510.468 198.15 510.451C193.516 509.429 186.492 508.228 185.489 514.935C185.112 517.469 185.036 520.349 185.261 523.577C185.579 528.214 185.628 532.914 185.41 537.676C185.403 537.845 185.333 538.005 185.213 538.124C185.094 538.244 184.934 538.314 184.765 538.321C179.202 538.606 173.901 538.662 168.86 538.49C168.225 538.47 167.759 538.976 167.461 540.008L164.574 539.7C164.233 539.663 163.918 539.5 163.69 539.241C163.463 538.982 163.339 538.647 163.344 538.301L163.374 535.672C165.795 531.376 165.596 525.125 165.497 520.363C165.292 510.196 165.285 499.616 165.477 488.623C165.477 488.472 165.509 488.323 165.57 488.185C165.632 488.046 165.722 487.922 165.834 487.819C167.461 486.331 171.093 483.285 176.728 478.681C177.747 477.841 177.949 476.928 177.334 475.942L198.259 459.472C198.434 459.334 198.651 459.258 198.874 459.258C199.097 459.258 199.314 459.334 199.489 459.472L224.353 479.167Z" fill="#1D3542"/>
<path d="M615.335 486.995C615.186 487.044 615.028 487.058 614.872 487.037C614.717 487.016 614.569 486.961 614.437 486.875C614.306 486.79 614.196 486.676 614.114 486.542C614.032 486.409 613.982 486.258 613.966 486.102C613.727 483.751 613.509 477.322 615.077 475.02C615.31 474.683 615.634 474.421 616.01 474.266C626.474 470.032 636.872 469.139 647.204 471.587C660.469 474.722 665.153 485.567 665.133 498.257C665.1 520.072 665.07 533.909 665.043 539.77C665.043 539.947 665.008 540.123 664.94 540.286C664.872 540.45 664.772 540.599 664.645 540.724C664.519 540.849 664.369 540.949 664.204 541.017C664.039 541.084 663.863 541.119 663.684 541.119H650.002C649.61 541.119 649.234 540.963 648.957 540.686C648.679 540.409 648.524 540.033 648.524 539.641V535.236C648.524 535.073 648.474 534.914 648.382 534.78C648.289 534.647 648.157 534.545 648.004 534.488C647.852 534.432 647.685 534.424 647.528 534.465C647.371 534.507 647.23 534.596 647.124 534.72C638.671 544.522 618.004 544.89 609.779 534.402C605.195 528.558 604.947 518.775 607.209 511.939C612.775 495.102 633.095 496.074 646.966 497.403C647.139 497.42 647.313 497.4 647.478 497.346C647.643 497.291 647.795 497.202 647.924 497.086C648.053 496.969 648.156 496.827 648.227 496.668C648.298 496.509 648.334 496.337 648.335 496.163C648.328 491.612 646.989 488.153 644.317 485.785C639.346 481.37 628.997 481.796 623.084 484.168C620.491 485.213 617.908 486.155 615.335 486.995ZM649.605 534.66L650.27 537.885C650.359 538.324 650.597 538.719 650.945 539.003C651.292 539.287 651.726 539.442 652.175 539.442H662.136C662.258 539.442 662.377 539.4 662.471 539.322C662.565 539.244 662.629 539.136 662.652 539.016C663.069 536.893 663.386 534.372 663.386 532.388C663.327 519.113 663.373 508.645 663.525 500.985C663.793 487.561 660.261 475.972 645.418 472.946C635.84 470.988 626.16 471.97 616.377 475.893C616.153 475.984 615.962 476.138 615.828 476.336C615.693 476.534 615.622 476.767 615.623 477.004V484.515C615.622 484.605 615.645 484.694 615.688 484.774C615.732 484.853 615.794 484.92 615.871 484.968C615.947 485.017 616.034 485.045 616.124 485.051C616.215 485.057 616.305 485.04 616.387 485.001C619.82 483.374 623.226 482.216 626.606 481.528C633.68 480.08 642.977 480.626 647.244 487.313C648.672 489.555 649.307 493.197 649.665 495.915C649.713 496.275 649.682 496.641 649.574 496.988C649.465 497.334 649.283 497.652 649.039 497.92C648.795 498.188 648.495 498.399 648.161 498.537C647.826 498.676 647.466 498.74 647.105 498.723C639.954 498.412 633.399 498.568 627.44 499.189C623.001 499.652 619.056 501.098 615.603 503.525C609.025 508.149 606.574 518.041 608.032 525.601C609.838 534.898 616.089 539.095 624.989 540.246C633.131 541.291 640.054 539.221 645.755 534.035C645.914 533.892 646.108 533.797 646.317 533.76C646.526 533.723 646.741 533.747 646.936 533.827C648.166 534.329 648.887 534.528 649.099 534.422C649.147 534.396 649.2 534.382 649.255 534.38C649.309 534.379 649.363 534.39 649.412 534.413C649.461 534.436 649.504 534.471 649.538 534.514C649.571 534.557 649.594 534.607 649.605 534.66ZM831.87 534.918C831.837 534.822 831.78 534.737 831.703 534.671C831.627 534.605 831.534 534.559 831.435 534.539C831.335 534.519 831.231 534.525 831.133 534.557C831.036 534.589 830.948 534.645 830.878 534.72C827.544 538.305 823.492 540.53 818.723 541.397C800.318 544.741 786.249 534.015 790.644 514.31C793.968 499.457 809.556 495.875 822.533 496.858C827.937 497.274 830.649 497.483 830.669 497.483C830.884 497.496 831.1 497.463 831.301 497.386C831.502 497.31 831.684 497.191 831.836 497.037C831.987 496.884 832.104 496.7 832.178 496.498C832.253 496.296 832.283 496.08 832.267 495.866C831.883 490.878 830.173 487.336 827.137 485.239C821.601 481.409 812.215 482.233 805.914 484.694C804.704 485.17 802.623 485.954 799.673 487.045C799.441 487.13 799.191 487.157 798.945 487.121C798.7 487.085 798.468 486.989 798.271 486.84C798.073 486.692 797.916 486.497 797.815 486.273C797.713 486.048 797.67 485.802 797.689 485.557L798.354 476.429C798.384 476.009 798.527 475.606 798.768 475.262C799.009 474.918 799.339 474.645 799.723 474.474C810.23 469.781 823.684 468.868 833.953 472.589C848.281 477.768 848.826 491.708 848.797 504.438C848.763 518.408 848.76 530.129 848.787 539.601C848.787 540.117 848.583 540.612 848.22 540.976C847.857 541.341 847.365 541.546 846.852 541.546H834.082C833.844 541.546 833.607 541.498 833.387 541.405C833.167 541.312 832.968 541.177 832.802 541.005C832.635 540.834 832.505 540.631 832.418 540.409C832.331 540.187 832.29 539.949 832.296 539.71C832.363 537.508 832.22 535.91 831.87 534.918ZM834.678 539.69C838.984 540.259 842.969 540.21 846.634 539.542C846.824 539.508 846.993 539.402 847.108 539.245C847.222 539.088 847.272 538.892 847.249 538.698C846.825 535.537 846.607 532.163 846.594 528.578C846.581 524.636 846.683 515.501 846.901 501.174C846.971 496.461 846.584 490.418 845.493 487.283C842.734 479.372 837.069 474.61 828.496 472.996C818.661 471.144 809.417 472.119 800.765 475.923C800.581 476.004 800.421 476.133 800.301 476.296C800.181 476.46 800.105 476.652 800.08 476.855L799.197 484.584C799.184 484.708 799.204 484.834 799.256 484.947C799.308 485.061 799.39 485.158 799.492 485.229C799.595 485.3 799.714 485.342 799.839 485.351C799.963 485.36 800.088 485.335 800.199 485.279C807.234 481.727 813.733 480.437 821.174 481.548C829.935 482.868 833.14 488.632 833.557 496.947C833.569 497.152 833.512 497.356 833.395 497.526C833.279 497.697 833.109 497.824 832.912 497.89C831 498.531 829.059 498.816 827.087 498.743C823.43 498.611 818.634 498.743 812.701 499.14C798.919 500.053 790.337 510.024 792.063 524.024C793.161 532.868 798.238 538.133 807.293 539.819C815.747 541.394 823.258 539.452 829.826 533.995C830.129 533.742 830.494 533.573 830.883 533.506C831.272 533.438 831.672 533.474 832.043 533.61C832.414 533.745 832.742 533.976 832.996 534.279C833.249 534.582 833.419 534.946 833.487 535.335L834.152 539.194C834.174 539.321 834.237 539.438 834.332 539.527C834.427 539.617 834.548 539.674 834.678 539.69ZM506.571 524.46C508.575 525.274 510.398 526.035 512.038 526.742C517.912 529.269 523.832 530.056 529.798 529.104C533.618 528.489 537.428 524.937 535.632 520.521C535.077 519.162 531.614 517.198 529.56 516.473C516.116 511.76 499.596 507.732 501.372 489.347C501.855 484.346 503.667 480.331 506.809 477.302C513.804 470.545 523.151 470.009 532.805 470.614C537.891 470.938 542.541 472.242 546.755 474.524C547.165 474.746 547.499 475.086 547.715 475.499C547.931 475.913 548.018 476.382 547.965 476.845C547.674 479.339 547.069 481.849 546.15 484.376C545.634 485.792 544.638 486.245 543.163 485.735C537.389 483.731 519.559 480.02 516.751 487.551C514.906 492.492 518.944 495.538 523.161 497.086C534.749 501.352 551.855 505.093 551.746 520.621C551.636 534.749 540.742 541.675 527.754 542.35C520.323 542.736 511.294 541.566 504.309 538.004C502.751 537.21 501.372 536.248 501.68 534.303C502.216 530.903 503.489 527.731 505.5 524.788C505.614 524.619 505.783 524.495 505.978 524.435C506.173 524.376 506.382 524.385 506.571 524.46ZM505.887 527.219C504.544 530.116 504.19 533.178 504.825 536.406C504.858 536.585 504.936 536.751 505.053 536.888C505.17 537.026 505.32 537.13 505.49 537.19C512.349 539.697 519.311 540.914 526.375 540.841C534.164 540.762 539.958 538.758 545.098 533.42C547.777 530.648 549.206 527.182 549.384 523.022C549.583 518.547 549.354 514.142 546.169 510.729C542.697 507.011 538.48 504.312 533.519 502.632C527.01 500.44 513.249 497.493 515.312 488.454C517.743 477.798 536.297 481.886 543.887 483.781C544.052 483.823 544.227 483.806 544.383 483.732C544.538 483.658 544.665 483.531 544.741 483.374C545.541 481.674 546.08 479.58 546.358 477.093C546.376 476.942 546.351 476.788 546.286 476.649C546.221 476.511 546.119 476.393 545.991 476.31C538.083 471.11 521.573 470.862 513.646 474.593C506.482 477.98 503.089 484.012 503.466 492.691C503.902 502.86 511.056 507.613 519.738 510.937C526.177 513.407 533.579 515.402 535.712 519.073C539.433 525.502 534.571 529.818 528.151 530.602C520.988 531.475 514.171 529.749 507.633 526.594C507.477 526.52 507.309 526.477 507.136 526.469C506.964 526.46 506.792 526.486 506.63 526.544C506.468 526.602 506.319 526.691 506.191 526.807C506.064 526.923 505.96 527.063 505.887 527.219ZM404.049 540.683C408.414 539.254 412.896 538.847 417.493 539.462C417.623 539.479 417.754 539.468 417.88 539.429C418.005 539.391 418.121 539.326 418.219 539.238C418.318 539.151 418.397 539.044 418.451 538.923C418.506 538.803 418.534 538.672 418.534 538.54C418.525 527.933 419.11 517.376 418.604 506.75C418.148 497.324 418.366 490.091 414.338 483.304C409.959 475.936 403.103 472.496 393.769 472.986C387.052 473.343 382.518 476.726 377.299 480.546C377.023 480.749 376.699 480.877 376.359 480.92C376.019 480.963 375.673 480.918 375.356 480.79C375.038 480.661 374.758 480.454 374.542 480.188C374.327 479.921 374.183 479.604 374.124 479.266L373.231 474.147C373.22 474.084 373.189 474.027 373.143 473.984C373.096 473.941 373.036 473.914 372.973 473.908L365.591 473.224C365.5 473.217 365.413 473.178 365.347 473.114C365.281 473.05 365.239 472.965 365.228 472.874C365.217 472.782 365.239 472.69 365.289 472.613C365.339 472.535 365.414 472.478 365.502 472.45C366.236 472.212 367.093 472.103 368.072 472.122L373.995 472.132C374.319 472.132 374.629 472.261 374.858 472.49C375.087 472.719 375.216 473.029 375.216 473.353V479.187C375.213 479.341 375.258 479.492 375.343 479.62C375.428 479.749 375.549 479.848 375.692 479.906C375.835 479.964 375.992 479.978 376.142 479.945C376.292 479.912 376.43 479.835 376.535 479.723C382.28 473.819 389.86 470.247 398.105 471.081C412.552 472.549 419.656 484.168 420.152 497.84C420.489 506.942 420.549 520.498 420.33 538.51C420.31 540.17 419.576 540.964 418.128 540.891C413.454 540.673 408.791 540.96 404.049 540.683ZM446.971 479.336C446.969 479.464 447.006 479.589 447.077 479.695C447.148 479.802 447.249 479.884 447.368 479.933C447.487 479.982 447.618 479.995 447.745 479.97C447.872 479.945 447.99 479.883 448.082 479.792C450.549 477.351 453.35 475.327 456.486 473.72C465.515 469.086 478.006 470.694 485.021 478.383C491.401 485.388 492.889 494.387 492.978 503.783C492.992 505.152 492.919 517.092 492.76 539.601C492.76 539.954 492.62 540.292 492.371 540.541C492.121 540.791 491.783 540.931 491.43 540.931H477.034C476.521 540.931 476.029 540.727 475.666 540.364C475.303 540.001 475.099 539.509 475.099 538.996C475.119 524.616 475.092 512.22 475.02 501.809C475.006 499.864 474.365 497.265 473.095 494.01C471.081 488.841 465.147 487.035 459.8 487.978C449.392 489.793 448.37 498.723 448.499 508.595C448.558 513.384 448.515 523.247 448.37 538.182C448.356 540.028 447.692 540.944 446.375 540.931C440.793 540.891 436.142 540.865 432.425 540.851C432.019 540.849 431.63 540.685 431.344 540.395C431.058 540.105 430.897 539.712 430.897 539.304V474.057C430.897 473.523 431.109 473.011 431.487 472.633C431.865 472.255 432.377 472.043 432.911 472.043H445.482C445.877 472.043 446.256 472.2 446.535 472.479C446.814 472.758 446.971 473.137 446.971 473.531V479.336ZM491.222 538.659C491.579 527.811 491.629 515.336 491.371 501.233C491.272 496.292 490.26 491.45 488.533 487.283C483.81 475.932 472.638 470.952 460.861 473.899C456.049 475.099 451.902 478.83 447.774 480.695C447.619 480.766 447.45 480.8 447.28 480.795C447.11 480.79 446.943 480.746 446.793 480.667C446.642 480.587 446.512 480.474 446.412 480.336C446.312 480.198 446.245 480.039 446.217 479.871L445.195 474.028C445.173 473.895 445.104 473.774 444.998 473.686C444.893 473.599 444.758 473.551 444.619 473.551H433.755C433.439 473.551 433.136 473.677 432.913 473.9C432.689 474.123 432.564 474.426 432.564 474.742V538.52C432.564 538.73 432.648 538.932 432.796 539.081C432.945 539.23 433.147 539.313 433.358 539.313H446.236C446.352 539.314 446.466 539.29 446.572 539.244C446.678 539.197 446.773 539.129 446.852 539.043C446.93 538.957 446.99 538.856 447.027 538.745C447.065 538.634 447.079 538.517 447.07 538.401C446.365 530.721 446.673 522.595 446.931 507.911C447.149 495.548 450.82 484.059 466.229 487.164C473.918 488.722 476.24 496.143 476.518 502.86C476.954 513.186 476.892 524.94 476.329 538.123C476.323 538.281 476.348 538.438 476.404 538.586C476.46 538.734 476.545 538.869 476.654 538.983C476.764 539.097 476.895 539.188 477.04 539.25C477.186 539.312 477.342 539.343 477.5 539.343H490.518C490.701 539.343 490.877 539.272 491.009 539.144C491.14 539.016 491.217 538.842 491.222 538.659Z" fill="#081C2F"/>
<path d="M649.099 534.422C648.887 534.528 648.166 534.329 646.936 533.827C646.741 533.747 646.526 533.723 646.317 533.76C646.108 533.797 645.914 533.892 645.755 534.035C640.054 539.221 633.131 541.291 624.989 540.246C616.089 539.095 609.838 534.898 608.032 525.601C606.574 518.041 609.025 508.149 615.603 503.525C619.056 501.098 623.001 499.652 627.44 499.189C633.399 498.568 639.954 498.412 647.105 498.723C647.466 498.74 647.826 498.676 648.161 498.537C648.495 498.399 648.795 498.188 649.039 497.92C649.283 497.652 649.465 497.334 649.574 496.988C649.682 496.641 649.713 496.275 649.665 495.915C649.307 493.197 648.672 489.555 647.244 487.313C642.977 480.626 633.68 480.08 626.606 481.528C623.226 482.216 619.82 483.374 616.387 485.001C616.305 485.04 616.215 485.057 616.124 485.051C616.034 485.045 615.947 485.017 615.871 484.968C615.794 484.92 615.732 484.853 615.688 484.774C615.645 484.694 615.622 484.605 615.623 484.515V477.004C615.622 476.767 615.693 476.534 615.828 476.336C615.962 476.138 616.153 475.984 616.377 475.893C626.16 471.97 635.84 470.988 645.418 472.946C660.261 475.972 663.793 487.561 663.525 500.985C663.373 508.645 663.327 519.113 663.386 532.388C663.386 534.372 663.069 536.893 662.652 539.016C662.629 539.136 662.565 539.244 662.471 539.322C662.377 539.4 662.258 539.442 662.136 539.442H652.175C651.726 539.442 651.292 539.287 650.945 539.003C650.597 538.719 650.359 538.324 650.27 537.885L649.605 534.66C649.594 534.607 649.571 534.557 649.538 534.514C649.504 534.471 649.461 534.436 649.412 534.413C649.363 534.39 649.309 534.379 649.255 534.38C649.2 534.382 649.147 534.396 649.099 534.422ZM647.879 509.151C640.325 508.066 633.803 508.155 628.313 509.419C622.667 510.719 619.939 515.749 620.554 521.444C621.496 530.175 630.257 532.368 637.609 529.908C643.682 527.87 647.323 523.462 648.533 516.682C648.897 514.644 648.91 512.369 648.573 509.855C648.551 509.679 648.471 509.515 648.346 509.388C648.22 509.261 648.056 509.177 647.879 509.151ZM834.152 539.194L833.487 535.335C833.419 534.946 833.249 534.582 832.996 534.279C832.742 533.976 832.414 533.745 832.043 533.61C831.672 533.474 831.272 533.438 830.883 533.506C830.494 533.573 830.129 533.742 829.826 533.995C823.258 539.452 815.747 541.394 807.293 539.819C798.238 538.133 793.161 532.868 792.063 524.024C790.337 510.024 798.919 500.053 812.701 499.14C818.634 498.743 823.43 498.611 827.087 498.743C829.059 498.816 831 498.531 832.912 497.89C833.109 497.824 833.279 497.697 833.395 497.526C833.512 497.356 833.569 497.152 833.557 496.947C833.14 488.632 829.935 482.868 821.174 481.548C813.733 480.437 807.234 481.727 800.199 485.279C800.088 485.335 799.963 485.36 799.839 485.351C799.714 485.342 799.595 485.3 799.492 485.229C799.39 485.158 799.308 485.061 799.256 484.947C799.204 484.834 799.184 484.708 799.197 484.584L800.08 476.855C800.105 476.652 800.181 476.46 800.301 476.296C800.421 476.133 800.581 476.004 800.765 475.923C809.417 472.119 818.661 471.144 828.496 472.996C837.069 474.61 842.734 479.372 845.493 487.283C846.584 490.418 846.971 496.461 846.901 501.174C846.683 515.501 846.581 524.636 846.594 528.578C846.607 532.163 846.825 535.537 847.249 538.698C847.272 538.892 847.222 539.088 847.108 539.245C846.993 539.402 846.823 539.508 846.634 539.542C842.969 540.21 838.984 540.259 834.678 539.69C834.548 539.674 834.427 539.617 834.332 539.527C834.237 539.438 834.174 539.321 834.152 539.194ZM831.453 508.853C825.202 508.069 817.87 507.99 812.602 509.369C806.549 510.937 802.352 517.604 804.605 523.597C807.968 532.557 818.961 532.07 825.728 527.844C831.989 523.925 833.437 516.781 832.544 509.945C832.508 509.668 832.381 509.411 832.184 509.214C831.986 509.017 831.73 508.89 831.453 508.853ZM368.072 472.122C367.093 472.103 366.236 472.212 365.502 472.45C365.414 472.478 365.339 472.535 365.289 472.613C365.239 472.69 365.217 472.782 365.228 472.874C365.239 472.965 365.281 473.05 365.347 473.114C365.413 473.178 365.5 473.217 365.591 473.224L372.973 473.908C373.036 473.914 373.096 473.941 373.143 473.984C373.189 474.027 373.22 474.084 373.231 474.147L374.124 479.266C374.183 479.604 374.327 479.921 374.542 480.188C374.758 480.454 375.038 480.661 375.355 480.79C375.673 480.918 376.019 480.963 376.359 480.92C376.699 480.877 377.023 480.749 377.299 480.546C382.518 476.726 387.052 473.343 393.769 472.986C403.103 472.496 409.959 475.936 414.337 483.304C418.366 490.091 418.147 497.324 418.604 506.75C419.11 517.376 418.525 527.933 418.534 538.54C418.534 538.672 418.506 538.803 418.451 538.923C418.397 539.044 418.318 539.151 418.219 539.238C418.121 539.326 418.005 539.391 417.88 539.429C417.754 539.468 417.622 539.479 417.493 539.462C412.896 538.847 408.414 539.254 404.049 540.683C403.367 540.557 403.02 540.183 403.007 539.561C402.848 533.377 402.861 524.12 403.046 511.79C405.586 503.416 405.18 489.764 395 487.194C385.462 484.78 379.148 488.117 376.059 497.205C375.934 497.587 375.857 497.984 375.831 498.386C375.632 502.225 374.997 507.305 374.997 511.909C375.007 523.488 375.315 531.277 373.906 538.748C373.882 538.881 373.809 539.001 373.701 539.085C373.594 539.169 373.458 539.212 373.32 539.204C370.132 539.006 367.126 539.528 364.301 540.772C363.164 541.003 362.122 541.007 361.176 540.782C360.749 540.677 360.369 540.432 360.098 540.085C359.826 539.738 359.678 539.309 359.678 538.867V473.829C359.678 473.374 359.859 472.937 360.181 472.615C360.503 472.293 360.939 472.113 361.394 472.113L368.072 472.122ZM505.887 527.219C505.96 527.063 506.064 526.923 506.191 526.807C506.319 526.691 506.468 526.602 506.63 526.544C506.792 526.486 506.964 526.46 507.136 526.469C507.309 526.477 507.477 526.52 507.633 526.594C514.171 529.749 520.988 531.475 528.151 530.602C534.571 529.818 539.432 525.502 535.712 519.073C533.579 515.402 526.177 513.407 519.738 510.937C511.056 507.613 503.902 502.86 503.466 492.691C503.089 484.012 506.482 477.98 513.646 474.593C521.573 470.862 538.083 471.11 545.991 476.31C546.119 476.393 546.221 476.511 546.286 476.649C546.351 476.788 546.376 476.942 546.358 477.093C546.08 479.58 545.541 481.674 544.741 483.374C544.665 483.531 544.538 483.658 544.383 483.732C544.227 483.806 544.052 483.823 543.887 483.781C536.297 481.886 517.743 477.798 515.312 488.454C513.249 497.493 527.01 500.44 533.519 502.632C538.48 504.312 542.697 507.011 546.169 510.729C549.354 514.142 549.583 518.547 549.384 523.022C549.206 527.182 547.777 530.648 545.098 533.42C539.958 538.758 534.164 540.762 526.375 540.841C519.311 540.914 512.349 539.697 505.49 537.19C505.32 537.13 505.17 537.026 505.053 536.888C504.936 536.751 504.858 536.585 504.825 536.406C504.19 533.178 504.544 530.116 505.887 527.219Z" fill="#1D3542"/>
<path d="M883.811 518.14C882.323 516.837 881.287 515.369 880.705 513.735C878.774 508.311 876.545 501.673 874.018 493.822C871.498 486.01 869.259 479.663 867.301 474.782C867.248 474.655 867.16 474.547 867.047 474.471C866.934 474.395 866.801 474.355 866.666 474.355H854.571C854.488 474.354 854.406 474.373 854.332 474.41C854.257 474.447 854.193 474.501 854.144 474.568C854.094 474.635 854.061 474.713 854.048 474.794C854.034 474.876 854.04 474.96 854.065 475.04C855.963 480.913 856.966 484.002 857.071 484.307C863.005 500.909 868.832 517.591 874.554 534.353C876.935 541.331 875.748 547.383 870.992 552.51C867.807 555.952 862.677 557.441 858.212 557.907C858.002 557.93 857.808 558.03 857.67 558.189C857.532 558.347 857.46 558.551 857.468 558.76L857.984 573.405C856.503 573.689 855.765 573.309 855.772 572.264L855.831 558.403C855.833 557.9 856.021 557.415 856.359 557.043C856.696 556.671 857.158 556.438 857.657 556.389C866.983 555.486 873.581 550.922 874.236 541.139C874.349 539.505 873.634 536.496 872.093 532.11C861.966 503.304 855.319 484.221 852.15 474.861C852.062 474.6 852.037 474.321 852.078 474.048C852.119 473.775 852.224 473.516 852.385 473.292C852.546 473.068 852.758 472.886 853.004 472.76C853.249 472.634 853.521 472.569 853.797 472.569H867.36C867.719 472.568 868.069 472.68 868.36 472.888C868.652 473.096 868.872 473.391 868.988 473.73L883.811 518.14Z" fill="#081C2F"/>
<path d="M860.425 573.474L869.494 570.518C869.751 570.439 869.994 570.329 870.218 570.19C880.011 564.257 885.021 551.329 889.585 539.819C893.005 531.201 901.356 509.736 914.638 475.426C914.691 475.289 914.71 475.142 914.694 474.996C914.677 474.849 914.625 474.71 914.541 474.589C914.458 474.467 914.347 474.368 914.217 474.3C914.087 474.231 913.942 474.196 913.795 474.196H902.851C902.49 474.196 902.139 474.309 901.846 474.519C901.554 474.73 901.336 475.026 901.224 475.367C896.865 488.695 892.545 501.303 888.266 513.189C887.598 515.061 886.43 516.711 884.763 518.14L899.974 474.008C900.116 473.594 900.385 473.235 900.742 472.98C901.1 472.726 901.528 472.589 901.968 472.589H915.402C915.627 472.588 915.85 472.642 916.049 472.746C916.249 472.851 916.42 473.003 916.547 473.189C916.674 473.375 916.754 473.59 916.779 473.814C916.805 474.038 916.775 474.264 916.692 474.474C913.914 481.624 905.024 504.464 890.022 542.994C887.872 548.511 885.521 553.608 882.967 558.284C878.056 567.263 871.458 573.722 860.425 573.474Z" fill="#081C2F"/>
<path d="M490.518 539.343H477.5C477.342 539.343 477.186 539.312 477.04 539.25C476.895 539.188 476.764 539.097 476.654 538.983C476.545 538.869 476.46 538.734 476.404 538.586C476.348 538.438 476.323 538.281 476.329 538.123C476.892 524.94 476.954 513.186 476.518 502.86C476.24 496.143 473.918 488.722 466.229 487.164C450.82 484.059 447.149 495.548 446.931 507.911C446.673 522.595 446.365 530.721 447.07 538.401C447.079 538.517 447.065 538.634 447.027 538.745C446.99 538.856 446.93 538.957 446.852 539.043C446.773 539.129 446.678 539.197 446.572 539.244C446.466 539.29 446.352 539.314 446.236 539.313H433.358C433.147 539.313 432.945 539.23 432.796 539.081C432.648 538.932 432.564 538.73 432.564 538.52V474.742C432.564 474.426 432.689 474.123 432.913 473.9C433.136 473.677 433.439 473.551 433.755 473.551H444.619C444.758 473.551 444.893 473.599 444.998 473.686C445.104 473.774 445.173 473.895 445.195 474.028L446.216 479.871C446.245 480.039 446.312 480.198 446.412 480.336C446.512 480.474 446.642 480.587 446.793 480.667C446.943 480.747 447.11 480.79 447.28 480.795C447.45 480.8 447.619 480.766 447.774 480.695C451.902 478.83 456.049 475.099 460.861 473.899C472.638 470.952 483.81 475.932 488.533 487.283C490.26 491.45 491.272 496.292 491.371 501.233C491.629 515.336 491.579 527.811 491.222 538.659C491.217 538.842 491.14 539.016 491.009 539.144C490.877 539.272 490.701 539.343 490.518 539.343ZM883.811 518.14C883.659 518.372 883.976 518.372 884.763 518.14C886.43 516.711 887.598 515.061 888.266 513.189C892.545 501.303 896.865 488.695 901.224 475.367C901.336 475.026 901.554 474.73 901.846 474.52C902.139 474.309 902.49 474.196 902.851 474.196H913.795C913.942 474.196 914.087 474.231 914.217 474.3C914.347 474.368 914.458 474.467 914.541 474.589C914.625 474.71 914.677 474.85 914.694 474.996C914.71 475.142 914.691 475.29 914.638 475.427C901.356 509.736 893.005 531.201 889.585 539.819C885.021 551.329 880.011 564.257 870.218 570.19C869.994 570.329 869.751 570.439 869.494 570.518L860.425 573.474C859.625 573.627 858.811 573.603 857.984 573.405L857.468 558.76C857.46 558.551 857.532 558.347 857.67 558.189C857.808 558.03 858.002 557.93 858.212 557.907C862.677 557.441 867.807 555.952 870.992 552.51C875.748 547.383 876.935 541.331 874.554 534.352C868.832 517.591 863.005 500.909 857.071 484.307C856.966 484.002 855.963 480.913 854.065 475.04C854.04 474.96 854.034 474.876 854.048 474.794C854.061 474.713 854.094 474.635 854.144 474.568C854.193 474.501 854.257 474.447 854.332 474.41C854.406 474.373 854.488 474.354 854.571 474.355H866.666C866.801 474.355 866.934 474.395 867.047 474.471C867.16 474.547 867.248 474.655 867.301 474.782C869.259 479.663 871.498 486.01 874.018 493.822C876.545 501.673 878.774 508.311 880.705 513.735C881.287 515.369 882.323 516.837 883.811 518.14Z" fill="#1D3542"/>
<path d="M163.374 535.672L163.423 487.591C163.426 487.361 163.481 487.135 163.582 486.93C163.683 486.724 163.829 486.543 164.009 486.4L177.334 475.942C177.949 476.928 177.747 477.841 176.728 478.681C171.093 483.285 167.461 486.331 165.834 487.819C165.722 487.922 165.632 488.046 165.57 488.185C165.509 488.323 165.477 488.472 165.477 488.623C165.285 499.616 165.292 510.196 165.497 520.363C165.596 525.125 165.795 531.376 163.374 535.672ZM224.353 479.167L234.017 486.569C234.144 486.664 234.247 486.787 234.317 486.928C234.388 487.07 234.424 487.225 234.424 487.382L234.593 531.277C233.541 529.193 233.005 527.622 232.985 526.564C232.813 515.828 232.387 505.1 231.706 494.377C231.408 489.707 228.957 484.637 224.353 479.167ZM403.046 511.79C403.046 505.708 404.138 493.703 397.956 489.803C391.2 485.527 381.129 487.789 378.232 495.866C377.392 498.214 376.965 500.939 376.952 504.041C376.886 521.438 376.849 532.93 376.843 538.52C376.843 539.757 376.446 540.501 375.652 540.752C375.513 540.798 374.6 540.835 372.914 540.861C370.056 540.908 367.185 540.878 364.301 540.772C367.126 539.528 370.132 539.006 373.32 539.204C373.458 539.212 373.594 539.169 373.701 539.085C373.809 539.001 373.882 538.881 373.906 538.748C375.315 531.277 375.007 523.488 374.997 511.909C374.997 507.305 375.632 502.225 375.831 498.386C375.857 497.984 375.934 497.587 376.059 497.205C379.148 488.117 385.462 484.78 395 487.194C405.18 489.764 405.586 503.416 403.046 511.79ZM831.453 508.853C831.73 508.89 831.986 509.017 832.184 509.214C832.381 509.411 832.508 509.668 832.544 509.945C833.437 516.781 831.989 523.925 825.728 527.844C818.961 532.07 807.968 532.557 804.605 523.597C802.352 517.604 806.549 510.937 812.601 509.369C817.87 507.99 825.202 508.069 831.453 508.853ZM830.55 510.024C825.358 509.515 820.675 509.445 816.501 509.816C801.37 511.165 801.608 531.178 817.334 529.332C824.121 528.548 829.598 524.183 830.808 517.396C831.172 515.319 831.413 513.242 831.533 511.165C831.549 510.886 831.456 510.612 831.273 510.399C831.09 510.186 830.831 510.052 830.55 510.024ZM648.573 509.855C648.91 512.369 648.897 514.644 648.533 516.682C647.323 523.462 643.682 527.87 637.609 529.908C630.257 532.368 621.496 530.175 620.554 521.444C619.939 515.749 622.667 510.719 628.313 509.419C633.803 508.155 640.325 508.066 647.879 509.151C648.056 509.177 648.22 509.261 648.346 509.388C648.471 509.515 648.551 509.679 648.573 509.855ZM646.638 510.054C641.446 509.545 636.763 509.472 632.589 509.836C617.468 511.175 617.696 531.187 633.412 529.352C640.199 528.568 645.676 524.212 646.896 517.426C647.26 515.349 647.502 513.272 647.621 511.195C647.637 510.916 647.544 510.641 647.361 510.429C647.178 510.216 646.919 510.082 646.638 510.054Z" fill="#081C2F"/>
<path d="M194.002 511.403C190.619 511.284 187.265 511.562 187.236 515.471C187.189 523.303 187.193 531.095 187.246 538.847C187.245 538.997 187.191 539.141 187.093 539.255C186.995 539.37 186.859 539.446 186.71 539.472C180.347 540.458 173.93 540.636 167.461 540.008C167.759 538.976 168.225 538.47 168.86 538.49C173.901 538.662 179.202 538.606 184.765 538.321C184.934 538.314 185.094 538.244 185.213 538.124C185.332 538.005 185.403 537.845 185.41 537.676C185.628 532.914 185.579 528.214 185.261 523.577C185.036 520.349 185.112 517.469 185.489 514.935C186.492 508.228 193.516 509.429 198.15 510.451C198.223 510.468 198.288 510.51 198.333 510.57C198.377 510.631 198.399 510.705 198.395 510.78C198.39 510.855 198.359 510.926 198.307 510.98C198.254 511.034 198.185 511.068 198.11 511.076L194.002 511.403Z" fill="#081C2F"/>
<path d="M212.09 539.651C211.21 539.532 210.777 539.069 210.79 538.262C210.876 532.586 210.817 524.295 210.612 513.388C210.969 511.225 211.452 511.297 212.06 513.606C212.338 514.671 212.477 515.918 212.477 517.346C212.457 524.722 212.328 532.156 212.09 539.651Z" fill="#081C2F"/>
</g>
<defs>
<clipPath id="clip0_8_59">
<rect fill="white" height="1016" width="1016"/>
</clipPath>
</defs>
</svg>