
        <svg xmlns="http://www.w3.org/2000/svg" xmlns:xlink="http://www.w3.org/1999/xlink" version="1.1" width="3171.4285714285716" height="2118.6210664038317" viewBox="0 0 3171.4285714285716 2118.6210664038317">
			
			<g transform="scale(8.571428571428573) translate(10, 10)">
				<defs id="SvgjsDefs1001"/><g id="SvgjsG1007" featureKey="rDwwlG-0" transform="matrix(1.590909090909091,0,0,1.590909090909091,95.45454545454545,-9.541958895596592)" fill="#000"><g xmlns="http://www.w3.org/2000/svg" transform="translate(0,-952.36218)"><path style="baseline-shift:baseline;block-progression:tb;color:;direction:ltr;text-indent:0;enable-background:accumulate;text-transform:none;" d="m50,958.36c-24.293,0-44,19.707-44,44s19.707,44,44,44,44-19.707,44-44c0-24.294-19.707-44-44-44zm0,1.1875c23.645,0,42.812,19.168,42.812,42.813,0,14.873-7.5841,27.954-19.094,35.625v-54.625a0.60006,0.60006,0,0,0,-0.593,-0.61h-24.406a0.60006,0.60006,0,0,0,-0.125,0,0.60006,0.60006,0,0,0,-0.46875,0.59375l0.125,21.281h-22.281a0.60006,0.60006,0,0,0,-0.125,0,0.60006,0.60006,0,0,0,-0.5,0.5938v32.094c-10.981-7.7-18.156-20.5-18.156-34.9,0-23.68,19.168-42.85,42.812-42.85zm-0.6875,24.406,23.219,0,0,54.781c-6.546,4.0621-14.259,6.4062-22.531,6.4062h-0.5625v-39.688a0.60006,0.60006,0,0,0,0,-0.2187v-0.062a0.60006,0.60006,0,0,0,0,-0.031l-0.125-21.187zm4.5312,4a0.60006,0.60006,0,0,0,-0.46875,0.59375v3.0312a0.60006,0.60006,0,0,0,0.59375,0.59375h4.3438a0.60006,0.60006,0,0,0,0.59375,-0.59375v-3.0312a0.60006,0.60006,0,0,0,-0.59375,-0.59375h-4.3438a0.60006,0.60006,0,0,0,-0.125,0zm9.5938,0a0.60006,0.60006,0,0,0,-0.5,0.59375v3.0312a0.60006,0.60006,0,0,0,0.625,0.59375h4.3438a0.60006,0.60006,0,0,0,0.594,-0.59v-3.0312a0.60006,0.60006,0,0,0,-0.59375,-0.59375h-4.3438a0.60006,0.60006,0,0,0,-0.125,0zm-8.875,1.1875,3.125,0,0,1.8438-3.125,0,0-1.8438zm9.5938,0,3.125,0,0,1.8438-3.125,0,0-1.8438zm-10.375,6.8125a0.60006,0.60006,0,0,0,-0.40625,0.59375v3.0312a0.60006,0.60006,0,0,0,0.59375,0.59381h4.3438a0.60006,0.60006,0,0,0,0.59375,-0.59381v-3.0312a0.60006,0.60006,0,0,0,-0.59375,-0.59375h-4.3438a0.60006,0.60006,0,0,0,-0.1875,0zm9.5938,0a0.60006,0.60006,0,0,0,-0.4375,0.59375v3.0312a0.60006,0.60006,0,0,0,0.625,0.59381h4.3438a0.60006,0.60006,0,0,0,0.593,-0.62v-3.0312a0.60006,0.60006,0,0,0,-0.59375,-0.59375h-4.3438a0.60006,0.60006,0,0,0,-0.1875,0zm-8.8125,1.1875,3.125,0,0,1.8125-3.125,0,0-1.8125zm9.5938,0,3.125,0,0,1.8125-3.125,0,0-1.8125zm-10.25,6.7813a0.60006,0.60006,0,0,0,-0.53125,0.5937v3.0313a0.60006,0.60006,0,0,0,0.59375,0.5937h4.3438a0.60006,0.60006,0,0,0,0.59375,-0.5937v-3.0313a0.60006,0.60006,0,0,0,-0.59375,-0.5937h-4.3438a0.60006,0.60006,0,0,0,-0.0625,0zm9.5938,0a0.60006,0.60006,0,0,0,-0.5625,0.5937v3.0313a0.60006,0.60006,0,0,0,0.625,0.5937h4.3438a0.60006,0.60006,0,0,0,0.593,-0.6v-3.0313a0.60006,0.60006,0,0,0,-0.59375,-0.5937h-4.3438a0.60006,0.60006,0,0,0,-0.0625,0zm-8.9375,1.2187,3.125,0,0,1.8125-3.125,0,0-1.8125zm9.5938,0,3.125,0,0,1.8125-3.125,0,0-1.8125zm-37.594,0.6875,21.688,0,0,39.281c-7.9866-0.3237-15.413-2.8536-21.688-6.9688a0.60938,0.60938,0,0,0,0,-0.031v-32.281zm3.75,4.125a0.60006,0.60006,0,0,0,-0.46875,0.5938v3.0312a0.60006,0.60006,0,0,0,0.59375,0.5938h4.3438a0.60006,0.60006,0,0,0,0.59375,-0.5938v-3.0312a0.60006,0.60006,0,0,0,-0.59375,-0.5938h-4.3438a0.60006,0.60006,0,0,0,-0.125,0zm9.5938,0a0.60006,0.60006,0,0,0,-0.46875,0.5938v3.0312a0.60006,0.60006,0,0,0,0.59375,0.5938h4.3438a0.60006,0.60006,0,0,0,0.59375,-0.5938v-3.0312a0.60006,0.60006,0,0,0,-0.59375,-0.5938h-4.3438a0.60006,0.60006,0,0,0,-0.125,0zm-8.875,1.1875,3.1562,0,0,1.8438-3.1562,0,0-1.8438zm9.5938,0,3.125,0,0,1.8438-3.125,0,0-1.8438zm13.219,0.7813a0.60006,0.60006,0,0,0,-0.46875,0.5937v3.0313a0.60006,0.60006,0,0,0,0.59375,0.5937h4.3438a0.60006,0.60006,0,0,0,0.59375,-0.5937v-3.0313a0.60006,0.60006,0,0,0,-0.59375,-0.5937h-4.3438a0.60006,0.60006,0,0,0,-0.125,0zm9.5938,0a0.60006,0.60006,0,0,0,-0.5,0.5937v3.0313a0.60006,0.60006,0,0,0,0.625,0.5937h4.3438a0.60006,0.60006,0,0,0,0.593,-0.6v-3.0313a0.60006,0.60006,0,0,0,-0.59375,-0.5937h-4.3438a0.60006,0.60006,0,0,0,-0.125,0zm-8.875,1.1875,3.125,0,0,1.8437-3.125,0,0-1.8437zm9.5938,0,3.125,0,0,1.8437-3.125,0,0-1.8437zm-33.844,4.8437a0.60006,0.60006,0,0,0,-0.46875,0.5938v3.0312a0.60006,0.60006,0,0,0,0.59375,0.5938h4.3438a0.60006,0.60006,0,0,0,0.59375,-0.5938v-3.0312a0.60006,0.60006,0,0,0,-0.59375,-0.5938h-4.3438a0.60006,0.60006,0,0,0,-0.125,0zm9.5938,0a0.60006,0.60006,0,0,0,-0.46875,0.5938v3.0312a0.60006,0.60006,0,0,0,0.59375,0.5938h4.3438a0.60006,0.60006,0,0,0,0.59375,-0.5938v-3.0312a0.60006,0.60006,0,0,0,-0.59375,-0.5938h-4.3438a0.60006,0.60006,0,0,0,-0.125,0zm-8.875,1.1875,3.1562,0,0,1.8438-3.1562,0,0-1.8438zm9.5938,0,3.125,0,0,1.8438-3.125,0,0-1.8438zm13.156,0.7813a0.60006,0.60006,0,0,0,-0.40625,0.5937v3.0313a0.60006,0.60006,0,0,0,0.59375,0.5937h4.3438a0.60006,0.60006,0,0,0,0.59375,-0.5937v-3.0313a0.60006,0.60006,0,0,0,-0.59375,-0.5937h-4.3438a0.60006,0.60006,0,0,0,-0.1875,0zm9.5938,0a0.60006,0.60006,0,0,0,-0.4375,0.5937v3.0313a0.60006,0.60006,0,0,0,0.625,0.5937h4.3438a0.60006,0.60006,0,0,0,0.593,-0.6v-3.0313a0.60006,0.60006,0,0,0,-0.59375,-0.5937h-4.3438a0.60006,0.60006,0,0,0,-0.1875,0zm-8.8125,1.1875,3.125,0,0,1.8125-3.125,0,0-1.8125zm9.5938,0,3.125,0,0,1.8125-3.125,0,0-1.8125zm-33.781,4.8125a0.60006,0.60006,0,0,0,-0.53125,0.625v3a0.60006,0.60006,0,0,0,0.59375,0.625h4.3438a0.60006,0.60006,0,0,0,0.59375,-0.625v-3a0.60006,0.60006,0,0,0,-0.59375,-0.625h-4.3438a0.60006,0.60006,0,0,0,-0.0625,0zm9.5938,0a0.60006,0.60006,0,0,0,-0.53125,0.625v3a0.60006,0.60006,0,0,0,0.59375,0.625h4.3438a0.60006,0.60006,0,0,0,0.59375,-0.625v-3a0.60006,0.60006,0,0,0,-0.59375,-0.625h-4.3438a0.60006,0.60006,0,0,0,-0.0625,0zm-8.9375,1.2187,3.1562,0,0,1.8125-3.1562,0,0-1.8125zm9.5938,0,3.125,0,0,1.8125-3.125,0,0-1.8125zm13.281,0.75a0.60006,0.60006,0,0,0,-0.53125,0.5938v3.0312a0.60006,0.60006,0,0,0,0.59375,0.5938h4.3438a0.60006,0.60006,0,0,0,0.59375,-0.5938v-3.0312a0.60006,0.60006,0,0,0,-0.59375,-0.5938h-4.3438a0.60006,0.60006,0,0,0,-0.0625,0zm9.5938,0a0.60006,0.60006,0,0,0,-0.5625,0.5938v3.0312a0.60006,0.60006,0,0,0,0.625,0.5938h4.3438a0.60006,0.60006,0,0,0,0.591,-0.5v-3.0312a0.60006,0.60006,0,0,0,-0.59375,-0.5938h-4.3438a0.60006,0.60006,0,0,0,-0.0625,0zm-8.9375,1.2188,3.125,0,0,1.8125-3.125,0,0-1.8125zm9.5938,0,3.125,0,0,1.8125-3.125,0,0-1.8125zm-33.844,4.8125a0.60006,0.60006,0,0,0,-0.46875,0.5937v3.0313a0.60006,0.60006,0,0,0,0.59375,0.5937h4.3438a0.60006,0.60006,0,0,0,0.59375,-0.5937v-3.0313a0.60006,0.60006,0,0,0,-0.59375,-0.5937h-4.3438a0.60006,0.60006,0,0,0,-0.125,0zm9.5938,0a0.60006,0.60006,0,0,0,-0.46875,0.5937v3.0313a0.60006,0.60006,0,0,0,0.59375,0.5937h4.3438a0.60006,0.60006,0,0,0,0.59375,-0.5937v-3.0313a0.60006,0.60006,0,0,0,-0.59375,-0.5937h-4.3438a0.60006,0.60006,0,0,0,-0.125,0zm-8.875,1.1875,3.1562,0,0,1.8437-3.1562,0,0-1.8437zm9.5938,0,3.125,0,0,1.8437-3.125,0,0-1.8437z"/></g></g><g id="SvgjsG1008" featureKey="4AZ1rv-0" transform="matrix(3.6626207292331903,0,0,3.6626207292331903,-4.981164244151349,136.19296700645793)" fill="#000"><path d="M1.36 20 l0 -13.22 l3.36 0 l0 13.22 l-3.36 0 z M7.12 20 l0 -9.34 l2.9 0 l0 1.48 c0.24 -0.56 1.02 -1.76 3.1 -1.76 c1.38 0 2.98 0.56 2.98 3.48 l0 6.14 l-3.12 0 l0 -5.34 c0 -1.1 -0.26 -1.64 -0.9 -1.64 c-1.12 0 -1.68 1.56 -1.84 2.16 l0 4.82 l-3.12 0 z M18.119999999999997 20 l0 -9.34 l2.9 0 l0 1.48 c0.24 -0.56 1.02 -1.76 3.1 -1.76 c1.38 0 2.98 0.56 2.98 3.48 l0 6.14 l-3.12 0 l0 -5.34 c0 -1.1 -0.26 -1.64 -0.9 -1.64 c-1.12 0 -1.68 1.56 -1.84 2.16 l0 4.82 l-3.12 0 z M28.619999999999997 17.5 l2.94 -0.46 c-0.08 0.48 0.28 0.92 1.26 0.92 c0.58 0 1.04 -0.18 1.04 -0.56 c0 -1.2 -5.04 -0.48 -5.04 -4 c0 -1.82 1.34 -3.02 3.98 -3.02 c2.4 0 4.28 0.98 3.96 2.72 l-3.12 0.54 c0.12 -0.44 -0.14 -0.94 -0.88 -0.94 c-0.6 0 -0.78 0.3 -0.78 0.56 c0 1.4 5.08 0.5 5.08 3.96 c0 2.14 -1.92 3.06 -4.36 3.06 c-2.32 0 -4.28 -0.88 -4.08 -2.78 z M37.99999999999999 13 l0 -2.34 l1.18 0 l0.18 -2.56 l2.9 0 l0 2.56 l2.56 0 l0 2.34 l-2.56 0 l0 3.96 c0 0.46 0.14 0.74 0.54 0.74 c0.5 0 0.6 -0.56 0.64 -1.12 l2.28 0.8 c-0.4 1.58 -1.02 2.82 -3.3 2.82 c-2.48 0 -3.28 -1.58 -3.28 -3.24 l0 -3.96 l-1.14 0 z M55.3 20.1 c-2.14 0.34 -2.98 -0.52 -3.24 -1.22 c-0.48 0.68 -1.2 1.4 -2.66 1.4 c-1.7 0 -3.16 -0.96 -3.16 -2.74 c0 -2.16 2.14 -3.14 5.4 -3.16 l0 -0.28 c0 -1.06 -0.26 -1.44 -1.02 -1.44 c-0.72 0 -1.06 0.34 -0.96 1.24 l-3.1 -0.58 c-0.2 -1.62 1.24 -2.94 4.28 -2.94 c2.86 0 3.92 1.18 3.92 3.76 l0 2.2 c0 1.02 0.04 1.54 1.1 1.3 z M51.63999999999999 16.88 l0 -0.74 c-1.22 0.02 -2.26 0.24 -2.26 1.16 c0 0.52 0.34 0.76 0.86 0.76 c0.6 0 1.32 -0.32 1.4 -1.18 z M56.63999999999999 16.34 l3.3 -0.68 c0.02 1.4 1.1 1.84 2.2 1.84 c1.04 0 1.64 -0.38 1.64 -1 c0 -2.1 -6.78 -1.14 -6.78 -5.94 c0 -2.64 2.04 -4.06 5.1 -4.06 c3.08 0 5.02 1.46 4.92 3.58 l-3.3 0.68 c-0.02 -0.54 -0.14 -1.48 -1.7 -1.48 c-1.08 0 -1.62 0.44 -1.62 1.04 c0 2.18 6.78 1.04 6.78 5.82 c0 2.4 -1.7 4.14 -5.08 4.14 c-3.6 0 -5.58 -1.96 -5.46 -3.94 z M68.26 13 l0 -2.34 l1.18 0 l0.18 -2.56 l2.9 0 l0 2.56 l2.56 0 l0 2.34 l-2.56 0 l0 3.96 c0 0.46 0.14 0.74 0.54 0.74 c0.5 0 0.6 -0.56 0.64 -1.12 l2.28 0.8 c-0.4 1.58 -1.02 2.82 -3.3 2.82 c-2.48 0 -3.28 -1.58 -3.28 -3.24 l0 -3.96 l-1.14 0 z M85.55999999999999 20.1 c-2.14 0.34 -2.98 -0.52 -3.24 -1.22 c-0.48 0.68 -1.2 1.4 -2.66 1.4 c-1.7 0 -3.16 -0.96 -3.16 -2.74 c0 -2.16 2.14 -3.14 5.4 -3.16 l0 -0.28 c0 -1.06 -0.26 -1.44 -1.02 -1.44 c-0.72 0 -1.06 0.34 -0.96 1.24 l-3.1 -0.58 c-0.2 -1.62 1.24 -2.94 4.28 -2.94 c2.86 0 3.92 1.18 3.92 3.76 l0 2.2 c0 1.02 0.04 1.54 1.1 1.3 z M81.89999999999999 16.88 l0 -0.74 c-1.22 0.02 -2.26 0.24 -2.26 1.16 c0 0.52 0.34 0.76 0.86 0.76 c0.6 0 1.32 -0.32 1.4 -1.18 z M86.74 23.62 l1.48 -2 c0.02 0.04 0.44 0.72 1.02 0.72 s0.92 -0.32 1.1 -1.3 l0.2 -1.12 l-4.16 -9.26 l3.54 0 l1.46 3.74 c0.24 0.64 0.44 1.38 0.58 1.96 c0.12 -0.56 0.28 -1.24 0.5 -1.96 l1.1 -3.74 l3.36 0 l-3.6 9.5 l-0.26 1.46 c-0.3 1.64 -1.24 3.22 -3.7 3.22 c-1.92 0 -2.62 -1.22 -2.62 -1.22 z"/></g>
			</g>
		</svg>
	