<svg xmlns="http://www.w3.org/2000/svg" version="1.1" viewBox="0 0 1024 1024"><g fill="none" stroke-linecap="butt" stroke-width="2"><path stroke="#89959c" d="M142.82 578.9q10.47 8.28 23.91 13.35c60 22.6 122.39-16.44 128.53-80.02 3.06-31.77-8.35-61.7-32.93-82.31" vector-effect="non-scaling-stroke"/><path stroke="#7f8892" d="M262.33 429.92c-36.92-31.19-91.55-29.65-126.52 3.16q-21.92 20.56-27.83 49.14-8.62 41.58 15.56 76.51 7.96 11.51 19.28 20.17" vector-effect="non-scaling-stroke"/><path stroke="#132939" d="m262.33 429.92 1.79 2.48a.2.2 0 0 1-.19.32q-2.5-.46-4.25-1.91c-9.83-8.18-22.85-15.27-35.78-17.81-4.77-.93-13.64-4.06-21.04-3.73q-12.3.55-21.9 2.54-22.82 4.74-40.88 20c-6.34 5.36-11.83 12.31-16.71 19.26q-12.03 17.16-15.09 38.06c-3.49 23.97 3.37 51.39 18.41 70.43q4.55 5.76 7.71 9.7a3.83 3.72-.8 0 0 .71.67q5.17 3.69 7.71 8.97" vector-effect="non-scaling-stroke"/><path stroke="#7f8892" d="M732.31 466.83q3.36-4.29 4.81-10.57a1.41 1.4 34.8 0 0-.2-1.08q-.98-1.43-2.65-2.49c-9.1-5.78-20.4-7.44-31.09-5.76-14.49 2.27-23.61 13.12-23.24 27.86.49 19.22 15.7 24.34 31.89 31.25 6.68 2.86 12.01 6.88 10.43 14.99-1.48 7.64-8.77 9.56-15.51 9.25q-11.12-.5-19.97-7.1a1.1 1.1 0 0 0-1.61.33l-6.13 10.62a2.29 2.29 0 0 0 .29 2.69c5.86 6.36 15.64 9.22 24.13 9.69 13.8.78 27.4-2.37 33.62-16.15 4.32-9.56 4.31-23.5-3.78-31.45-6.35-6.23-13.82-8.84-24.13-13.6q-4.31-1.99-8.18-5.23c-6.24-5.22-4.52-15.34 3.44-17.67 9.53-2.79 18.56-.26 26.92 4.61a.75.75 0 0 0 .96-.19" vector-effect="non-scaling-stroke"/><path stroke="#89959c" d="M331.09 448.97q-.12 74.82.01 94.47.02 1.92 1.88 1.53" vector-effect="non-scaling-stroke"/><path stroke="#7f8892" d="m332.98 544.97 14.56.09a1.81 1.81 0 0 0 1.82-1.81q.01-10.11-.02-93.76-.01-2.39-2.58-2.46-6.4-.16-12.75-.11-2.54.02-2.92 2.05" vector-effect="non-scaling-stroke"/><path stroke="#132939" d="M332.98 544.97q6.54-2.26 13.22-1.46a.95.95 0 0 0 1.06-.93q.58-29.33.06-55.81c-.25-12.88.09-26.21.49-37.09a.75.74-86.8 0 0-.69-.78c-4.79-.29-10.74-.52-15.09 1.44a.57.56-16.2 0 1-.79-.43l-.15-.94" vector-effect="non-scaling-stroke"/><path stroke="#7f8892" d="M774.63 490.94h13.39a2.09 2.09 0 0 0 2.09-2.09v-10.73a1.75 1.75 0 0 0-1.81-1.75q-4.5.15-10.5.03-4.58-.09-4.78-3.9-.57-11.22-.61-11.81a1.63 1.63 0 0 0-1.91-1.49l-11.37 1.98a1.39 1.38 85.5 0 0-1.14 1.34c-.07 4.56.89 10.47-3.49 13.14-1.56.95-3.9 1.01-6.21 1.2a1.66 1.66 0 0 0-1.52 1.65v11.01a1.75 1.75 0 0 0 1.75 1.75h5.99a1 1 0 0 1 1 1.01q-.16 23.18-.14 24.48c.2 11.11 1.14 23.07 12.15 28.09 6.37 2.9 15.35 2.04 21.85-.33a2.69 2.68 75 0 0 1.72-2.99l-1.87-10.72a1.19 1.19 0 0 0-1.76-.83q-4.33 2.48-8.82.93c-3.87-1.34-4.73-5.48-4.8-9.16q-.31-14.61-.08-29.96a.87.86.3 0 1 .87-.85M601.36 530q-3.11 1.93-7.09 1.5c-5.7-.63-6.72-5.37-6.76-10.25q-.09-11.78-.05-29.41a.92.91-89.7 0 1 .91-.91h13.91a1.74 1.74 0 0 0 1.74-1.74v-11.07a1.77 1.77 0 0 0-1.79-1.77q-6.99.09-10.44.05c-3.69-.04-5.01-1.84-5.08-5.54q-.03-1.45-.49-10.07a1.58 1.58 0 0 0-1.85-1.47l-10.95 1.91a1.14 1.14 0 0 0-.94 1.07c-.36 8.25 1.11 14.41-10 14.57a1.37 1.36-.4 0 0-1.35 1.36v11.43a1.72 1.72 0 0 0 1.72 1.72h5.66a1.34 1.33.2 0 1 1.34 1.34q-.1 19.24.06 30.45c.17 11.64 4.87 21.88 17.32 23.35 5.25.62 11.9.06 16.87-2.35a1.41 1.41 0 0 0 .79-1.28q-.1-6.22-2.02-12.34a1.02 1.02 0 0 0-1.51-.55M620.18 490.83q3.89-1.27 7.81-2.85c5.96-2.39 16.39-2.82 21.4 1.63q4.04 3.58 4.05 10.46a1.26 1.26 0 0 1-1.38 1.25c-13.98-1.34-34.46-2.32-40.07 14.65-2.28 6.89-2.03 16.75 2.59 22.64 8.29 10.57 29.12 10.2 37.64.32a.8.8 0 0 1 1.41.52v4.44a1.49 1.49 0 0 0 1.49 1.49h13.79a1.37 1.36 0 0 0 1.37-1.36q.04-8.86.09-41.84c.02-12.79-4.7-23.72-18.07-26.88q-15.62-3.7-31.44 2.7a2.15 2.12-83.6 0 0-.94.76c-1.58 2.32-1.36 8.8-1.12 11.17a1.06 1.06 0 0 0 1.38.9M838.42 539.13q.53 1.5.43 4.83a1.8 1.8 0 0 0 1.8 1.85h12.87a1.96 1.95 90 0 0 1.95-1.96q-.04-14.32.01-35.44c.03-12.83-.52-26.88-14.96-32.1-10.35-3.75-23.91-2.83-34.5 1.9a2.34 2.34 0 0 0-1.38 1.97l-.67 9.2a1.49 1.48-8 0 0 2 1.5q4.46-1.65 6.29-2.37c6.35-2.48 15.81-3.31 21.39.55q4.59 3.17 5.17 10.71a1.52 1.52 0 0 1-1.61 1.63q-.03 0-8.2-.63c-13.08-.99-28.79 2.62-32.14 17.59-4.43 19.86 9.75 30.67 28.3 27.3q7.21-1.31 12.25-6.73a.6.59-33.6 0 1 1 .2M510.56 528.59a.9.9 0 0 0-1.08.33q-3.04 4.45-3.85 9.59c-.31 1.96 1.08 2.93 2.65 3.73 7.04 3.59 16.14 4.77 23.63 4.38 13.09-.68 24.07-7.66 24.18-21.9.11-15.65-17.13-19.42-28.81-23.72-4.25-1.56-8.32-4.63-6.46-9.61 2.83-7.59 20.8-3.85 26.62-1.83q2.23.77 3.01-1.37 1.39-3.82 1.83-7.59a2.36 2.36 0 0 0-1.22-2.34q-6.37-3.45-14.06-3.94c-9.73-.61-19.15-.07-26.2 6.74q-4.75 4.58-5.48 12.14c-1.79 18.53 14.86 22.59 28.41 27.34 2.07.73 5.56 2.71 6.12 4.08 1.81 4.45-2.03 8.03-5.88 8.65q-9.02 1.44-17.9-2.38-2.48-1.07-5.51-2.3" vector-effect="non-scaling-stroke"/><path stroke="#89959c" d="m370.97 475.84-6.73-.01a1.73 1.73 0 0 0-1.73 1.73v65.55a1.99 1.98-83.1 0 0 1.51 1.93q1.43.34 3.15-.01" vector-effect="non-scaling-stroke"/><path stroke="#7f8892" d="M367.17 545.03q4.36.16 8.68.09 2.55-.04 2.76-.11 1.2-.38 1.2-2.25.01-8.45.11-34.75.02-4.69 1.29-8.24c2.92-8.14 13.07-10.42 19.88-6.11 6.23 3.93 5.13 16.03 5.13 22.16" vector-effect="non-scaling-stroke"/><path stroke="#89959c" d="M406.22 515.82q-.28 18.64-.04 27.99.02.94 1.05 1.13" vector-effect="non-scaling-stroke"/><path stroke="#7f8892" d="M407.23 544.94c4.78.28 9.48-.01 14.19.21q2.19.11 2.22-2.4.33-27.23-.18-40.99c-.5-13.78-7.66-25.49-22.22-26.97-8.31-.84-15.95 2.76-21.74 8.71a.77.77 0 0 1-1.33-.54v-5.88a1.23 1.23 0 0 0-1.23-1.23l-5.97-.01" vector-effect="non-scaling-stroke"/><path stroke="#132939" d="M407.23 544.94q6.6-2.16 13.55-1.23a.94.93-86.2 0 0 1.05-.93c-.01-10.69.58-21.33.07-32.04-.46-9.5-.24-16.79-4.3-23.63q-6.62-11.14-20.73-10.4c-6.77.36-11.34 3.77-16.6 7.62a2.03 2.03 0 0 1-3.2-1.29l-.9-5.16a.29.29 0 0 0-.26-.24l-7.44-.69a.4.4 0 0 1-.09-.78q1.11-.36 2.59-.33" vector-effect="non-scaling-stroke"/><path stroke="#132939" d="M406.22 515.82c2.56-8.44 2.15-22.2-8.11-24.79q-14.42-3.65-19.09 10.09a4.86 4.82 56.1 0 0-.23 1.19c-.2 3.87-.84 8.99-.84 13.63.01 11.67.32 19.52-1.1 27.05a.57.56 6.9 0 1-.59.46q-4.82-.3-9.09 1.58" vector-effect="non-scaling-stroke"/><path stroke="#7f8892" d="M450.49 483.11v-5.85a1.5 1.5 0 0 0-1.5-1.5h-12.67a2.03 2.03 0 0 0-2.03 2.03v65.76a1.56 1.55-89.8 0 0 1.54 1.56q5.62.02 14.06.08 1.99.02 2.01-2.77.22-22.58.13-29.82c-.13-9.95.9-18.95 11.39-20.78 5.39-.95 11.37.87 13.4 6.08q1.92 4.92 1.94 7.86.11 15.74.08 37.48a1.95 1.95 0 0 0 1.95 1.95h14.51a1.34 1.34 0 0 0 1.34-1.34q.24-34.03.22-36.1c-.09-9.47-1.59-18.54-8.02-25.6-7.07-7.75-19.66-9.37-28.76-4.7q-4.74 2.43-8.47 6.12a.66.65-22.6 0 1-1.12-.46" vector-effect="non-scaling-stroke"/><path stroke="#89959c" d="M864.74 577.92q1.25.3 2.46.07" vector-effect="non-scaling-stroke"/><path stroke="#7f8892" d="M867.2 577.99c11.12.25 17.77-6.26 22.72-15.31q3.86-7.07 7.11-15.41 22.68-58.25 26.88-69.06a1.39 1.39 0 0 0-1.3-1.9h-13.54a2.13 2.12 9.4 0 0-2.01 1.43l-15.33 44.48" vector-effect="non-scaling-stroke"/><path stroke="#89959c" d="M891.73 522.22q-1.19.35-.96 0" vector-effect="non-scaling-stroke"/><path stroke="#7f8892" d="m890.77 522.22-14.94-44.76a1.73 1.73 0 0 0-1.64-1.17h-13.67a1.75 1.75 0 0 0-1.66 2.31q4.79 14.15 20.1 57.7 2.33 6.63 2.16 9.1c-.66 9.86-7.31 14.46-16.71 15.37a2.05 2.04 87.4 0 0-1.84 2.03l-.06 13.97q-.01 1.58 2.23 1.15" vector-effect="non-scaling-stroke"/><path stroke="#132939" d="M890.77 522.22q-2.25-1.97-3.13-4.44-2.92-8.2-6.74-20.07-3.81-11.81-6.77-19.19a.7.69 78.5 0 0-.64-.43H861.3a.53.53 0 0 0-.51.69q2.87 8.88 3.03 9.34 8.97 25.1 17.62 50.44 3.6 10.55-3.59 18.3c-3.21 3.47-8.38 4.97-12.88 5.44a.84.83-4 0 0-.75.86l.52 14.76" vector-effect="non-scaling-stroke"/><path stroke="#132939" d="m867.2 577.99 9.14-2.98a3.27 3.01 18.3 0 0 .73-.33c9.87-5.98 14.92-19.01 19.52-30.61q5.17-13.03 25.25-64.9a.91.91 0 0 0-.85-1.24h-11.03a1.73 1.72 9.1 0 0-1.64 1.18q-6.59 20.15-13.06 38.12-1.01 2.83-3.53 4.99" vector-effect="non-scaling-stroke"/><path stroke="#89959c" d="M246.29 555.59q2.98-1.68 3-5.09.13-23.32-.07-46.23a.7.69-.4 0 1 .7-.7h6.79a2.59 2.59 0 0 0 2.59-2.59v-7.02a3.2 3.16-68.7 0 0-1.01-2.33l-47.37-43.98" vector-effect="non-scaling-stroke"/><path stroke="#132939" d="M210.92 447.65q.55-.35 1.67.02a.22.22 0 0 0 .26-.31c-3.84-6.74-11.63-12.9-19.05-6.12-8.18 7.48-15.11 13.02-17.58 15.86q-1.42 1.64-12.03 11.18c-5.35 4.81-9.93 10.1-15.01 15.1-2.72 2.67-7.04 5.53-8.48 8.67-1.58 3.45-1.46 9.44 1.74 12.31a1.22 1.19 67.5 0 0 .72.31l6.16.42a.58.58 0 0 1 .54.58q-.37 24.82-.2 43.07c.03 2.85.95 8.14 4.34 8.1q29.02-.31 39-.13 28.79.5 53.29-1.12" vector-effect="non-scaling-stroke"/><path stroke="#7f8892" d="m210.92 447.65-8.46-7.82a1.78 1.72-15.5 0 0-.72-.39q-2.26-.58-4.25 1.29-21.72 20.34-54.54 50.6a3.98 3.94-21.5 0 0-1.28 2.91v6.57a2.67 2.67 0 0 0 2.67 2.67h6.7a.71.71 0 0 1 .71.72q-.24 19.79-.15 46.75.01 4.25 4.15 4.24 52.4-.11 90.54.4" vector-effect="non-scaling-stroke"/><path stroke="#7f8892" d="m178.73 479.69-13.43 10.54a1.56 1.56 0 0 0-.59 1.2l-.05 48.46" vector-effect="non-scaling-stroke"/><path stroke="#89959c" d="m164.66 539.89-.03 2.65a1.4 1.39-86.4 0 0 1.24 1.41l2.91.31" vector-effect="non-scaling-stroke"/><path stroke="#7f8892" d="M168.78 544.26q9.78.95 19.4-.54a.65.64-4.8 0 0 .54-.63q-.08-11.72-.01-23.56c.03-3.94 3.41-4.22 6.82-4.1" vector-effect="non-scaling-stroke"/><path stroke="#89959c" d="M195.53 515.43q6.97-.05 13.9.26 1.57.07 2.84 1.74" vector-effect="non-scaling-stroke"/><path stroke="#7f8892" d="M212.27 517.43q.31 16.49.18 25.07-.02 1.22 1.31 1.4" vector-effect="non-scaling-stroke"/><path stroke="#89959c" d="M213.76 543.9q10.71 1.69 21.74 0a1.07 1.07 0 0 0 .91-1.06l.03-7.38" vector-effect="non-scaling-stroke"/><path stroke="#7f8892" d="m236.44 535.46-.17-44.24a1.03 1.02 18.7 0 0-.41-.82l-9.74-7.46" vector-effect="non-scaling-stroke"/><path stroke="#89959c" d="m226.12 482.94-25.06-19.85a1 1 0 0 0-1.24 0l-21.09 16.6" vector-effect="non-scaling-stroke"/><path stroke="#132939" d="M226.12 482.94q6.96 8.27 7.41 15.33 1.03 16.21 1.29 32.44.03 1.6 1.62 4.75M213.76 543.9q.36-11.33.39-22.48 0-2.16-.42-3.77-.92-3.49-1.46-.22M195.53 515.43l4.14-.33a.32.32 0 0 0 .04-.63c-4.67-1.03-11.75-2.24-12.76 4.52q-.57 3.83-.23 8.71.48 7.01.15 14.21a.68.68 0 0 1-.65.65q-8.41.43-16.03.17-.96-.03-1.41 1.53M164.66 539.89c2.44-4.33 2.24-10.63 2.14-15.43q-.31-15.37-.02-31.99a1.11 1.09-21.7 0 1 .36-.81q2.46-2.25 10.98-9.21 1.54-1.27.61-2.76M682.34 537.45c5.55 3.16 10.95 6.07 16.69 7.07q5.93 1.04 14.14.1c14.25-1.62 22.8-10.32 24.22-24.07.82-7.94-.42-15.91-6.62-21.2q-4.8-4.1-8.46-5.83-10.95-5.16-16.84-8.4c-5.72-3.14-10.26-7.6-9.47-14.64q.67-5.85 6.21-8.68c9.83-4.99 19.11-2.28 28.15 2.9a1.26 1.25 27.1 0 0 1.77-.57l3.28-7.29a.95.94 31.3 0 0-.28-1.13c-8.79-6.99-18.95-8.32-30.05-7.3q-5.84.53-9.12 2.32c-6.1 3.32-11.78 9.34-13.26 16.21-1.89 8.7-.39 19.33 6.79 25.12 7.73 6.24 18.26 9.76 25.88 13.57q3.77 1.87 6.2 5.3c4.23 5.95 2.66 15.18-3.62 18.82-8.41 4.88-21.98 1.46-30.31-3.49a1.27 1.26 34.8 0 0-1.64.29q-3.46 4.29-4.58 8.75a1.94 1.93 22 0 0 .92 2.15M749.11 489.73h6.01a1.24 1.23-6.9 0 1 1.2.94q1.06 4.2 1.05 8.87-.09 19.56.62 26.45c.9 8.8 4.94 16.4 13.62 18.29q8.29 1.8 16.74-1.17a1.53 1.52-14.6 0 0 1-1.7l-1.44-8.22a1.14 1.14 0 0 0-1.3-.93c-3.14.47-6.79.79-9.33-.63-5.19-2.9-5.42-10.71-5.56-16.11-.27-9.65-.34-17.2.86-24.56a1.97 1.97 0 0 1 1.94-1.65h12.74a1.42 1.41 0 0 0 1.42-1.41v-8.34a1.47 1.46 88.5 0 0-1.54-1.47c-6.26.29-14.79.87-15.73-7.53q-.54-4.9-.54-8.9a.76.75-5.1 0 0-.89-.74l-9.56 1.67a.72.72 0 0 0-.6.72c.12 8.22-1.31 13.92-10.5 15.02a1 .99 86.8 0 0-.88.99v9.75a.67.66 0 0 0 .67.66M586.12 491.19a2.78 2.78 0 0 1 2.71-2.15h11.51a1.93 1.93 0 0 0 1.93-1.93v-8.28a.97.97 0 0 0-1.04-.97c-5.59.39-14.29 1.61-15.57-6.07q-.95-5.69-1.2-7.12a3.31 3.3-.2 0 0-2.73-2.7q-4.1-.66-6.47 2.47c-1.54 2.03-1.51 6.67-2.91 8.92-1.44 2.33-3.51 3.47-5.8 4.58-4.19 2.03-5.09 8.85-.82 11.29 1.74 1 3.27 1.55 4.29 3.07q1.61 2.41 1.59 6.3-.03 6.82.15 23.41c.07 6.79 1.53 14.92 6.56 19.05q3.4 2.8 6.51 3.39 8.85 1.69 17.52-.93a1.47 1.47 0 0 0 1.03-1.66l-1.58-9.02a.82.82 0 0 0-.89-.68c-1.12.11-2.73.83-3.68.91q-9.92.82-11.27-9.1-1.14-8.43-.96-21.92.09-6.49 1.12-10.86M654.72 538.87l.67 3.25a1.96 1.96 0 0 0 1.92 1.57h10.04a.53.53 0 0 0 .52-.43c.42-2.14.74-4.68.74-6.68q-.09-20.07.14-31.65c.27-13.53-3.29-25.21-18.25-28.26q-14.48-2.96-29.27 2.97a1.22 1.2-11.2 0 0-.76 1.12v7.57a.54.54 0 0 0 .77.49q5.19-2.46 10.3-3.5c7.13-1.46 16.5-.91 20.8 5.83 1.44 2.26 2.08 5.93 2.44 8.67a2.5 2.49 87.4 0 1-2.58 2.83q-10.81-.47-19.82.47-6.71.7-11.93 4.37c-6.63 4.66-9.1 14.63-7.63 22.25 1.82 9.37 8.12 13.6 17.09 14.76q12.31 1.58 20.93-6.26a1.14 1.13-54.9 0 1 1.19-.21q1.86.76 2.18.6a.35.35 0 0 1 .51.24M841.25 543.94q6.51.86 12.05-.15a.77.76 81.3 0 0 .62-.85q-.64-4.78-.66-10.2-.02-5.96.31-27.62c.07-4.75-.32-10.84-1.42-14q-4.17-11.96-17.13-14.4-14.87-2.8-27.95 2.95a1.19 1.17 81.7 0 0-.69.94l-.89 7.79a.7.7 0 0 0 1.01.7c7.09-3.58 13.64-4.88 21.14-3.76 8.83 1.33 12.06 7.14 12.48 15.52a.95.94-10.9 0 1-.65.95q-2.89.97-5.87.86-5.53-.2-14.5.4c-13.89.92-22.54 10.97-20.8 25.08q1.66 13.37 15.35 15.92 12.78 2.38 22.71-5.87a2.27 2.27 0 0 1 3.69 1.35l.67 3.89a.62.61-1.2 0 0 .53.5M509.87 531.37q-2.03 4.38-1.07 9.26a1.04 1.03-85.6 0 0 .67.79q10.37 3.79 21.05 3.68c7.85-.08 13.69-2.1 18.87-7.48q4.05-4.19 4.32-10.48c.2-4.51-.03-8.95-3.24-12.39q-5.25-5.62-12.75-8.16c-6.56-2.21-20.43-5.18-18.35-14.29 2.45-10.74 21.15-6.62 28.8-4.71a.76.74-69.9 0 0 .86-.41q1.21-2.57 1.63-6.33a.83.83 0 0 0-.37-.79c-7.97-5.24-24.61-5.49-32.6-1.73q-10.83 5.12-10.26 18.24c.44 10.25 7.65 15.04 16.4 18.39 6.49 2.49 13.95 4.5 16.1 8.2 3.75 6.48-1.15 10.83-7.62 11.62-7.22.88-14.09-.86-20.68-4.04a1.32 1.32 0 0 0-1.76.63M495.09 542.9q.54-16.4.15-37.72c-.1-4.98-1.12-9.86-2.86-14.06-4.76-11.44-16.02-16.46-27.89-13.49-4.85 1.21-9.03 4.97-13.19 6.85a1.12 1.12 0 0 1-1.57-.83l-1.03-5.89a.59.57-4.6 0 0-.58-.48h-10.95a1.2 1.2 0 0 0-1.2 1.2v64.28a.8.8 0 0 0 .8.8h12.98a.85.84 87.5 0 0 .84-.92c-.71-7.74-.4-15.93-.14-30.73.22-12.46 3.92-24.04 19.45-20.91 7.75 1.57 10.09 9.05 10.37 15.82q.66 15.61-.19 35.54a1.18 1.18 0 0 0 1.18 1.23h13.12a.71.71 0 0 0 .71-.69" vector-effect="non-scaling-stroke"/><path stroke="#132939" d="M652.98 513.16q-11.42-1.64-19.72.27c-5.69 1.31-8.44 6.38-7.82 12.12.95 8.8 9.78 11.01 17.19 8.53q9.18-3.08 11.01-13.33.55-3.08.04-6.88a.83.82.5 0 0-.7-.71M838 512.86c-6.3-.79-13.69-.87-19 .52-6.1 1.58-10.33 8.3-8.06 14.34 3.39 9.03 14.47 8.54 21.29 4.28 6.31-3.95 7.77-11.15 6.87-18.04a1.28 1.28 0 0 0-1.1-1.1" vector-effect="non-scaling-stroke"/><path stroke="#7f8892" d="M837.09 514.04q-7.85-.77-14.16-.21c-15.25 1.36-15.01 21.53.84 19.67 6.84-.79 12.36-5.19 13.58-12.03q.55-3.14.73-6.28a1.1 1.09 4.4 0 0-.99-1.15M651.73 514.07q-7.85-.77-14.16-.22c-15.24 1.35-15.01 21.52.83 19.67 6.84-.79 12.36-5.18 13.59-12.02q.55-3.14.73-6.28a1.1 1.09 4.4 0 0-.99-1.15" vector-effect="non-scaling-stroke"/></g><path fill="#081c2f" d="m262.33 429.92 1.79 2.48a.2.2 0 0 1-.19.32q-2.5-.46-4.25-1.91c-9.83-8.18-22.85-15.27-35.78-17.81-4.77-.93-13.64-4.06-21.04-3.73q-12.3.55-21.9 2.54-22.82 4.74-40.88 20c-6.34 5.36-11.83 12.31-16.71 19.26q-12.03 17.16-15.09 38.06c-3.49 23.97 3.37 51.39 18.41 70.43q4.55 5.76 7.71 9.7a3.83 3.72-.8 0 0 .71.67q5.17 3.69 7.71 8.97-11.32-8.66-19.28-20.17-24.18-34.93-15.56-76.51 5.91-28.58 27.83-49.14c34.97-32.81 89.6-34.35 126.52-3.16Z"/><path fill="#1d3542" d="M262.33 429.92c24.58 20.61 35.99 50.54 32.93 82.31-6.14 63.58-68.53 102.62-128.53 80.02q-13.44-5.07-23.91-13.35-2.54-5.28-7.71-8.97a3.83 3.72-.8 0 1-.71-.67q-3.16-3.94-7.71-9.7c-15.04-19.04-21.9-46.46-18.41-70.43q3.06-20.9 15.09-38.06c4.88-6.95 10.37-13.9 16.71-19.26q18.06-15.26 40.88-20 9.6-1.99 21.9-2.54c7.4-.33 16.27 2.8 21.04 3.73 12.93 2.54 25.95 9.63 35.78 17.81q1.75 1.45 4.25 1.91a.2.2 0 0 0 .19-.32l-1.79-2.48Zm-16.04 125.67q2.98-1.68 3-5.09.13-23.32-.07-46.23a.7.69-.4 0 1 .7-.7h6.79a2.59 2.59 0 0 0 2.59-2.59v-7.02a3.2 3.16-68.7 0 0-1.01-2.33l-47.37-43.98q.55-.35 1.67.02a.22.22 0 0 0 .26-.31c-3.84-6.74-11.63-12.9-19.05-6.12-8.18 7.48-15.11 13.02-17.58 15.86q-1.42 1.64-12.03 11.18c-5.35 4.81-9.93 10.1-15.01 15.1-2.72 2.67-7.04 5.53-8.48 8.67-1.58 3.45-1.46 9.44 1.74 12.31a1.22 1.19 67.5 0 0 .72.31l6.16.42a.58.58 0 0 1 .54.58q-.37 24.82-.2 43.07c.03 2.85.95 8.14 4.34 8.1q29.02-.31 39-.13 28.79.5 53.29-1.12Z"/><path fill="#081c2f" d="m210.92 447.65-8.46-7.82a1.78 1.72-15.5 0 0-.72-.39q-2.26-.58-4.25 1.29-21.72 20.34-54.54 50.6a3.98 3.94-21.5 0 0-1.28 2.91v6.57a2.67 2.67 0 0 0 2.67 2.67h6.7a.71.71 0 0 1 .71.72q-.24 19.79-.15 46.75.01 4.25 4.15 4.24 52.4-.11 90.54.4-24.5 1.62-53.29 1.12-9.98-.18-39 .13c-3.39.04-4.31-5.25-4.34-8.1q-.17-18.25.2-43.07a.58.58 0 0 0-.54-.58l-6.16-.42a1.22 1.19 67.5 0 1-.72-.31c-3.2-2.87-3.32-8.86-1.74-12.31 1.44-3.14 5.76-6 8.48-8.67 5.08-5 9.66-10.29 15.01-15.1q10.61-9.54 12.03-11.18c2.47-2.84 9.4-8.38 17.58-15.86 7.42-6.78 15.21-.62 19.05 6.12a.22.22 0 0 1-.26.31q-1.12-.37-1.67-.02Z"/><path fill="#f5f4f5" d="m210.92 447.65 47.37 43.98a3.2 3.16-68.7 0 1 1.01 2.33v7.02a2.59 2.59 0 0 1-2.59 2.59h-6.79a.7.69-.4 0 0-.7.7q.2 22.91.07 46.23-.02 3.41-3 5.09-38.14-.51-90.54-.4-4.14.01-4.15-4.24-.09-26.96.15-46.75a.71.71 0 0 0-.71-.72h-6.7a2.67 2.67 0 0 1-2.67-2.67v-6.57a3.98 3.94-21.5 0 1 1.28-2.91q32.82-30.26 54.54-50.6 1.99-1.87 4.25-1.29a1.78 1.72-15.5 0 1 .72.39l8.46 7.82Zm-32.19 32.04-13.43 10.54a1.56 1.56 0 0 0-.59 1.2l-.05 48.46-.03 2.65a1.4 1.39-86.4 0 0 1.24 1.41l2.91.31q9.78.95 19.4-.54a.65.64-4.8 0 0 .54-.63q-.08-11.72-.01-23.56c.03-3.94 3.41-4.22 6.82-4.1q6.97-.05 13.9.26 1.57.07 2.84 1.74.31 16.49.18 25.07-.02 1.22 1.31 1.4 10.71 1.69 21.74 0a1.07 1.07 0 0 0 .91-1.06l.03-7.38-.17-44.24a1.03 1.02 18.7 0 0-.41-.82l-9.74-7.46-25.06-19.85a1 1 0 0 0-1.24 0l-21.09 16.6Z"/><path fill="#081c2f" d="M732.31 466.83a.75.75 0 0 1-.96.19c-8.36-4.87-17.39-7.4-26.92-4.61-7.96 2.33-9.68 12.45-3.44 17.67q3.87 3.24 8.18 5.23c10.31 4.76 17.78 7.37 24.13 13.6 8.09 7.95 8.1 21.89 3.78 31.45-6.22 13.78-19.82 16.93-33.62 16.15-8.49-.47-18.27-3.33-24.13-9.69a2.29 2.29 0 0 1-.29-2.69l6.13-10.62a1.1 1.1 0 0 1 1.61-.33q8.85 6.6 19.97 7.1c6.74.31 14.03-1.61 15.51-9.25 1.58-8.11-3.75-12.13-10.43-14.99-16.19-6.91-31.4-12.03-31.89-31.25-.37-14.74 8.75-25.59 23.24-27.86 10.69-1.68 21.99-.02 31.09 5.76q1.67 1.06 2.65 2.49a1.41 1.4 34.8 0 1 .2 1.08q-1.45 6.28-4.81 10.57Zm-49.97 70.62c5.55 3.16 10.95 6.07 16.69 7.07q5.93 1.04 14.14.1c14.25-1.62 22.8-10.32 24.22-24.07.82-7.94-.42-15.91-6.62-21.2q-4.8-4.1-8.46-5.83-10.95-5.16-16.84-8.4c-5.72-3.14-10.26-7.6-9.47-14.64q.67-5.85 6.21-8.68c9.83-4.99 19.11-2.28 28.15 2.9a1.26 1.25 27.1 0 0 1.77-.57l3.28-7.29a.95.94 31.3 0 0-.28-1.13c-8.79-6.99-18.95-8.32-30.05-7.3q-5.84.53-9.12 2.32c-6.1 3.32-11.78 9.34-13.26 16.21-1.89 8.7-.39 19.33 6.79 25.12 7.73 6.24 18.26 9.76 25.88 13.57q3.77 1.87 6.2 5.3c4.23 5.95 2.66 15.18-3.62 18.82-8.41 4.88-21.98 1.46-30.31-3.49a1.27 1.26 34.8 0 0-1.64.29q-3.46 4.29-4.58 8.75a1.94 1.93 22 0 0 .92 2.15ZM332.98 544.97q6.54-2.26 13.22-1.46a.95.95 0 0 0 1.06-.93q.58-29.33.06-55.81c-.25-12.88.09-26.21.49-37.09a.75.74-86.8 0 0-.69-.78c-4.79-.29-10.74-.52-15.09 1.44a.57.56-16.2 0 1-.79-.43l-.15-.94q.38-2.03 2.92-2.05 6.35-.05 12.75.11 2.57.07 2.58 2.46.03 83.65.02 93.76a1.81 1.81 0 0 1-1.82 1.81l-14.56-.09Z"/><path fill="#1d3542" d="M682.34 537.45a1.94 1.93 22 0 1-.92-2.15q1.12-4.46 4.58-8.75a1.27 1.26 34.8 0 1 1.64-.29c8.33 4.95 21.9 8.37 30.31 3.49 6.28-3.64 7.85-12.87 3.62-18.82q-2.43-3.43-6.2-5.3c-7.62-3.81-18.15-7.33-25.88-13.57-7.18-5.79-8.68-16.42-6.79-25.12 1.48-6.87 7.16-12.89 13.26-16.21q3.28-1.79 9.12-2.32c11.1-1.02 21.26.31 30.05 7.3a.95.94 31.3 0 1 .28 1.13l-3.28 7.29a1.26 1.25 27.1 0 1-1.77.57c-9.04-5.18-18.32-7.89-28.15-2.9q-5.54 2.83-6.21 8.68c-.79 7.04 3.75 11.5 9.47 14.64q5.89 3.24 16.84 8.4 3.66 1.73 8.46 5.83c6.2 5.29 7.44 13.26 6.62 21.2-1.42 13.75-9.97 22.45-24.22 24.07q-8.21.94-14.14-.1c-5.74-1-11.14-3.91-16.69-7.07ZM332.98 544.97q-1.86.39-1.88-1.53-.13-19.65-.01-94.47l.15.94a.57.56-16.2 0 0 .79.43c4.35-1.96 10.3-1.73 15.09-1.44a.75.74-86.8 0 1 .69.78c-.4 10.88-.74 24.21-.49 37.09q.52 26.48-.06 55.81a.95.95 0 0 1-1.06.93q-6.68-.8-13.22 1.46Z"/><path fill="#081c2f" d="M774.63 490.94a.87.86.3 0 0-.87.85q-.23 15.35.08 29.96c.07 3.68.93 7.82 4.8 9.16q4.49 1.55 8.82-.93a1.19 1.19 0 0 1 1.76.83l1.87 10.72a2.69 2.68 75 0 1-1.72 2.99c-6.5 2.37-15.48 3.23-21.85.33-11.01-5.02-11.95-16.98-12.15-28.09q-.02-1.3.14-24.48a1 1 0 0 0-1-1.01h-5.99a1.75 1.75 0 0 1-1.75-1.75v-11.01a1.66 1.66 0 0 1 1.52-1.65c2.31-.19 4.65-.25 6.21-1.2 4.38-2.67 3.42-8.58 3.49-13.14a1.39 1.38 85.5 0 1 1.14-1.34l11.37-1.98a1.63 1.63 0 0 1 1.91 1.49q.04.59.61 11.81.2 3.81 4.78 3.9 6 .12 10.5-.03a1.75 1.75 0 0 1 1.81 1.75v10.73a2.09 2.09 0 0 1-2.09 2.09h-13.39Zm-25.52-1.21h6.01a1.24 1.23-6.9 0 1 1.2.94q1.06 4.2 1.05 8.87-.09 19.56.62 26.45c.9 8.8 4.94 16.4 13.62 18.29q8.29 1.8 16.74-1.17a1.53 1.52-14.6 0 0 1-1.7l-1.44-8.22a1.14 1.14 0 0 0-1.3-.93c-3.14.47-6.79.79-9.33-.63-5.19-2.9-5.42-10.71-5.56-16.11-.27-9.65-.34-17.2.86-24.56a1.97 1.97 0 0 1 1.94-1.65h12.74a1.42 1.41 0 0 0 1.42-1.41v-8.34a1.47 1.46 88.5 0 0-1.54-1.47c-6.26.29-14.79.87-15.73-7.53q-.54-4.9-.54-8.9a.76.75-5.1 0 0-.89-.74l-9.56 1.67a.72.72 0 0 0-.6.72c.12 8.22-1.31 13.92-10.5 15.02a1 .99 86.8 0 0-.88.99v9.75a.67.66 0 0 0 .67.66ZM601.36 530a1.02 1.02 0 0 1 1.51.55q1.92 6.12 2.02 12.34a1.41 1.41 0 0 1-.79 1.28c-4.97 2.41-11.62 2.97-16.87 2.35-12.45-1.47-17.15-11.71-17.32-23.35q-.16-11.21-.06-30.45a1.34 1.33.2 0 0-1.34-1.34h-5.66a1.72 1.72 0 0 1-1.72-1.72v-11.43a1.37 1.36-.4 0 1 1.35-1.36c11.11-.16 9.64-6.32 10-14.57a1.14 1.14 0 0 1 .94-1.07l10.95-1.91a1.58 1.58 0 0 1 1.85 1.47q.46 8.62.49 10.07c.07 3.7 1.39 5.5 5.08 5.54q3.45.04 10.44-.05a1.77 1.77 0 0 1 1.79 1.77v11.07a1.74 1.74 0 0 1-1.74 1.74h-13.91a.92.91-89.7 0 0-.91.91q-.04 17.63.05 29.41c.04 4.88 1.06 9.62 6.76 10.25q3.98.43 7.09-1.5Zm-15.24-38.81a2.78 2.78 0 0 1 2.71-2.15h11.51a1.93 1.93 0 0 0 1.93-1.93v-8.28a.97.97 0 0 0-1.04-.97c-5.59.39-14.29 1.61-15.57-6.07q-.95-5.69-1.2-7.12a3.31 3.3-.2 0 0-2.73-2.7q-4.1-.66-6.47 2.47c-1.54 2.03-1.51 6.67-2.91 8.92-1.44 2.33-3.51 3.47-5.8 4.58-4.19 2.03-5.09 8.85-.82 11.29 1.74 1 3.27 1.55 4.29 3.07q1.61 2.41 1.59 6.3-.03 6.82.15 23.41c.07 6.79 1.53 14.92 6.56 19.05q3.4 2.8 6.51 3.39 8.85 1.69 17.52-.93a1.47 1.47 0 0 0 1.03-1.66l-1.58-9.02a.82.82 0 0 0-.89-.68c-1.12.11-2.73.83-3.68.91q-9.92.82-11.27-9.1-1.14-8.43-.96-21.92.09-6.49 1.12-10.86Z"/><path fill="#1d3542" d="M748.44 489.07v-9.75a1 .99 86.8 0 1 .88-.99c9.19-1.1 10.62-6.8 10.5-15.02a.72.72 0 0 1 .6-.72l9.56-1.67a.76.75-5.1 0 1 .89.74q0 4 .54 8.9c.94 8.4 9.47 7.82 15.73 7.53a1.47 1.46 88.5 0 1 1.54 1.47v8.34a1.42 1.41 0 0 1-1.42 1.41h-12.74a1.97 1.97 0 0 0-1.94 1.65c-1.2 7.36-1.13 14.91-.86 24.56.14 5.4.37 13.21 5.56 16.11 2.54 1.42 6.19 1.1 9.33.63a1.14 1.14 0 0 1 1.3.93l1.44 8.22a1.53 1.52-14.6 0 1-1 1.7q-8.45 2.97-16.74 1.17c-8.68-1.89-12.72-9.49-13.62-18.29q-.71-6.89-.62-26.45.01-4.67-1.05-8.87a1.24 1.23-6.9 0 0-1.2-.94h-6.01a.67.66 0 0 1-.67-.66ZM586.12 491.19q-1.03 4.37-1.12 10.86-.18 13.49.96 21.92 1.35 9.92 11.27 9.1c.95-.08 2.56-.8 3.68-.91a.82.82 0 0 1 .89.68l1.58 9.02a1.47 1.47 0 0 1-1.03 1.66q-8.67 2.62-17.52.93-3.11-.59-6.51-3.39c-5.03-4.13-6.49-12.26-6.56-19.05q-.18-16.59-.15-23.41.02-3.89-1.59-6.3c-1.02-1.52-2.55-2.07-4.29-3.07-4.27-2.44-3.37-9.26.82-11.29 2.29-1.11 4.36-2.25 5.8-4.58 1.4-2.25 1.37-6.89 2.91-8.92q2.37-3.13 6.47-2.47a3.31 3.3-.2 0 1 2.73 2.7q.25 1.43 1.2 7.12c1.28 7.68 9.98 6.46 15.57 6.07a.97.97 0 0 1 1.04.97v8.28a1.93 1.93 0 0 1-1.93 1.93h-11.51a2.78 2.78 0 0 0-2.71 2.15ZM226.12 482.94q6.96 8.27 7.41 15.33 1.03 16.21 1.29 32.44.03 1.6 1.62 4.75l-.03 7.38a1.07 1.07 0 0 1-.91 1.06q-11.03 1.69-21.74 0 .36-11.33.39-22.48 0-2.16-.42-3.77-.92-3.49-1.46-.22-1.27-1.67-2.84-1.74-6.93-.31-13.9-.26l4.14-.33a.32.32 0 0 0 .04-.63c-4.67-1.03-11.75-2.24-12.76 4.52q-.57 3.83-.23 8.71.48 7.01.15 14.21a.68.68 0 0 1-.65.65q-8.41.43-16.03.17-.96-.03-1.41 1.53l-2.91-.31a1.4 1.39-86.4 0 1-1.24-1.41l.03-2.65c2.44-4.33 2.24-10.63 2.14-15.43q-.31-15.37-.02-31.99a1.11 1.09-21.7 0 1 .36-.81q2.46-2.25 10.98-9.21 1.54-1.27.61-2.76l21.09-16.6a1 1 0 0 1 1.24 0l25.06 19.85Z"/><path fill="#081c2f" d="M620.18 490.83a1.06 1.06 0 0 1-1.38-.9c-.24-2.37-.46-8.85 1.12-11.17a2.15 2.12-83.6 0 1 .94-.76q15.82-6.4 31.44-2.7c13.37 3.16 18.09 14.09 18.07 26.88q-.05 32.98-.09 41.84a1.37 1.36 0 0 1-1.37 1.36h-13.79a1.49 1.49 0 0 1-1.49-1.49v-4.44a.8.8 0 0 0-1.41-.52c-8.52 9.88-29.35 10.25-37.64-.32-4.62-5.89-4.87-15.75-2.59-22.64 5.61-16.97 26.09-15.99 40.07-14.65a1.26 1.26 0 0 0 1.38-1.25q-.01-6.88-4.05-10.46c-5.01-4.45-15.44-4.02-21.4-1.63q-3.92 1.58-7.81 2.85Zm34.54 48.04.67 3.25a1.96 1.96 0 0 0 1.92 1.57h10.04a.53.53 0 0 0 .52-.43c.42-2.14.74-4.68.74-6.68q-.09-20.07.14-31.65c.27-13.53-3.29-25.21-18.25-28.26q-14.48-2.96-29.27 2.97a1.22 1.2-11.2 0 0-.76 1.12v7.57a.54.54 0 0 0 .77.49q5.19-2.46 10.3-3.5c7.13-1.46 16.5-.91 20.8 5.83 1.44 2.26 2.08 5.93 2.44 8.67a2.5 2.49 87.4 0 1-2.58 2.83q-10.81-.47-19.82.47-6.71.7-11.93 4.37c-6.63 4.66-9.1 14.63-7.63 22.25 1.82 9.37 8.12 13.6 17.09 14.76q12.31 1.58 20.93-6.26a1.14 1.13-54.9 0 1 1.19-.21q1.86.76 2.18.6a.35.35 0 0 1 .51.24ZM838.42 539.13a.6.59-33.6 0 0-1-.2q-5.04 5.42-12.25 6.73c-18.55 3.37-32.73-7.44-28.3-27.3 3.35-14.97 19.06-18.58 32.14-17.59q8.17.63 8.2.63a1.52 1.52 0 0 0 1.61-1.63q-.58-7.54-5.17-10.71c-5.58-3.86-15.04-3.03-21.39-.55q-1.83.72-6.29 2.37a1.49 1.48-8 0 1-2-1.5l.67-9.2a2.34 2.34 0 0 1 1.38-1.97c10.59-4.73 24.15-5.65 34.5-1.9 14.44 5.22 14.99 19.27 14.96 32.1q-.05 21.12-.01 35.44a1.96 1.95-90 0 1-1.95 1.96h-12.87a1.8 1.8 0 0 1-1.8-1.85q.1-3.33-.43-4.83Zm2.83 4.81q6.51.86 12.05-.15a.77.76 81.3 0 0 .62-.85q-.64-4.78-.66-10.2-.02-5.96.31-27.62c.07-4.75-.32-10.84-1.42-14q-4.17-11.96-17.13-14.4-14.87-2.8-27.95 2.95a1.19 1.17 81.7 0 0-.69.94l-.89 7.79a.7.7 0 0 0 1.01.7c7.09-3.58 13.64-4.88 21.14-3.76 8.83 1.33 12.06 7.14 12.48 15.52a.95.94-10.9 0 1-.65.95q-2.89.97-5.87.86-5.53-.2-14.5.4c-13.89.92-22.54 10.97-20.8 25.08q1.66 13.37 15.35 15.92 12.78 2.38 22.71-5.87a2.27 2.27 0 0 1 3.69 1.35l.67 3.89a.62.61-1.2 0 0 .53.5ZM510.56 528.59q3.03 1.23 5.51 2.3 8.88 3.82 17.9 2.38c3.85-.62 7.69-4.2 5.88-8.65-.56-1.37-4.05-3.35-6.12-4.08-13.55-4.75-30.2-8.81-28.41-27.34q.73-7.56 5.48-12.14c7.05-6.81 16.47-7.35 26.2-6.74q7.69.49 14.06 3.94a2.36 2.36 0 0 1 1.22 2.34q-.44 3.77-1.83 7.59-.78 2.14-3.01 1.37c-5.82-2.02-23.79-5.76-26.62 1.83-1.86 4.98 2.21 8.05 6.46 9.61 11.68 4.3 28.92 8.07 28.81 23.72-.11 14.24-11.09 21.22-24.18 21.9-7.49.39-16.59-.79-23.63-4.38-1.57-.8-2.96-1.77-2.65-3.73q.81-5.14 3.85-9.59a.9.9 0 0 1 1.08-.33Zm-.69 2.78q-2.03 4.38-1.07 9.26a1.04 1.03-85.6 0 0 .67.79q10.37 3.79 21.05 3.68c7.85-.08 13.69-2.1 18.87-7.48q4.05-4.19 4.32-10.48c.2-4.51-.03-8.95-3.24-12.39q-5.25-5.62-12.75-8.16c-6.56-2.21-20.43-5.18-18.35-14.29 2.45-10.74 21.15-6.62 28.8-4.71a.76.74-69.9 0 0 .86-.41q1.21-2.57 1.63-6.33a.83.83 0 0 0-.37-.79c-7.97-5.24-24.61-5.49-32.6-1.73q-10.83 5.12-10.26 18.24c.44 10.25 7.65 15.04 16.4 18.39 6.49 2.49 13.95 4.5 16.1 8.2 3.75 6.48-1.15 10.83-7.62 11.62-7.22.88-14.09-.86-20.68-4.04a1.32 1.32 0 0 0-1.76.63ZM407.23 544.94q6.6-2.16 13.55-1.23a.94.93-86.2 0 0 1.05-.93c-.01-10.69.58-21.33.07-32.04-.46-9.5-.24-16.79-4.3-23.63q-6.62-11.14-20.73-10.4c-6.77.36-11.34 3.77-16.6 7.62a2.03 2.03 0 0 1-3.2-1.29l-.9-5.16a.29.29 0 0 0-.26-.24l-7.44-.69a.4.4 0 0 1-.09-.78q1.11-.36 2.59-.33l5.97.01a1.23 1.23 0 0 1 1.23 1.23v5.88a.77.77 0 0 0 1.33.54c5.79-5.95 13.43-9.55 21.74-8.71 14.56 1.48 21.72 13.19 22.22 26.97q.51 13.76.18 40.99-.03 2.51-2.22 2.4c-4.71-.22-9.41.07-14.19-.21ZM450.49 483.11a.66.65-22.6 0 0 1.12.46q3.73-3.69 8.47-6.12c9.1-4.67 21.69-3.05 28.76 4.7 6.43 7.06 7.93 16.13 8.02 25.6q.02 2.07-.22 36.1a1.34 1.34 0 0 1-1.34 1.34h-14.51a1.95 1.95 0 0 1-1.95-1.95q.03-21.74-.08-37.48-.02-2.94-1.94-7.86c-2.03-5.21-8.01-7.03-13.4-6.08-10.49 1.83-11.52 10.83-11.39 20.78q.09 7.24-.13 29.82-.02 2.79-2.01 2.77-8.44-.06-14.06-.08a1.56 1.55-89.8 0 1-1.54-1.56v-65.76a2.03 2.03 0 0 1 2.03-2.03h12.67a1.5 1.5 0 0 1 1.5 1.5v5.85Zm44.6 59.79q.54-16.4.15-37.72c-.1-4.98-1.12-9.86-2.86-14.06-4.76-11.44-16.02-16.46-27.89-13.49-4.85 1.21-9.03 4.97-13.19 6.85a1.12 1.12 0 0 1-1.57-.83l-1.03-5.89a.59.57-4.6 0 0-.58-.48h-10.95a1.2 1.2 0 0 0-1.2 1.2v64.28a.8.8 0 0 0 .8.8h12.98a.85.84 87.5 0 0 .84-.92c-.71-7.74-.4-15.93-.14-30.73.22-12.46 3.92-24.04 19.45-20.91 7.75 1.57 10.09 9.05 10.37 15.82q.66 15.61-.19 35.54a1.18 1.18 0 0 0 1.18 1.23h13.12a.71.71 0 0 0 .71-.69Z"/><path fill="#1d3542" d="M654.21 538.63q-.32.16-2.18-.6a1.14 1.13-54.9 0 0-1.19.21q-8.62 7.84-20.93 6.26c-8.97-1.16-15.27-5.39-17.09-14.76-1.47-7.62 1-17.59 7.63-22.25q5.22-3.67 11.93-4.37 9.01-.94 19.82-.47a2.5 2.49 87.4 0 0 2.58-2.83c-.36-2.74-1-6.41-2.44-8.67-4.3-6.74-13.67-7.29-20.8-5.83q-5.11 1.04-10.3 3.5a.54.54 0 0 1-.77-.49v-7.57a1.22 1.2-11.2 0 1 .76-1.12q14.79-5.93 29.27-2.97c14.96 3.05 18.52 14.73 18.25 28.26q-.23 11.58-.14 31.65c0 2-.32 4.54-.74 6.68a.53.53 0 0 1-.52.43h-10.04a1.96 1.96 0 0 1-1.92-1.57l-.67-3.25a.35.35 0 0 0-.51-.24Zm-1.23-25.47q-11.42-1.64-19.72.27c-5.69 1.31-8.44 6.38-7.82 12.12.95 8.8 9.78 11.01 17.19 8.53q9.18-3.08 11.01-13.33.55-3.08.04-6.88a.83.82.5 0 0-.7-.71ZM840.72 543.44l-.67-3.89a2.27 2.27 0 0 0-3.69-1.35q-9.93 8.25-22.71 5.87-13.69-2.55-15.35-15.92c-1.74-14.11 6.91-24.16 20.8-25.08q8.97-.6 14.5-.4 2.98.11 5.87-.86a.95.94-10.9 0 0 .65-.95c-.42-8.38-3.65-14.19-12.48-15.52-7.5-1.12-14.05.18-21.14 3.76a.7.7 0 0 1-1.01-.7l.89-7.79a1.19 1.17 81.7 0 1 .69-.94q13.08-5.75 27.95-2.95 12.96 2.44 17.13 14.4c1.1 3.16 1.49 9.25 1.42 14q-.33 21.66-.31 27.62.02 5.42.66 10.2a.77.76 81.3 0 1-.62.85q-5.54 1.01-12.05.15a.62.61-1.2 0 1-.53-.5ZM838 512.86c-6.3-.79-13.69-.87-19 .52-6.1 1.58-10.33 8.3-8.06 14.34 3.39 9.03 14.47 8.54 21.29 4.28 6.31-3.95 7.77-11.15 6.87-18.04a1.28 1.28 0 0 0-1.1-1.1ZM370.97 475.84q-1.48-.03-2.59.33a.4.4 0 0 0 .09.78l7.44.69a.29.29 0 0 1 .26.24l.9 5.16a2.03 2.03 0 0 0 3.2 1.29c5.26-3.85 9.83-7.26 16.6-7.62q14.11-.74 20.73 10.4c4.06 6.84 3.84 14.13 4.3 23.63.51 10.71-.08 21.35-.07 32.04a.94.93-86.2 0 1-1.05.93q-6.95-.93-13.55 1.23-1.03-.19-1.05-1.13-.24-9.35.04-27.99c2.56-8.44 2.15-22.2-8.11-24.79q-14.42-3.65-19.09 10.09a4.86 4.82 56.1 0 0-.23 1.19c-.2 3.87-.84 8.99-.84 13.63.01 11.67.32 19.52-1.1 27.05a.57.56 6.9 0 1-.59.46q-4.82-.3-9.09 1.58-1.72.35-3.15.01a1.99 1.98-83.1 0 1-1.51-1.93v-65.55a1.73 1.73 0 0 1 1.73-1.73l6.73.01ZM509.87 531.37a1.32 1.32 0 0 1 1.76-.63c6.59 3.18 13.46 4.92 20.68 4.04 6.47-.79 11.37-5.14 7.62-11.62-2.15-3.7-9.61-5.71-16.1-8.2-8.75-3.35-15.96-8.14-16.4-18.39q-.57-13.12 10.26-18.24c7.99-3.76 24.63-3.51 32.6 1.73a.83.83 0 0 1 .37.79q-.42 3.76-1.63 6.33a.76.74-69.9 0 1-.86.41c-7.65-1.91-26.35-6.03-28.8 4.71-2.08 9.11 11.79 12.08 18.35 14.29q7.5 2.54 12.75 8.16c3.21 3.44 3.44 7.88 3.24 12.39q-.27 6.29-4.32 10.48c-5.18 5.38-11.02 7.4-18.87 7.48q-10.68.11-21.05-3.68a1.04 1.03-85.6 0 1-.67-.79q-.96-4.88 1.07-9.26Z"/><path fill="#081c2f" d="M890.77 522.22q-2.25-1.97-3.13-4.44-2.92-8.2-6.74-20.07-3.81-11.81-6.77-19.19a.7.69 78.5 0 0-.64-.43H861.3a.53.53 0 0 0-.51.69q2.87 8.88 3.03 9.34 8.97 25.1 17.62 50.44 3.6 10.55-3.59 18.3c-3.21 3.47-8.38 4.97-12.88 5.44a.84.83-4 0 0-.75.86l.52 14.76q-2.24.43-2.23-1.15l.06-13.97a2.05 2.04 87.4 0 1 1.84-2.03c9.4-.91 16.05-5.51 16.71-15.37q.17-2.47-2.16-9.1-15.31-43.55-20.1-57.7a1.75 1.75 0 0 1 1.66-2.31h13.67a1.73 1.73 0 0 1 1.64 1.17l14.94 44.76Z"/><path fill="#081c2f" d="m867.2 577.99 9.14-2.98a3.27 3.01 18.3 0 0 .73-.33c9.87-5.98 14.92-19.01 19.52-30.61q5.17-13.03 25.25-64.9a.91.91 0 0 0-.85-1.24h-11.03a1.73 1.72 9.1 0 0-1.64 1.18q-6.59 20.15-13.06 38.12-1.01 2.83-3.53 4.99l15.33-44.48a2.13 2.12 9.4 0 1 2.01-1.43h13.54a1.39 1.39 0 0 1 1.3 1.9q-4.2 10.81-26.88 69.06-3.25 8.34-7.11 15.41c-4.95 9.05-11.6 15.56-22.72 15.31Z"/><path fill="#1d3542" d="M494.38 543.59h-13.12a1.18 1.18 0 0 1-1.18-1.23q.85-19.93.19-35.54c-.28-6.77-2.62-14.25-10.37-15.82-15.53-3.13-19.23 8.45-19.45 20.91-.26 14.8-.57 22.99.14 30.73a.85.84 87.5 0 1-.84.92h-12.98a.8.8 0 0 1-.8-.8v-64.28a1.2 1.2 0 0 1 1.2-1.2h10.95a.59.57-4.6 0 1 .58.48l1.03 5.89a1.12 1.12 0 0 0 1.57.83c4.16-1.88 8.34-5.64 13.19-6.85 11.87-2.97 23.13 2.05 27.89 13.49 1.74 4.2 2.76 9.08 2.86 14.06q.39 21.32-.15 37.72a.71.71 0 0 1-.71.69ZM890.77 522.22q-.23.35.96 0 2.52-2.16 3.53-4.99 6.47-17.97 13.06-38.12a1.73 1.72 9.1 0 1 1.64-1.18h11.03a.91.91 0 0 1 .85 1.24q-20.08 51.87-25.25 64.9c-4.6 11.6-9.65 24.63-19.52 30.61a3.27 3.01 18.3 0 1-.73.33l-9.14 2.98q-1.21.23-2.46-.07l-.52-14.76a.84.83-4 0 1 .75-.86c4.5-.47 9.67-1.97 12.88-5.44q7.19-7.75 3.59-18.3-8.65-25.34-17.62-50.44-.16-.46-3.03-9.34a.53.53 0 0 1 .51-.69h12.19a.7.69 78.5 0 1 .64.43q2.96 7.38 6.77 19.19 3.82 11.87 6.74 20.07.88 2.47 3.13 4.44Z"/><path fill="#081c2f" d="m164.66 539.89.05-48.46a1.56 1.56 0 0 1 .59-1.2l13.43-10.54q.93 1.49-.61 2.76-8.52 6.96-10.98 9.21a1.11 1.09-21.7 0 0-.36.81q-.29 16.62.02 31.99c.1 4.8.3 11.1-2.14 15.43ZM226.12 482.94l9.74 7.46a1.03 1.02 18.7 0 1 .41.82l.17 44.24q-1.59-3.15-1.62-4.75-.26-16.23-1.29-32.44-.45-7.06-7.41-15.33ZM406.22 515.82c0-6.13 1.1-18.23-5.13-22.16-6.81-4.31-16.96-2.03-19.88 6.11q-1.27 3.55-1.29 8.24-.1 26.3-.11 34.75 0 1.87-1.2 2.25-.21.07-2.76.11-4.32.07-8.68-.09 4.27-1.88 9.09-1.58a.57.56 6.9 0 0 .59-.46c1.42-7.53 1.11-15.38 1.1-27.05 0-4.64.64-9.76.84-13.63a4.86 4.82 56.1 0 1 .23-1.19q4.67-13.74 19.09-10.09c10.26 2.59 10.67 16.35 8.11 24.79ZM838 512.86a1.28 1.28 0 0 1 1.1 1.1c.9 6.89-.56 14.09-6.87 18.04-6.82 4.26-17.9 4.75-21.29-4.28-2.27-6.04 1.96-12.76 8.06-14.34 5.31-1.39 12.7-1.31 19-.52Zm-.91 1.18q-7.85-.77-14.16-.21c-15.25 1.36-15.01 21.53.84 19.67 6.84-.79 12.36-5.19 13.58-12.03q.55-3.14.73-6.28a1.1 1.09 4.4 0 0-.99-1.15ZM653.68 513.87q.51 3.8-.04 6.88-1.83 10.25-11.01 13.33c-7.41 2.48-16.24.27-17.19-8.53-.62-5.74 2.13-10.81 7.82-12.12q8.3-1.91 19.72-.27a.83.82.5 0 1 .7.71Zm-1.95.2q-7.85-.77-14.16-.22c-15.24 1.35-15.01 21.52.83 19.67 6.84-.79 12.36-5.18 13.59-12.02q.55-3.14.73-6.28a1.1 1.09 4.4 0 0-.99-1.15Z"/><path fill="#f5f4f5" d="M837.09 514.04a1.1 1.09 4.4 0 1 .99 1.15q-.18 3.14-.73 6.28c-1.22 6.84-6.74 11.24-13.58 12.03-15.85 1.86-16.09-18.31-.84-19.67q6.31-.56 14.16.21Z"/><path fill="#081c2f" d="M195.53 515.43c-3.41-.12-6.79.16-6.82 4.1q-.07 11.84.01 23.56a.65.64-4.8 0 1-.54.63q-9.62 1.49-19.4.54.45-1.56 1.41-1.53 7.62.26 16.03-.17a.68.68 0 0 0 .65-.65q.33-7.2-.15-14.21-.34-4.88.23-8.71c1.01-6.76 8.09-5.55 12.76-4.52a.32.32 0 0 1-.04.63l-4.14.33Z"/><path fill="#f5f4f5" d="M651.73 514.07a1.1 1.09 4.4 0 1 .99 1.15q-.18 3.14-.73 6.28c-1.23 6.84-6.75 11.23-13.59 12.02-15.84 1.85-16.07-18.32-.83-19.67q6.31-.55 14.16.22Z"/><path fill="#081c2f" d="M213.76 543.9q-1.33-.18-1.31-1.4.13-8.58-.18-25.07.54-3.27 1.46.22.42 1.61.42 3.77-.03 11.15-.39 22.48Z"/></svg>