<?xml version="1.0" encoding="UTF-8" standalone="no"?>
<!DOCTYPE svg PUBLIC "-//W3C//DTD SVG 1.1//EN" "http://www.w3.org/Graphics/SVG/1.1/DTD/svg11.dtd">
<svg xmlns="http://www.w3.org/2000/svg" version="1.1" viewBox="0.00 0.00 1024.00 1024.00">
<g stroke-width="2.00" fill="none" stroke-linecap="butt">
<path stroke="#89959c" vector-effect="non-scaling-stroke" d="
  M 142.82 578.90
  Q 153.29 587.18 166.73 592.25
  C 226.73 614.85 289.12 575.81 295.26 512.23
  C 298.32 480.46 286.91 450.53 262.33 429.92"
/>
<path stroke="#7f8892" vector-effect="non-scaling-stroke" d="
  M 262.33 429.92
  C 225.41 398.73 170.78 400.27 135.81 433.08
  Q 113.89 453.64 107.98 482.22
  Q 99.36 523.80 123.54 558.73
  Q 131.50 570.24 142.82 578.90"
/>
<path stroke="#132939" vector-effect="non-scaling-stroke" d="
  M 262.33 429.92
  L 264.12 432.40
  A 0.20 0.20 0.0 0 1 263.93 432.72
  Q 261.43 432.26 259.68 430.81
  C 249.85 422.63 236.83 415.54 223.90 413.00
  C 219.13 412.07 210.26 408.94 202.86 409.27
  Q 190.56 409.82 180.96 411.81
  Q 158.14 416.55 140.08 431.81
  C 133.74 437.17 128.25 444.12 123.37 451.07
  Q 111.34 468.23 108.28 489.13
  C 104.79 513.10 111.65 540.52 126.69 559.56
  Q 131.24 565.32 134.40 569.26
  A 3.83 3.72 -0.8 0 0 135.11 569.93
  Q 140.28 573.62 142.82 578.90"
/>
<path stroke="#7f8892" vector-effect="non-scaling-stroke" d="
  M 732.31 466.83
  Q 735.67 462.54 737.12 456.26
  A 1.41 1.40 34.8 0 0 736.92 455.18
  Q 735.94 453.75 734.27 452.69
  C 725.17 446.91 713.87 445.25 703.18 446.93
  C 688.69 449.20 679.57 460.05 679.94 474.79
  C 680.43 494.01 695.64 499.13 711.83 506.04
  C 718.51 508.90 723.84 512.92 722.26 521.03
  C 720.78 528.67 713.49 530.59 706.75 530.28
  Q 695.63 529.78 686.78 523.18
  A 1.10 1.10 0.0 0 0 685.17 523.51
  L 679.04 534.13
  A 2.29 2.29 0.0 0 0 679.33 536.82
  C 685.19 543.18 694.97 546.04 703.46 546.51
  C 717.26 547.29 730.86 544.14 737.08 530.36
  C 741.40 520.80 741.39 506.86 733.30 498.91
  C 726.95 492.68 719.48 490.07 709.17 485.31
  Q 704.86 483.32 700.99 480.08
  C 694.75 474.86 696.47 464.74 704.43 462.41
  C 713.96 459.62 722.99 462.15 731.35 467.02
  A 0.75 0.75 0.0 0 0 732.31 466.83"
/>
<path stroke="#89959c" vector-effect="non-scaling-stroke" d="
  M 331.09 448.97
  Q 330.97 523.79 331.10 543.44
  Q 331.12 545.36 332.98 544.97"
/>
<path stroke="#7f8892" vector-effect="non-scaling-stroke" d="
  M 332.98 544.97
  L 347.54 545.06
  A 1.81 1.81 0.0 0 0 349.36 543.25
  Q 349.37 533.14 349.34 449.49
  Q 349.33 447.10 346.76 447.03
  Q 340.36 446.87 334.01 446.92
  Q 331.47 446.94 331.09 448.97"
/>
<path stroke="#132939" vector-effect="non-scaling-stroke" d="
  M 332.98 544.97
  Q 339.52 542.71 346.20 543.51
  A 0.95 0.95 0.0 0 0 347.26 542.58
  Q 347.84 513.25 347.32 486.77
  C 347.07 473.89 347.41 460.56 347.81 449.68
  A 0.75 0.74 -86.8 0 0 347.12 448.90
  C 342.33 448.61 336.38 448.38 332.03 450.34
  A 0.57 0.56 -16.2 0 1 331.24 449.91
  L 331.09 448.97"
/>
<path stroke="#7f8892" vector-effect="non-scaling-stroke" d="
  M 774.63 490.94
  L 788.02 490.94
  A 2.09 2.09 0.0 0 0 790.11 488.85
  L 790.11 478.12
  A 1.75 1.75 0.0 0 0 788.30 476.37
  Q 783.80 476.52 777.80 476.40
  Q 773.22 476.31 773.02 472.50
  Q 772.45 461.28 772.41 460.69
  A 1.63 1.63 0.0 0 0 770.50 459.20
  L 759.13 461.18
  A 1.39 1.38 85.5 0 0 757.99 462.52
  C 757.92 467.08 758.88 472.99 754.50 475.66
  C 752.94 476.61 750.60 476.67 748.29 476.86
  A 1.66 1.66 0.0 0 0 746.77 478.51
  L 746.77 489.52
  A 1.75 1.75 0.0 0 0 748.52 491.27
  L 754.51 491.27
  A 1.00 1.00 0.0 0 1 755.51 492.28
  Q 755.35 515.46 755.37 516.76
  C 755.57 527.87 756.51 539.83 767.52 544.85
  C 773.89 547.75 782.87 546.89 789.37 544.52
  A 2.69 2.68 75.0 0 0 791.09 541.53
  L 789.22 530.81
  A 1.19 1.19 0.0 0 0 787.46 529.98
  Q 783.13 532.46 778.64 530.91
  C 774.77 529.57 773.91 525.43 773.84 521.75
  Q 773.53 507.14 773.76 491.79
  A 0.87 0.86 0.3 0 1 774.63 490.94"
/>
<path stroke="#7f8892" vector-effect="non-scaling-stroke" d="
  M 601.36 530.00
  Q 598.25 531.93 594.27 531.50
  C 588.57 530.87 587.55 526.13 587.51 521.25
  Q 587.42 509.47 587.46 491.84
  A 0.92 0.91 -89.7 0 1 588.37 490.93
  L 602.28 490.93
  A 1.74 1.74 0.0 0 0 604.02 489.19
  L 604.02 478.12
  A 1.77 1.77 0.0 0 0 602.23 476.35
  Q 595.24 476.44 591.79 476.40
  C 588.10 476.36 586.78 474.56 586.71 470.86
  Q 586.68 469.41 586.22 460.79
  A 1.58 1.58 0.0 0 0 584.37 459.32
  L 573.42 461.23
  A 1.14 1.14 0.0 0 0 572.48 462.30
  C 572.12 470.55 573.59 476.71 562.48 476.87
  A 1.37 1.36 -0.4 0 0 561.13 478.23
  L 561.13 489.66
  A 1.72 1.72 0.0 0 0 562.85 491.38
  L 568.51 491.38
  A 1.34 1.33 0.2 0 1 569.85 492.72
  Q 569.75 511.96 569.91 523.17
  C 570.08 534.81 574.78 545.05 587.23 546.52
  C 592.48 547.14 599.13 546.58 604.10 544.17
  A 1.41 1.41 0.0 0 0 604.89 542.89
  Q 604.79 536.67 602.87 530.55
  A 1.02 1.02 0.0 0 0 601.36 530.00"
/>
<path stroke="#7f8892" vector-effect="non-scaling-stroke" d="
  M 620.18 490.83
  Q 624.07 489.56 627.99 487.98
  C 633.95 485.59 644.38 485.16 649.39 489.61
  Q 653.43 493.19 653.44 500.07
  A 1.26 1.26 0.0 0 1 652.06 501.32
  C 638.08 499.98 617.60 499.00 611.99 515.97
  C 609.71 522.86 609.96 532.72 614.58 538.61
  C 622.87 549.18 643.70 548.81 652.22 538.93
  A 0.80 0.80 0.0 0 1 653.63 539.45
  L 653.63 543.89
  A 1.49 1.49 0.0 0 0 655.12 545.38
  L 668.91 545.38
  A 1.37 1.36 -0.0 0 0 670.28 544.02
  Q 670.32 535.16 670.37 502.18
  C 670.39 489.39 665.67 478.46 652.30 475.30
  Q 636.68 471.60 620.86 478.00
  A 2.15 2.12 -83.6 0 0 619.92 478.76
  C 618.34 481.08 618.56 487.56 618.80 489.93
  A 1.06 1.06 0.0 0 0 620.18 490.83"
/>
<path stroke="#7f8892" vector-effect="non-scaling-stroke" d="
  M 838.42 539.13
  Q 838.95 540.63 838.85 543.96
  A 1.80 1.80 0.0 0 0 840.65 545.81
  L 853.52 545.81
  A 1.96 1.95 90.0 0 0 855.47 543.85
  Q 855.43 529.53 855.48 508.41
  C 855.51 495.58 854.96 481.53 840.52 476.31
  C 830.17 472.56 816.61 473.48 806.02 478.21
  A 2.34 2.34 0.0 0 0 804.64 480.18
  L 803.97 489.38
  A 1.49 1.48 -8.0 0 0 805.97 490.88
  Q 810.43 489.23 812.26 488.51
  C 818.61 486.03 828.07 485.20 833.65 489.06
  Q 838.24 492.23 838.82 499.77
  A 1.52 1.52 0.0 0 1 837.21 501.40
  Q 837.18 501.40 829.01 500.77
  C 815.93 499.78 800.22 503.39 796.87 518.36
  C 792.44 538.22 806.62 549.03 825.17 545.66
  Q 832.38 544.35 837.42 538.93
  A 0.60 0.59 -33.6 0 1 838.42 539.13"
/>
<path stroke="#7f8892" vector-effect="non-scaling-stroke" d="
  M 510.56 528.59
  A 0.90 0.90 0.0 0 0 509.48 528.92
  Q 506.44 533.37 505.63 538.51
  C 505.32 540.47 506.71 541.44 508.28 542.24
  C 515.32 545.83 524.42 547.01 531.91 546.62
  C 545.00 545.94 555.98 538.96 556.09 524.72
  C 556.20 509.07 538.96 505.30 527.28 501.00
  C 523.03 499.44 518.96 496.37 520.82 491.39
  C 523.65 483.80 541.62 487.54 547.44 489.56
  Q 549.67 490.33 550.45 488.19
  Q 551.84 484.37 552.28 480.60
  A 2.36 2.36 0.0 0 0 551.06 478.26
  Q 544.69 474.81 537.00 474.32
  C 527.27 473.71 517.85 474.25 510.80 481.06
  Q 506.05 485.64 505.32 493.20
  C 503.53 511.73 520.18 515.79 533.73 520.54
  C 535.80 521.27 539.29 523.25 539.85 524.62
  C 541.66 529.07 537.82 532.65 533.97 533.27
  Q 524.95 534.71 516.07 530.89
  Q 513.59 529.82 510.56 528.59"
/>
<path stroke="#89959c" vector-effect="non-scaling-stroke" d="
  M 370.97 475.84
  L 364.24 475.83
  A 1.73 1.73 0.0 0 0 362.51 477.56
  L 362.51 543.11
  A 1.99 1.98 -83.1 0 0 364.02 545.04
  Q 365.45 545.38 367.17 545.03"
/>
<path stroke="#7f8892" vector-effect="non-scaling-stroke" d="
  M 367.17 545.03
  Q 371.53 545.19 375.85 545.12
  Q 378.40 545.08 378.61 545.01
  Q 379.81 544.63 379.81 542.76
  Q 379.82 534.31 379.92 508.01
  Q 379.94 503.32 381.21 499.77
  C 384.13 491.63 394.28 489.35 401.09 493.66
  C 407.32 497.59 406.22 509.69 406.22 515.82"
/>
<path stroke="#89959c" vector-effect="non-scaling-stroke" d="
  M 406.22 515.82
  Q 405.94 534.46 406.18 543.81
  Q 406.20 544.75 407.23 544.94"
/>
<path stroke="#7f8892" vector-effect="non-scaling-stroke" d="
  M 407.23 544.94
  C 412.01 545.22 416.71 544.93 421.42 545.15
  Q 423.61 545.26 423.64 542.75
  Q 423.97 515.52 423.46 501.76
  C 422.96 487.98 415.80 476.27 401.24 474.79
  C 392.93 473.95 385.29 477.55 379.50 483.50
  A 0.77 0.77 0.0 0 1 378.17 482.96
  L 378.17 477.08
  A 1.23 1.23 0.0 0 0 376.94 475.85
  L 370.97 475.84"
/>
<path stroke="#132939" vector-effect="non-scaling-stroke" d="
  M 407.23 544.94
  Q 413.83 542.78 420.78 543.71
  A 0.94 0.93 -86.2 0 0 421.83 542.78
  C 421.82 532.09 422.41 521.45 421.90 510.74
  C 421.44 501.24 421.66 493.95 417.60 487.11
  Q 410.98 475.97 396.87 476.71
  C 390.10 477.07 385.53 480.48 380.27 484.33
  A 2.03 2.03 0.0 0 1 377.07 483.04
  L 376.17 477.88
  A 0.29 0.29 0.0 0 0 375.91 477.64
  L 368.47 476.95
  A 0.40 0.40 0.0 0 1 368.38 476.17
  Q 369.49 475.81 370.97 475.84"
/>
<path stroke="#132939" vector-effect="non-scaling-stroke" d="
  M 406.22 515.82
  C 408.78 507.38 408.37 493.62 398.11 491.03
  Q 383.69 487.38 379.02 501.12
  A 4.86 4.82 56.1 0 0 378.79 502.31
  C 378.59 506.18 377.95 511.30 377.95 515.94
  C 377.96 527.61 378.27 535.46 376.85 542.99
  A 0.57 0.56 6.9 0 1 376.26 543.45
  Q 371.44 543.15 367.17 545.03"
/>
<path stroke="#7f8892" vector-effect="non-scaling-stroke" d="
  M 450.49 483.11
  L 450.49 477.26
  A 1.50 1.50 0.0 0 0 448.99 475.76
  L 436.32 475.76
  A 2.03 2.03 0.0 0 0 434.29 477.79
  L 434.29 543.55
  A 1.56 1.55 -89.8 0 0 435.83 545.11
  Q 441.45 545.13 449.89 545.19
  Q 451.88 545.21 451.90 542.42
  Q 452.12 519.84 452.03 512.60
  C 451.90 502.65 452.93 493.65 463.42 491.82
  C 468.81 490.87 474.79 492.69 476.82 497.90
  Q 478.74 502.82 478.76 505.76
  Q 478.87 521.50 478.84 543.24
  A 1.95 1.95 0.0 0 0 480.79 545.19
  L 495.30 545.19
  A 1.34 1.34 0.0 0 0 496.64 543.85
  Q 496.88 509.82 496.86 507.75
  C 496.77 498.28 495.27 489.21 488.84 482.15
  C 481.77 474.40 469.18 472.78 460.08 477.45
  Q 455.34 479.88 451.61 483.57
  A 0.66 0.65 -22.6 0 1 450.49 483.11"
/>
<path stroke="#89959c" vector-effect="non-scaling-stroke" d="
  M 864.74 577.92
  Q 865.99 578.22 867.20 577.99"
/>
<path stroke="#7f8892" vector-effect="non-scaling-stroke" d="
  M 867.20 577.99
  C 878.32 578.24 884.97 571.73 889.92 562.68
  Q 893.78 555.61 897.03 547.27
  Q 919.71 489.02 923.91 478.21
  A 1.39 1.39 0.0 0 0 922.61 476.31
  L 909.07 476.31
  A 2.13 2.12 9.4 0 0 907.06 477.74
  L 891.73 522.22"
/>
<path stroke="#89959c" vector-effect="non-scaling-stroke" d="
  M 891.73 522.22
  Q 890.54 522.57 890.77 522.22"
/>
<path stroke="#7f8892" vector-effect="non-scaling-stroke" d="
  M 890.77 522.22
  L 875.83 477.46
  A 1.73 1.73 0.0 0 0 874.19 476.29
  L 860.52 476.29
  A 1.75 1.75 0.0 0 0 858.86 478.60
  Q 863.65 492.75 878.96 536.30
  Q 881.29 542.93 881.12 545.40
  C 880.46 555.26 873.81 559.86 864.41 560.77
  A 2.05 2.04 87.4 0 0 862.57 562.80
  Q 862.53 571.97 862.51 576.77
  Q 862.50 578.35 864.74 577.92"
/>
<path stroke="#132939" vector-effect="non-scaling-stroke" d="
  M 890.77 522.22
  Q 888.52 520.25 887.64 517.78
  Q 884.72 509.58 880.90 497.71
  Q 877.09 485.90 874.13 478.52
  A 0.70 0.69 78.5 0 0 873.49 478.09
  L 861.30 478.09
  A 0.53 0.53 0.0 0 0 860.79 478.78
  Q 863.66 487.66 863.82 488.12
  Q 872.79 513.22 881.44 538.56
  Q 885.04 549.11 877.85 556.86
  C 874.64 560.33 869.47 561.83 864.97 562.30
  A 0.84 0.83 -4.0 0 0 864.22 563.16
  L 864.74 577.92"
/>
<path stroke="#132939" vector-effect="non-scaling-stroke" d="
  M 867.20 577.99
  L 876.34 575.01
  A 3.27 3.01 18.3 0 0 877.07 574.68
  C 886.94 568.70 891.99 555.67 896.59 544.07
  Q 901.76 531.04 921.84 479.17
  A 0.91 0.91 0.0 0 0 920.99 477.93
  L 909.96 477.93
  A 1.73 1.72 9.1 0 0 908.32 479.11
  Q 901.73 499.26 895.26 517.23
  Q 894.25 520.06 891.73 522.22"
/>
<path stroke="#89959c" vector-effect="non-scaling-stroke" d="
  M 246.29 555.59
  Q 249.27 553.91 249.29 550.50
  Q 249.42 527.18 249.22 504.27
  A 0.70 0.69 -0.4 0 1 249.92 503.57
  L 256.71 503.57
  A 2.59 2.59 0.0 0 0 259.30 500.98
  L 259.30 493.96
  A 3.20 3.16 -68.7 0 0 258.29 491.63
  L 210.92 447.65"
/>
<path stroke="#132939" vector-effect="non-scaling-stroke" d="
  M 210.92 447.65
  Q 211.47 447.30 212.59 447.67
  A 0.22 0.22 0.0 0 0 212.85 447.36
  C 209.01 440.62 201.22 434.46 193.80 441.24
  C 185.62 448.72 178.69 454.26 176.22 457.10
  Q 174.80 458.74 164.19 468.28
  C 158.84 473.09 154.26 478.38 149.18 483.38
  C 146.46 486.05 142.14 488.91 140.70 492.05
  C 139.12 495.50 139.24 501.49 142.44 504.36
  A 1.22 1.19 67.5 0 0 143.16 504.67
  L 149.32 505.09
  A 0.58 0.58 0.0 0 1 149.86 505.67
  Q 149.49 530.49 149.66 548.74
  C 149.69 551.59 150.61 556.88 154.00 556.84
  Q 183.02 556.53 193.00 556.71
  Q 221.79 557.21 246.29 555.59"
/>
<path stroke="#7f8892" vector-effect="non-scaling-stroke" d="
  M 210.92 447.65
  L 202.46 439.83
  A 1.78 1.72 -15.5 0 0 201.74 439.44
  Q 199.48 438.86 197.49 440.73
  Q 175.77 461.07 142.95 491.33
  A 3.98 3.94 -21.5 0 0 141.67 494.24
  L 141.67 500.81
  A 2.67 2.67 0.0 0 0 144.34 503.48
  L 151.04 503.48
  A 0.71 0.71 0.0 0 1 151.75 504.20
  Q 151.51 523.99 151.60 550.95
  Q 151.61 555.20 155.75 555.19
  Q 208.15 555.08 246.29 555.59"
/>
<path stroke="#7f8892" vector-effect="non-scaling-stroke" d="
  M 178.73 479.69
  L 165.30 490.23
  A 1.56 1.56 0.0 0 0 164.71 491.43
  L 164.66 539.89"
/>
<path stroke="#89959c" vector-effect="non-scaling-stroke" d="
  M 164.66 539.89
  L 164.63 542.54
  A 1.40 1.39 -86.4 0 0 165.87 543.95
  L 168.78 544.26"
/>
<path stroke="#7f8892" vector-effect="non-scaling-stroke" d="
  M 168.78 544.26
  Q 178.56 545.21 188.18 543.72
  A 0.65 0.64 -4.8 0 0 188.72 543.09
  Q 188.64 531.37 188.71 519.53
  C 188.74 515.59 192.12 515.31 195.53 515.43"
/>
<path stroke="#89959c" vector-effect="non-scaling-stroke" d="
  M 195.53 515.43
  Q 202.50 515.38 209.43 515.69
  Q 211.00 515.76 212.27 517.43"
/>
<path stroke="#7f8892" vector-effect="non-scaling-stroke" d="
  M 212.27 517.43
  Q 212.58 533.92 212.45 542.50
  Q 212.43 543.72 213.76 543.90"
/>
<path stroke="#89959c" vector-effect="non-scaling-stroke" d="
  M 213.76 543.90
  Q 224.47 545.59 235.50 543.90
  A 1.07 1.07 0.0 0 0 236.41 542.84
  L 236.44 535.46"
/>
<path stroke="#7f8892" vector-effect="non-scaling-stroke" d="
  M 236.44 535.46
  L 236.27 491.22
  A 1.03 1.02 18.7 0 0 235.86 490.40
  L 226.12 482.94"
/>
<path stroke="#89959c" vector-effect="non-scaling-stroke" d="
  M 226.12 482.94
  L 201.06 463.09
  A 1.00 1.00 0.0 0 0 199.82 463.09
  L 178.73 479.69"
/>
<path stroke="#132939" vector-effect="non-scaling-stroke" d="
  M 226.12 482.94
  Q 233.08 491.21 233.53 498.27
  Q 234.56 514.48 234.82 530.71
  Q 234.85 532.31 236.44 535.46"
/>
<path stroke="#132939" vector-effect="non-scaling-stroke" d="
  M 213.76 543.90
  Q 214.12 532.57 214.15 521.42
  Q 214.15 519.26 213.73 517.65
  Q 212.81 514.16 212.27 517.43"
/>
<path stroke="#132939" vector-effect="non-scaling-stroke" d="
  M 195.53 515.43
  L 199.67 515.10
  A 0.32 0.32 0.0 0 0 199.71 514.47
  C 195.04 513.44 187.96 512.23 186.95 518.99
  Q 186.38 522.82 186.72 527.70
  Q 187.20 534.71 186.87 541.91
  A 0.68 0.68 0.0 0 1 186.22 542.56
  Q 177.81 542.99 170.19 542.73
  Q 169.23 542.70 168.78 544.26"
/>
<path stroke="#132939" vector-effect="non-scaling-stroke" d="
  M 164.66 539.89
  C 167.10 535.56 166.90 529.26 166.80 524.46
  Q 166.49 509.09 166.78 492.47
  A 1.11 1.09 -21.7 0 1 167.14 491.66
  Q 169.60 489.41 178.12 482.45
  Q 179.66 481.18 178.73 479.69"
/>
<path stroke="#132939" vector-effect="non-scaling-stroke" d="
  M 682.34 537.45
  C 687.89 540.61 693.29 543.52 699.03 544.52
  Q 704.96 545.56 713.17 544.62
  C 727.42 543.00 735.97 534.30 737.39 520.55
  C 738.21 512.61 736.97 504.64 730.77 499.35
  Q 725.97 495.25 722.31 493.52
  Q 711.36 488.36 705.47 485.12
  C 699.75 481.98 695.21 477.52 696.00 470.48
  Q 696.67 464.63 702.21 461.80
  C 712.04 456.81 721.32 459.52 730.36 464.70
  A 1.26 1.25 27.1 0 0 732.13 464.13
  L 735.41 456.84
  A 0.95 0.94 31.3 0 0 735.13 455.71
  C 726.34 448.72 716.18 447.39 705.08 448.41
  Q 699.24 448.94 695.96 450.73
  C 689.86 454.05 684.18 460.07 682.70 466.94
  C 680.81 475.64 682.31 486.27 689.49 492.06
  C 697.22 498.30 707.75 501.82 715.37 505.63
  Q 719.14 507.50 721.57 510.93
  C 725.80 516.88 724.23 526.11 717.95 529.75
  C 709.54 534.63 695.97 531.21 687.64 526.26
  A 1.27 1.26 34.8 0 0 686.00 526.55
  Q 682.54 530.84 681.42 535.30
  A 1.94 1.93 22.0 0 0 682.34 537.45"
/>
<path stroke="#132939" vector-effect="non-scaling-stroke" d="
  M 749.11 489.73
  L 755.12 489.73
  A 1.24 1.23 -6.9 0 1 756.32 490.67
  Q 757.38 494.87 757.37 499.54
  Q 757.28 519.10 757.99 525.99
  C 758.89 534.79 762.93 542.39 771.61 544.28
  Q 779.90 546.08 788.35 543.11
  A 1.53 1.52 -14.6 0 0 789.35 541.41
  L 787.91 533.19
  A 1.14 1.14 0.0 0 0 786.61 532.26
  C 783.47 532.73 779.82 533.05 777.28 531.63
  C 772.09 528.73 771.86 520.92 771.72 515.52
  C 771.45 505.87 771.38 498.32 772.58 490.96
  A 1.97 1.97 0.0 0 1 774.52 489.31
  L 787.26 489.31
  A 1.42 1.41 -0.0 0 0 788.68 487.90
  L 788.68 479.56
  A 1.47 1.46 88.5 0 0 787.14 478.09
  C 780.88 478.38 772.35 478.96 771.41 470.56
  Q 770.87 465.66 770.87 461.66
  A 0.76 0.75 -5.1 0 0 769.98 460.92
  L 760.42 462.59
  A 0.72 0.72 0.0 0 0 759.82 463.31
  C 759.94 471.53 758.51 477.23 749.32 478.33
  A 1.00 0.99 86.8 0 0 748.44 479.32
  L 748.44 489.07
  A 0.67 0.66 -0.0 0 0 749.11 489.73"
/>
<path stroke="#132939" vector-effect="non-scaling-stroke" d="
  M 586.12 491.19
  A 2.78 2.78 0.0 0 1 588.83 489.04
  L 600.34 489.04
  A 1.93 1.93 0.0 0 0 602.27 487.11
  L 602.27 478.83
  A 0.97 0.97 0.0 0 0 601.23 477.86
  C 595.64 478.25 586.94 479.47 585.66 471.79
  Q 584.71 466.10 584.46 464.67
  A 3.31 3.30 -0.2 0 0 581.73 461.97
  Q 577.63 461.31 575.26 464.44
  C 573.72 466.47 573.75 471.11 572.35 473.36
  C 570.91 475.69 568.84 476.83 566.55 477.94
  C 562.36 479.97 561.46 486.79 565.73 489.23
  C 567.47 490.23 569.00 490.78 570.02 492.30
  Q 571.63 494.71 571.61 498.60
  Q 571.58 505.42 571.76 522.01
  C 571.83 528.80 573.29 536.93 578.32 541.06
  Q 581.72 543.86 584.83 544.45
  Q 593.68 546.14 602.35 543.52
  A 1.47 1.47 0.0 0 0 603.38 541.86
  L 601.80 532.84
  A 0.82 0.82 0.0 0 0 600.91 532.16
  C 599.79 532.27 598.18 532.99 597.23 533.07
  Q 587.31 533.89 585.96 523.97
  Q 584.82 515.54 585.00 502.05
  Q 585.09 495.56 586.12 491.19"
/>
<path stroke="#132939" vector-effect="non-scaling-stroke" d="
  M 654.72 538.87
  L 655.39 542.12
  A 1.96 1.96 0.0 0 0 657.31 543.69
  L 667.35 543.69
  A 0.53 0.53 0.0 0 0 667.87 543.26
  C 668.29 541.12 668.61 538.58 668.61 536.58
  Q 668.52 516.51 668.75 504.93
  C 669.02 491.40 665.46 479.72 650.50 476.67
  Q 636.02 473.71 621.23 479.64
  A 1.22 1.20 -11.2 0 0 620.47 480.76
  L 620.47 488.33
  A 0.54 0.54 0.0 0 0 621.24 488.82
  Q 626.43 486.36 631.54 485.32
  C 638.67 483.86 648.04 484.41 652.34 491.15
  C 653.78 493.41 654.42 497.08 654.78 499.82
  A 2.50 2.49 87.4 0 1 652.20 502.65
  Q 641.39 502.18 632.38 503.12
  Q 625.67 503.82 620.45 507.49
  C 613.82 512.15 611.35 522.12 612.82 529.74
  C 614.64 539.11 620.94 543.34 629.91 544.50
  Q 642.22 546.08 650.84 538.24
  A 1.14 1.13 -54.9 0 1 652.03 538.03
  Q 653.89 538.79 654.21 538.63
  A 0.35 0.35 0.0 0 1 654.72 538.87"
/>
<path stroke="#132939" vector-effect="non-scaling-stroke" d="
  M 841.25 543.94
  Q 847.76 544.80 853.30 543.79
  A 0.77 0.76 81.3 0 0 853.92 542.94
  Q 853.28 538.16 853.26 532.74
  Q 853.24 526.78 853.57 505.12
  C 853.64 500.37 853.25 494.28 852.15 491.12
  Q 847.98 479.16 835.02 476.72
  Q 820.15 473.92 807.07 479.67
  A 1.19 1.17 81.7 0 0 806.38 480.61
  L 805.49 488.40
  A 0.70 0.70 0.0 0 0 806.50 489.10
  C 813.59 485.52 820.14 484.22 827.64 485.34
  C 836.47 486.67 839.70 492.48 840.12 500.86
  A 0.95 0.94 -10.9 0 1 839.47 501.81
  Q 836.58 502.78 833.60 502.67
  Q 828.07 502.47 819.10 503.07
  C 805.21 503.99 796.56 514.04 798.30 528.15
  Q 799.96 541.52 813.65 544.07
  Q 826.43 546.45 836.36 538.20
  A 2.27 2.27 0.0 0 1 840.05 539.55
  L 840.72 543.44
  A 0.62 0.61 -1.2 0 0 841.25 543.94"
/>
<path stroke="#132939" vector-effect="non-scaling-stroke" d="
  M 509.87 531.37
  Q 507.84 535.75 508.80 540.63
  A 1.04 1.03 -85.6 0 0 509.47 541.42
  Q 519.84 545.21 530.52 545.10
  C 538.37 545.02 544.21 543.00 549.39 537.62
  Q 553.44 533.43 553.71 527.14
  C 553.91 522.63 553.68 518.19 550.47 514.75
  Q 545.22 509.13 537.72 506.59
  C 531.16 504.38 517.29 501.41 519.37 492.30
  C 521.82 481.56 540.52 485.68 548.17 487.59
  A 0.76 0.74 -69.9 0 0 549.03 487.18
  Q 550.24 484.61 550.66 480.85
  A 0.83 0.83 0.0 0 0 550.29 480.06
  C 542.32 474.82 525.68 474.57 517.69 478.33
  Q 506.86 483.45 507.43 496.57
  C 507.87 506.82 515.08 511.61 523.83 514.96
  C 530.32 517.45 537.78 519.46 539.93 523.16
  C 543.68 529.64 538.78 533.99 532.31 534.78
  C 525.09 535.66 518.22 533.92 511.63 530.74
  A 1.32 1.32 0.0 0 0 509.87 531.37"
/>
<path stroke="#132939" vector-effect="non-scaling-stroke" d="
  M 495.09 542.90
  Q 495.63 526.50 495.24 505.18
  C 495.14 500.20 494.12 495.32 492.38 491.12
  C 487.62 479.68 476.36 474.66 464.49 477.63
  C 459.64 478.84 455.46 482.60 451.30 484.48
  A 1.12 1.12 0.0 0 1 449.73 483.65
  L 448.70 477.76
  A 0.59 0.57 -4.6 0 0 448.12 477.28
  L 437.17 477.28
  A 1.20 1.20 0.0 0 0 435.97 478.48
  L 435.97 542.76
  A 0.80 0.80 0.0 0 0 436.77 543.56
  L 449.75 543.56
  A 0.85 0.84 87.5 0 0 450.59 542.64
  C 449.88 534.90 450.19 526.71 450.45 511.91
  C 450.67 499.45 454.37 487.87 469.90 491.00
  C 477.65 492.57 479.99 500.05 480.27 506.82
  Q 480.93 522.43 480.08 542.36
  A 1.18 1.18 0.0 0 0 481.26 543.59
  L 494.38 543.59
  A 0.71 0.71 0.0 0 0 495.09 542.90"
/>
<path stroke="#132939" vector-effect="non-scaling-stroke" d="
  M 652.98 513.16
  Q 641.56 511.52 633.26 513.43
  C 627.57 514.74 624.82 519.81 625.44 525.55
  C 626.39 534.35 635.22 536.56 642.63 534.08
  Q 651.81 531.00 653.64 520.75
  Q 654.19 517.67 653.68 513.87
  A 0.83 0.82 0.5 0 0 652.98 513.16"
/>
<path stroke="#132939" vector-effect="non-scaling-stroke" d="
  M 838.00 512.86
  C 831.70 512.07 824.31 511.99 819.00 513.38
  C 812.90 514.96 808.67 521.68 810.94 527.72
  C 814.33 536.75 825.41 536.26 832.23 532.00
  C 838.54 528.05 840.00 520.85 839.10 513.96
  A 1.28 1.28 0.0 0 0 838.00 512.86"
/>
<path stroke="#7f8892" vector-effect="non-scaling-stroke" d="
  M 837.09 514.04
  Q 829.24 513.27 822.93 513.83
  C 807.68 515.19 807.92 535.36 823.77 533.50
  C 830.61 532.71 836.13 528.31 837.35 521.47
  Q 837.90 518.33 838.08 515.19
  A 1.10 1.09 4.4 0 0 837.09 514.04"
/>
<path stroke="#7f8892" vector-effect="non-scaling-stroke" d="
  M 651.73 514.07
  Q 643.88 513.30 637.57 513.85
  C 622.33 515.20 622.56 535.37 638.40 533.52
  C 645.24 532.73 650.76 528.34 651.99 521.50
  Q 652.54 518.36 652.72 515.22
  A 1.10 1.09 4.4 0 0 651.73 514.07"
/>
</g>
<path fill="#f5f4f5" d="
  M 1024.00 0.00
  L 1024.00 1024.00
  L 0.00 1024.00
  L 0.00 0.00
  L 1024.00 0.00
  Z
  M 142.82 578.90
  Q 153.29 587.18 166.73 592.25
  C 226.73 614.85 289.12 575.81 295.26 512.23
  C 298.32 480.46 286.91 450.53 262.33 429.92
  C 225.41 398.73 170.78 400.27 135.81 433.08
  Q 113.89 453.64 107.98 482.22
  Q 99.36 523.80 123.54 558.73
  Q 131.50 570.24 142.82 578.90
  Z
  M 732.31 466.83
  Q 735.67 462.54 737.12 456.26
  A 1.41 1.40 34.8 0 0 736.92 455.18
  Q 735.94 453.75 734.27 452.69
  C 725.17 446.91 713.87 445.25 703.18 446.93
  C 688.69 449.20 679.57 460.05 679.94 474.79
  C 680.43 494.01 695.64 499.13 711.83 506.04
  C 718.51 508.90 723.84 512.92 722.26 521.03
  C 720.78 528.67 713.49 530.59 706.75 530.28
  Q 695.63 529.78 686.78 523.18
  A 1.10 1.10 0.0 0 0 685.17 523.51
  L 679.04 534.13
  A 2.29 2.29 0.0 0 0 679.33 536.82
  C 685.19 543.18 694.97 546.04 703.46 546.51
  C 717.26 547.29 730.86 544.14 737.08 530.36
  C 741.40 520.80 741.39 506.86 733.30 498.91
  C 726.95 492.68 719.48 490.07 709.17 485.31
  Q 704.86 483.32 700.99 480.08
  C 694.75 474.86 696.47 464.74 704.43 462.41
  C 713.96 459.62 722.99 462.15 731.35 467.02
  A 0.75 0.75 0.0 0 0 732.31 466.83
  Z
  M 331.09 448.97
  Q 330.97 523.79 331.10 543.44
  Q 331.12 545.36 332.98 544.97
  L 347.54 545.06
  A 1.81 1.81 0.0 0 0 349.36 543.25
  Q 349.37 533.14 349.34 449.49
  Q 349.33 447.10 346.76 447.03
  Q 340.36 446.87 334.01 446.92
  Q 331.47 446.94 331.09 448.97
  Z
  M 774.63 490.94
  L 788.02 490.94
  A 2.09 2.09 0.0 0 0 790.11 488.85
  L 790.11 478.12
  A 1.75 1.75 0.0 0 0 788.30 476.37
  Q 783.80 476.52 777.80 476.40
  Q 773.22 476.31 773.02 472.50
  Q 772.45 461.28 772.41 460.69
  A 1.63 1.63 0.0 0 0 770.50 459.20
  L 759.13 461.18
  A 1.39 1.38 85.5 0 0 757.99 462.52
  C 757.92 467.08 758.88 472.99 754.50 475.66
  C 752.94 476.61 750.60 476.67 748.29 476.86
  A 1.66 1.66 0.0 0 0 746.77 478.51
  L 746.77 489.52
  A 1.75 1.75 0.0 0 0 748.52 491.27
  L 754.51 491.27
  A 1.00 1.00 0.0 0 1 755.51 492.28
  Q 755.35 515.46 755.37 516.76
  C 755.57 527.87 756.51 539.83 767.52 544.85
  C 773.89 547.75 782.87 546.89 789.37 544.52
  A 2.69 2.68 75.0 0 0 791.09 541.53
  L 789.22 530.81
  A 1.19 1.19 0.0 0 0 787.46 529.98
  Q 783.13 532.46 778.64 530.91
  C 774.77 529.57 773.91 525.43 773.84 521.75
  Q 773.53 507.14 773.76 491.79
  A 0.87 0.86 0.3 0 1 774.63 490.94
  Z
  M 601.36 530.00
  Q 598.25 531.93 594.27 531.50
  C 588.57 530.87 587.55 526.13 587.51 521.25
  Q 587.42 509.47 587.46 491.84
  A 0.92 0.91 -89.7 0 1 588.37 490.93
  L 602.28 490.93
  A 1.74 1.74 0.0 0 0 604.02 489.19
  L 604.02 478.12
  A 1.77 1.77 0.0 0 0 602.23 476.35
  Q 595.24 476.44 591.79 476.40
  C 588.10 476.36 586.78 474.56 586.71 470.86
  Q 586.68 469.41 586.22 460.79
  A 1.58 1.58 0.0 0 0 584.37 459.32
  L 573.42 461.23
  A 1.14 1.14 0.0 0 0 572.48 462.30
  C 572.12 470.55 573.59 476.71 562.48 476.87
  A 1.37 1.36 -0.4 0 0 561.13 478.23
  L 561.13 489.66
  A 1.72 1.72 0.0 0 0 562.85 491.38
  L 568.51 491.38
  A 1.34 1.33 0.2 0 1 569.85 492.72
  Q 569.75 511.96 569.91 523.17
  C 570.08 534.81 574.78 545.05 587.23 546.52
  C 592.48 547.14 599.13 546.58 604.10 544.17
  A 1.41 1.41 0.0 0 0 604.89 542.89
  Q 604.79 536.67 602.87 530.55
  A 1.02 1.02 0.0 0 0 601.36 530.00
  Z
  M 620.18 490.83
  Q 624.07 489.56 627.99 487.98
  C 633.95 485.59 644.38 485.16 649.39 489.61
  Q 653.43 493.19 653.44 500.07
  A 1.26 1.26 0.0 0 1 652.06 501.32
  C 638.08 499.98 617.60 499.00 611.99 515.97
  C 609.71 522.86 609.96 532.72 614.58 538.61
  C 622.87 549.18 643.70 548.81 652.22 538.93
  A 0.80 0.80 0.0 0 1 653.63 539.45
  L 653.63 543.89
  A 1.49 1.49 0.0 0 0 655.12 545.38
  L 668.91 545.38
  A 1.37 1.36 -0.0 0 0 670.28 544.02
  Q 670.32 535.16 670.37 502.18
  C 670.39 489.39 665.67 478.46 652.30 475.30
  Q 636.68 471.60 620.86 478.00
  A 2.15 2.12 -83.6 0 0 619.92 478.76
  C 618.34 481.08 618.56 487.56 618.80 489.93
  A 1.06 1.06 0.0 0 0 620.18 490.83
  Z
  M 838.42 539.13
  Q 838.95 540.63 838.85 543.96
  A 1.80 1.80 0.0 0 0 840.65 545.81
  L 853.52 545.81
  A 1.96 1.95 90.0 0 0 855.47 543.85
  Q 855.43 529.53 855.48 508.41
  C 855.51 495.58 854.96 481.53 840.52 476.31
  C 830.17 472.56 816.61 473.48 806.02 478.21
  A 2.34 2.34 0.0 0 0 804.64 480.18
  L 803.97 489.38
  A 1.49 1.48 -8.0 0 0 805.97 490.88
  Q 810.43 489.23 812.26 488.51
  C 818.61 486.03 828.07 485.20 833.65 489.06
  Q 838.24 492.23 838.82 499.77
  A 1.52 1.52 0.0 0 1 837.21 501.40
  Q 837.18 501.40 829.01 500.77
  C 815.93 499.78 800.22 503.39 796.87 518.36
  C 792.44 538.22 806.62 549.03 825.17 545.66
  Q 832.38 544.35 837.42 538.93
  A 0.60 0.59 -33.6 0 1 838.42 539.13
  Z
  M 510.56 528.59
  A 0.90 0.90 0.0 0 0 509.48 528.92
  Q 506.44 533.37 505.63 538.51
  C 505.32 540.47 506.71 541.44 508.28 542.24
  C 515.32 545.83 524.42 547.01 531.91 546.62
  C 545.00 545.94 555.98 538.96 556.09 524.72
  C 556.20 509.07 538.96 505.30 527.28 501.00
  C 523.03 499.44 518.96 496.37 520.82 491.39
  C 523.65 483.80 541.62 487.54 547.44 489.56
  Q 549.67 490.33 550.45 488.19
  Q 551.84 484.37 552.28 480.60
  A 2.36 2.36 0.0 0 0 551.06 478.26
  Q 544.69 474.81 537.00 474.32
  C 527.27 473.71 517.85 474.25 510.80 481.06
  Q 506.05 485.64 505.32 493.20
  C 503.53 511.73 520.18 515.79 533.73 520.54
  C 535.80 521.27 539.29 523.25 539.85 524.62
  C 541.66 529.07 537.82 532.65 533.97 533.27
  Q 524.95 534.71 516.07 530.89
  Q 513.59 529.82 510.56 528.59
  Z
  M 370.97 475.84
  L 364.24 475.83
  A 1.73 1.73 0.0 0 0 362.51 477.56
  L 362.51 543.11
  A 1.99 1.98 -83.1 0 0 364.02 545.04
  Q 365.45 545.38 367.17 545.03
  Q 371.53 545.19 375.85 545.12
  Q 378.40 545.08 378.61 545.01
  Q 379.81 544.63 379.81 542.76
  Q 379.82 534.31 379.92 508.01
  Q 379.94 503.32 381.21 499.77
  C 384.13 491.63 394.28 489.35 401.09 493.66
  C 407.32 497.59 406.22 509.69 406.22 515.82
  Q 405.94 534.46 406.18 543.81
  Q 406.20 544.75 407.23 544.94
  C 412.01 545.22 416.71 544.93 421.42 545.15
  Q 423.61 545.26 423.64 542.75
  Q 423.97 515.52 423.46 501.76
  C 422.96 487.98 415.80 476.27 401.24 474.79
  C 392.93 473.95 385.29 477.55 379.50 483.50
  A 0.77 0.77 0.0 0 1 378.17 482.96
  L 378.17 477.08
  A 1.23 1.23 0.0 0 0 376.94 475.85
  L 370.97 475.84
  Z
  M 450.49 483.11
  L 450.49 477.26
  A 1.50 1.50 0.0 0 0 448.99 475.76
  L 436.32 475.76
  A 2.03 2.03 0.0 0 0 434.29 477.79
  L 434.29 543.55
  A 1.56 1.55 -89.8 0 0 435.83 545.11
  Q 441.45 545.13 449.89 545.19
  Q 451.88 545.21 451.90 542.42
  Q 452.12 519.84 452.03 512.60
  C 451.90 502.65 452.93 493.65 463.42 491.82
  C 468.81 490.87 474.79 492.69 476.82 497.90
  Q 478.74 502.82 478.76 505.76
  Q 478.87 521.50 478.84 543.24
  A 1.95 1.95 0.0 0 0 480.79 545.19
  L 495.30 545.19
  A 1.34 1.34 0.0 0 0 496.64 543.85
  Q 496.88 509.82 496.86 507.75
  C 496.77 498.28 495.27 489.21 488.84 482.15
  C 481.77 474.40 469.18 472.78 460.08 477.45
  Q 455.34 479.88 451.61 483.57
  A 0.66 0.65 -22.6 0 1 450.49 483.11
  Z
  M 864.74 577.92
  Q 865.99 578.22 867.20 577.99
  C 878.32 578.24 884.97 571.73 889.92 562.68
  Q 893.78 555.61 897.03 547.27
  Q 919.71 489.02 923.91 478.21
  A 1.39 1.39 0.0 0 0 922.61 476.31
  L 909.07 476.31
  A 2.13 2.12 9.4 0 0 907.06 477.74
  L 891.73 522.22
  Q 890.54 522.57 890.77 522.22
  L 875.83 477.46
  A 1.73 1.73 0.0 0 0 874.19 476.29
  L 860.52 476.29
  A 1.75 1.75 0.0 0 0 858.86 478.60
  Q 863.65 492.75 878.96 536.30
  Q 881.29 542.93 881.12 545.40
  C 880.46 555.26 873.81 559.86 864.41 560.77
  A 2.05 2.04 87.4 0 0 862.57 562.80
  Q 862.53 571.97 862.51 576.77
  Q 862.50 578.35 864.74 577.92
  Z"
/>
<path fill="#081c2f" d="
  M 262.33 429.92
  L 264.12 432.40
  A 0.20 0.20 0.0 0 1 263.93 432.72
  Q 261.43 432.26 259.68 430.81
  C 249.85 422.63 236.83 415.54 223.90 413.00
  C 219.13 412.07 210.26 408.94 202.86 409.27
  Q 190.56 409.82 180.96 411.81
  Q 158.14 416.55 140.08 431.81
  C 133.74 437.17 128.25 444.12 123.37 451.07
  Q 111.34 468.23 108.28 489.13
  C 104.79 513.10 111.65 540.52 126.69 559.56
  Q 131.24 565.32 134.40 569.26
  A 3.83 3.72 -0.8 0 0 135.11 569.93
  Q 140.28 573.62 142.82 578.90
  Q 131.50 570.24 123.54 558.73
  Q 99.36 523.80 107.98 482.22
  Q 113.89 453.64 135.81 433.08
  C 170.78 400.27 225.41 398.73 262.33 429.92
  Z"
/>
<path fill="#1d3542" d="
  M 262.33 429.92
  C 286.91 450.53 298.32 480.46 295.26 512.23
  C 289.12 575.81 226.73 614.85 166.73 592.25
  Q 153.29 587.18 142.82 578.90
  Q 140.28 573.62 135.11 569.93
  A 3.83 3.72 -0.8 0 1 134.40 569.26
  Q 131.24 565.32 126.69 559.56
  C 111.65 540.52 104.79 513.10 108.28 489.13
  Q 111.34 468.23 123.37 451.07
  C 128.25 444.12 133.74 437.17 140.08 431.81
  Q 158.14 416.55 180.96 411.81
  Q 190.56 409.82 202.86 409.27
  C 210.26 408.94 219.13 412.07 223.90 413.00
  C 236.83 415.54 249.85 422.63 259.68 430.81
  Q 261.43 432.26 263.93 432.72
  A 0.20 0.20 0.0 0 0 264.12 432.40
  L 262.33 429.92
  Z
  M 246.29 555.59
  Q 249.27 553.91 249.29 550.50
  Q 249.42 527.18 249.22 504.27
  A 0.70 0.69 -0.4 0 1 249.92 503.57
  L 256.71 503.57
  A 2.59 2.59 0.0 0 0 259.30 500.98
  L 259.30 493.96
  A 3.20 3.16 -68.7 0 0 258.29 491.63
  L 210.92 447.65
  Q 211.47 447.30 212.59 447.67
  A 0.22 0.22 0.0 0 0 212.85 447.36
  C 209.01 440.62 201.22 434.46 193.80 441.24
  C 185.62 448.72 178.69 454.26 176.22 457.10
  Q 174.80 458.74 164.19 468.28
  C 158.84 473.09 154.26 478.38 149.18 483.38
  C 146.46 486.05 142.14 488.91 140.70 492.05
  C 139.12 495.50 139.24 501.49 142.44 504.36
  A 1.22 1.19 67.5 0 0 143.16 504.67
  L 149.32 505.09
  A 0.58 0.58 0.0 0 1 149.86 505.67
  Q 149.49 530.49 149.66 548.74
  C 149.69 551.59 150.61 556.88 154.00 556.84
  Q 183.02 556.53 193.00 556.71
  Q 221.79 557.21 246.29 555.59
  Z"
/>
<path fill="#081c2f" d="
  M 210.92 447.65
  L 202.46 439.83
  A 1.78 1.72 -15.5 0 0 201.74 439.44
  Q 199.48 438.86 197.49 440.73
  Q 175.77 461.07 142.95 491.33
  A 3.98 3.94 -21.5 0 0 141.67 494.24
  L 141.67 500.81
  A 2.67 2.67 0.0 0 0 144.34 503.48
  L 151.04 503.48
  A 0.71 0.71 0.0 0 1 151.75 504.20
  Q 151.51 523.99 151.60 550.95
  Q 151.61 555.20 155.75 555.19
  Q 208.15 555.08 246.29 555.59
  Q 221.79 557.21 193.00 556.71
  Q 183.02 556.53 154.00 556.84
  C 150.61 556.88 149.69 551.59 149.66 548.74
  Q 149.49 530.49 149.86 505.67
  A 0.58 0.58 0.0 0 0 149.32 505.09
  L 143.16 504.67
  A 1.22 1.19 67.5 0 1 142.44 504.36
  C 139.24 501.49 139.12 495.50 140.70 492.05
  C 142.14 488.91 146.46 486.05 149.18 483.38
  C 154.26 478.38 158.84 473.09 164.19 468.28
  Q 174.80 458.74 176.22 457.10
  C 178.69 454.26 185.62 448.72 193.80 441.24
  C 201.22 434.46 209.01 440.62 212.85 447.36
  A 0.22 0.22 0.0 0 1 212.59 447.67
  Q 211.47 447.30 210.92 447.65
  Z"
/>
<path fill="#f5f4f5" d="
  M 210.92 447.65
  L 258.29 491.63
  A 3.20 3.16 -68.7 0 1 259.30 493.96
  L 259.30 500.98
  A 2.59 2.59 0.0 0 1 256.71 503.57
  L 249.92 503.57
  A 0.70 0.69 -0.4 0 0 249.22 504.27
  Q 249.42 527.18 249.29 550.50
  Q 249.27 553.91 246.29 555.59
  Q 208.15 555.08 155.75 555.19
  Q 151.61 555.20 151.60 550.95
  Q 151.51 523.99 151.75 504.20
  A 0.71 0.71 0.0 0 0 151.04 503.48
  L 144.34 503.48
  A 2.67 2.67 0.0 0 1 141.67 500.81
  L 141.67 494.24
  A 3.98 3.94 -21.5 0 1 142.95 491.33
  Q 175.77 461.07 197.49 440.73
  Q 199.48 438.86 201.74 439.44
  A 1.78 1.72 -15.5 0 1 202.46 439.83
  L 210.92 447.65
  Z
  M 178.73 479.69
  L 165.30 490.23
  A 1.56 1.56 0.0 0 0 164.71 491.43
  L 164.66 539.89
  L 164.63 542.54
  A 1.40 1.39 -86.4 0 0 165.87 543.95
  L 168.78 544.26
  Q 178.56 545.21 188.18 543.72
  A 0.65 0.64 -4.8 0 0 188.72 543.09
  Q 188.64 531.37 188.71 519.53
  C 188.74 515.59 192.12 515.31 195.53 515.43
  Q 202.50 515.38 209.43 515.69
  Q 211.00 515.76 212.27 517.43
  Q 212.58 533.92 212.45 542.50
  Q 212.43 543.72 213.76 543.90
  Q 224.47 545.59 235.50 543.90
  A 1.07 1.07 0.0 0 0 236.41 542.84
  L 236.44 535.46
  L 236.27 491.22
  A 1.03 1.02 18.7 0 0 235.86 490.40
  L 226.12 482.94
  L 201.06 463.09
  A 1.00 1.00 0.0 0 0 199.82 463.09
  L 178.73 479.69
  Z"
/>
<path fill="#081c2f" d="
  M 732.31 466.83
  A 0.75 0.75 0.0 0 1 731.35 467.02
  C 722.99 462.15 713.96 459.62 704.43 462.41
  C 696.47 464.74 694.75 474.86 700.99 480.08
  Q 704.86 483.32 709.17 485.31
  C 719.48 490.07 726.95 492.68 733.30 498.91
  C 741.39 506.86 741.40 520.80 737.08 530.36
  C 730.86 544.14 717.26 547.29 703.46 546.51
  C 694.97 546.04 685.19 543.18 679.33 536.82
  A 2.29 2.29 0.0 0 1 679.04 534.13
  L 685.17 523.51
  A 1.10 1.10 0.0 0 1 686.78 523.18
  Q 695.63 529.78 706.75 530.28
  C 713.49 530.59 720.78 528.67 722.26 521.03
  C 723.84 512.92 718.51 508.90 711.83 506.04
  C 695.64 499.13 680.43 494.01 679.94 474.79
  C 679.57 460.05 688.69 449.20 703.18 446.93
  C 713.87 445.25 725.17 446.91 734.27 452.69
  Q 735.94 453.75 736.92 455.18
  A 1.41 1.40 34.8 0 1 737.12 456.26
  Q 735.67 462.54 732.31 466.83
  Z
  M 682.34 537.45
  C 687.89 540.61 693.29 543.52 699.03 544.52
  Q 704.96 545.56 713.17 544.62
  C 727.42 543.00 735.97 534.30 737.39 520.55
  C 738.21 512.61 736.97 504.64 730.77 499.35
  Q 725.97 495.25 722.31 493.52
  Q 711.36 488.36 705.47 485.12
  C 699.75 481.98 695.21 477.52 696.00 470.48
  Q 696.67 464.63 702.21 461.80
  C 712.04 456.81 721.32 459.52 730.36 464.70
  A 1.26 1.25 27.1 0 0 732.13 464.13
  L 735.41 456.84
  A 0.95 0.94 31.3 0 0 735.13 455.71
  C 726.34 448.72 716.18 447.39 705.08 448.41
  Q 699.24 448.94 695.96 450.73
  C 689.86 454.05 684.18 460.07 682.70 466.94
  C 680.81 475.64 682.31 486.27 689.49 492.06
  C 697.22 498.30 707.75 501.82 715.37 505.63
  Q 719.14 507.50 721.57 510.93
  C 725.80 516.88 724.23 526.11 717.95 529.75
  C 709.54 534.63 695.97 531.21 687.64 526.26
  A 1.27 1.26 34.8 0 0 686.00 526.55
  Q 682.54 530.84 681.42 535.30
  A 1.94 1.93 22.0 0 0 682.34 537.45
  Z"
/>
<path fill="#081c2f" d="
  M 332.98 544.97
  Q 339.52 542.71 346.20 543.51
  A 0.95 0.95 0.0 0 0 347.26 542.58
  Q 347.84 513.25 347.32 486.77
  C 347.07 473.89 347.41 460.56 347.81 449.68
  A 0.75 0.74 -86.8 0 0 347.12 448.90
  C 342.33 448.61 336.38 448.38 332.03 450.34
  A 0.57 0.56 -16.2 0 1 331.24 449.91
  L 331.09 448.97
  Q 331.47 446.94 334.01 446.92
  Q 340.36 446.87 346.76 447.03
  Q 349.33 447.10 349.34 449.49
  Q 349.37 533.14 349.36 543.25
  A 1.81 1.81 0.0 0 1 347.54 545.06
  L 332.98 544.97
  Z"
/>
<path fill="#1d3542" d="
  M 682.34 537.45
  A 1.94 1.93 22.0 0 1 681.42 535.30
  Q 682.54 530.84 686.00 526.55
  A 1.27 1.26 34.8 0 1 687.64 526.26
  C 695.97 531.21 709.54 534.63 717.95 529.75
  C 724.23 526.11 725.80 516.88 721.57 510.93
  Q 719.14 507.50 715.37 505.63
  C 707.75 501.82 697.22 498.30 689.49 492.06
  C 682.31 486.27 680.81 475.64 682.70 466.94
  C 684.18 460.07 689.86 454.05 695.96 450.73
  Q 699.24 448.94 705.08 448.41
  C 716.18 447.39 726.34 448.72 735.13 455.71
  A 0.95 0.94 31.3 0 1 735.41 456.84
  L 732.13 464.13
  A 1.26 1.25 27.1 0 1 730.36 464.70
  C 721.32 459.52 712.04 456.81 702.21 461.80
  Q 696.67 464.63 696.00 470.48
  C 695.21 477.52 699.75 481.98 705.47 485.12
  Q 711.36 488.36 722.31 493.52
  Q 725.97 495.25 730.77 499.35
  C 736.97 504.64 738.21 512.61 737.39 520.55
  C 735.97 534.30 727.42 543.00 713.17 544.62
  Q 704.96 545.56 699.03 544.52
  C 693.29 543.52 687.89 540.61 682.34 537.45
  Z"
/>
<path fill="#1d3542" d="
  M 332.98 544.97
  Q 331.12 545.36 331.10 543.44
  Q 330.97 523.79 331.09 448.97
  L 331.24 449.91
  A 0.57 0.56 -16.2 0 0 332.03 450.34
  C 336.38 448.38 342.33 448.61 347.12 448.90
  A 0.75 0.74 -86.8 0 1 347.81 449.68
  C 347.41 460.56 347.07 473.89 347.32 486.77
  Q 347.84 513.25 347.26 542.58
  A 0.95 0.95 0.0 0 1 346.20 543.51
  Q 339.52 542.71 332.98 544.97
  Z"
/>
<path fill="#081c2f" d="
  M 774.63 490.94
  A 0.87 0.86 0.3 0 0 773.76 491.79
  Q 773.53 507.14 773.84 521.75
  C 773.91 525.43 774.77 529.57 778.64 530.91
  Q 783.13 532.46 787.46 529.98
  A 1.19 1.19 0.0 0 1 789.22 530.81
  L 791.09 541.53
  A 2.69 2.68 75.0 0 1 789.37 544.52
  C 782.87 546.89 773.89 547.75 767.52 544.85
  C 756.51 539.83 755.57 527.87 755.37 516.76
  Q 755.35 515.46 755.51 492.28
  A 1.00 1.00 0.0 0 0 754.51 491.27
  L 748.52 491.27
  A 1.75 1.75 0.0 0 1 746.77 489.52
  L 746.77 478.51
  A 1.66 1.66 0.0 0 1 748.29 476.86
  C 750.60 476.67 752.94 476.61 754.50 475.66
  C 758.88 472.99 757.92 467.08 757.99 462.52
  A 1.39 1.38 85.5 0 1 759.13 461.18
  L 770.50 459.20
  A 1.63 1.63 0.0 0 1 772.41 460.69
  Q 772.45 461.28 773.02 472.50
  Q 773.22 476.31 777.80 476.40
  Q 783.80 476.52 788.30 476.37
  A 1.75 1.75 0.0 0 1 790.11 478.12
  L 790.11 488.85
  A 2.09 2.09 0.0 0 1 788.02 490.94
  L 774.63 490.94
  Z
  M 749.11 489.73
  L 755.12 489.73
  A 1.24 1.23 -6.9 0 1 756.32 490.67
  Q 757.38 494.87 757.37 499.54
  Q 757.28 519.10 757.99 525.99
  C 758.89 534.79 762.93 542.39 771.61 544.28
  Q 779.90 546.08 788.35 543.11
  A 1.53 1.52 -14.6 0 0 789.35 541.41
  L 787.91 533.19
  A 1.14 1.14 0.0 0 0 786.61 532.26
  C 783.47 532.73 779.82 533.05 777.28 531.63
  C 772.09 528.73 771.86 520.92 771.72 515.52
  C 771.45 505.87 771.38 498.32 772.58 490.96
  A 1.97 1.97 0.0 0 1 774.52 489.31
  L 787.26 489.31
  A 1.42 1.41 -0.0 0 0 788.68 487.90
  L 788.68 479.56
  A 1.47 1.46 88.5 0 0 787.14 478.09
  C 780.88 478.38 772.35 478.96 771.41 470.56
  Q 770.87 465.66 770.87 461.66
  A 0.76 0.75 -5.1 0 0 769.98 460.92
  L 760.42 462.59
  A 0.72 0.72 0.0 0 0 759.82 463.31
  C 759.94 471.53 758.51 477.23 749.32 478.33
  A 1.00 0.99 86.8 0 0 748.44 479.32
  L 748.44 489.07
  A 0.67 0.66 -0.0 0 0 749.11 489.73
  Z"
/>
<path fill="#081c2f" d="
  M 601.36 530.00
  A 1.02 1.02 0.0 0 1 602.87 530.55
  Q 604.79 536.67 604.89 542.89
  A 1.41 1.41 0.0 0 1 604.10 544.17
  C 599.13 546.58 592.48 547.14 587.23 546.52
  C 574.78 545.05 570.08 534.81 569.91 523.17
  Q 569.75 511.96 569.85 492.72
  A 1.34 1.33 0.2 0 0 568.51 491.38
  L 562.85 491.38
  A 1.72 1.72 0.0 0 1 561.13 489.66
  L 561.13 478.23
  A 1.37 1.36 -0.4 0 1 562.48 476.87
  C 573.59 476.71 572.12 470.55 572.48 462.30
  A 1.14 1.14 0.0 0 1 573.42 461.23
  L 584.37 459.32
  A 1.58 1.58 0.0 0 1 586.22 460.79
  Q 586.68 469.41 586.71 470.86
  C 586.78 474.56 588.10 476.36 591.79 476.40
  Q 595.24 476.44 602.23 476.35
  A 1.77 1.77 0.0 0 1 604.02 478.12
  L 604.02 489.19
  A 1.74 1.74 0.0 0 1 602.28 490.93
  L 588.37 490.93
  A 0.92 0.91 -89.7 0 0 587.46 491.84
  Q 587.42 509.47 587.51 521.25
  C 587.55 526.13 588.57 530.87 594.27 531.50
  Q 598.25 531.93 601.36 530.00
  Z
  M 586.12 491.19
  A 2.78 2.78 0.0 0 1 588.83 489.04
  L 600.34 489.04
  A 1.93 1.93 0.0 0 0 602.27 487.11
  L 602.27 478.83
  A 0.97 0.97 0.0 0 0 601.23 477.86
  C 595.64 478.25 586.94 479.47 585.66 471.79
  Q 584.71 466.10 584.46 464.67
  A 3.31 3.30 -0.2 0 0 581.73 461.97
  Q 577.63 461.31 575.26 464.44
  C 573.72 466.47 573.75 471.11 572.35 473.36
  C 570.91 475.69 568.84 476.83 566.55 477.94
  C 562.36 479.97 561.46 486.79 565.73 489.23
  C 567.47 490.23 569.00 490.78 570.02 492.30
  Q 571.63 494.71 571.61 498.60
  Q 571.58 505.42 571.76 522.01
  C 571.83 528.80 573.29 536.93 578.32 541.06
  Q 581.72 543.86 584.83 544.45
  Q 593.68 546.14 602.35 543.52
  A 1.47 1.47 0.0 0 0 603.38 541.86
  L 601.80 532.84
  A 0.82 0.82 0.0 0 0 600.91 532.16
  C 599.79 532.27 598.18 532.99 597.23 533.07
  Q 587.31 533.89 585.96 523.97
  Q 584.82 515.54 585.00 502.05
  Q 585.09 495.56 586.12 491.19
  Z"
/>
<path fill="#1d3542" d="
  M 748.44 489.07
  L 748.44 479.32
  A 1.00 0.99 86.8 0 1 749.32 478.33
  C 758.51 477.23 759.94 471.53 759.82 463.31
  A 0.72 0.72 0.0 0 1 760.42 462.59
  L 769.98 460.92
  A 0.76 0.75 -5.1 0 1 770.87 461.66
  Q 770.87 465.66 771.41 470.56
  C 772.35 478.96 780.88 478.38 787.14 478.09
  A 1.47 1.46 88.5 0 1 788.68 479.56
  L 788.68 487.90
  A 1.42 1.41 -0.0 0 1 787.26 489.31
  L 774.52 489.31
  A 1.97 1.97 0.0 0 0 772.58 490.96
  C 771.38 498.32 771.45 505.87 771.72 515.52
  C 771.86 520.92 772.09 528.73 777.28 531.63
  C 779.82 533.05 783.47 532.73 786.61 532.26
  A 1.14 1.14 0.0 0 1 787.91 533.19
  L 789.35 541.41
  A 1.53 1.52 -14.6 0 1 788.35 543.11
  Q 779.90 546.08 771.61 544.28
  C 762.93 542.39 758.89 534.79 757.99 525.99
  Q 757.28 519.10 757.37 499.54
  Q 757.38 494.87 756.32 490.67
  A 1.24 1.23 -6.9 0 0 755.12 489.73
  L 749.11 489.73
  A 0.67 0.66 0.0 0 1 748.44 489.07
  Z"
/>
<path fill="#1d3542" d="
  M 586.12 491.19
  Q 585.09 495.56 585.00 502.05
  Q 584.82 515.54 585.96 523.97
  Q 587.31 533.89 597.23 533.07
  C 598.18 532.99 599.79 532.27 600.91 532.16
  A 0.82 0.82 0.0 0 1 601.80 532.84
  L 603.38 541.86
  A 1.47 1.47 0.0 0 1 602.35 543.52
  Q 593.68 546.14 584.83 544.45
  Q 581.72 543.86 578.32 541.06
  C 573.29 536.93 571.83 528.80 571.76 522.01
  Q 571.58 505.42 571.61 498.60
  Q 571.63 494.71 570.02 492.30
  C 569.00 490.78 567.47 490.23 565.73 489.23
  C 561.46 486.79 562.36 479.97 566.55 477.94
  C 568.84 476.83 570.91 475.69 572.35 473.36
  C 573.75 471.11 573.72 466.47 575.26 464.44
  Q 577.63 461.31 581.73 461.97
  A 3.31 3.30 -0.2 0 1 584.46 464.67
  Q 584.71 466.10 585.66 471.79
  C 586.94 479.47 595.64 478.25 601.23 477.86
  A 0.97 0.97 0.0 0 1 602.27 478.83
  L 602.27 487.11
  A 1.93 1.93 0.0 0 1 600.34 489.04
  L 588.83 489.04
  A 2.78 2.78 0.0 0 0 586.12 491.19
  Z"
/>
<path fill="#1d3542" d="
  M 226.12 482.94
  Q 233.08 491.21 233.53 498.27
  Q 234.56 514.48 234.82 530.71
  Q 234.85 532.31 236.44 535.46
  L 236.41 542.84
  A 1.07 1.07 0.0 0 1 235.50 543.90
  Q 224.47 545.59 213.76 543.90
  Q 214.12 532.57 214.15 521.42
  Q 214.15 519.26 213.73 517.65
  Q 212.81 514.16 212.27 517.43
  Q 211.00 515.76 209.43 515.69
  Q 202.50 515.38 195.53 515.43
  L 199.67 515.10
  A 0.32 0.32 0.0 0 0 199.71 514.47
  C 195.04 513.44 187.96 512.23 186.95 518.99
  Q 186.38 522.82 186.72 527.70
  Q 187.20 534.71 186.87 541.91
  A 0.68 0.68 0.0 0 1 186.22 542.56
  Q 177.81 542.99 170.19 542.73
  Q 169.23 542.70 168.78 544.26
  L 165.87 543.95
  A 1.40 1.39 -86.4 0 1 164.63 542.54
  L 164.66 539.89
  C 167.10 535.56 166.90 529.26 166.80 524.46
  Q 166.49 509.09 166.78 492.47
  A 1.11 1.09 -21.7 0 1 167.14 491.66
  Q 169.60 489.41 178.12 482.45
  Q 179.66 481.18 178.73 479.69
  L 199.82 463.09
  A 1.00 1.00 0.0 0 1 201.06 463.09
  L 226.12 482.94
  Z"
/>
<path fill="#081c2f" d="
  M 620.18 490.83
  A 1.06 1.06 0.0 0 1 618.80 489.93
  C 618.56 487.56 618.34 481.08 619.92 478.76
  A 2.15 2.12 -83.6 0 1 620.86 478.00
  Q 636.68 471.60 652.30 475.30
  C 665.67 478.46 670.39 489.39 670.37 502.18
  Q 670.32 535.16 670.28 544.02
  A 1.37 1.36 -0.0 0 1 668.91 545.38
  L 655.12 545.38
  A 1.49 1.49 0.0 0 1 653.63 543.89
  L 653.63 539.45
  A 0.80 0.80 0.0 0 0 652.22 538.93
  C 643.70 548.81 622.87 549.18 614.58 538.61
  C 609.96 532.72 609.71 522.86 611.99 515.97
  C 617.60 499.00 638.08 499.98 652.06 501.32
  A 1.26 1.26 0.0 0 0 653.44 500.07
  Q 653.43 493.19 649.39 489.61
  C 644.38 485.16 633.95 485.59 627.99 487.98
  Q 624.07 489.56 620.18 490.83
  Z
  M 654.72 538.87
  L 655.39 542.12
  A 1.96 1.96 0.0 0 0 657.31 543.69
  L 667.35 543.69
  A 0.53 0.53 0.0 0 0 667.87 543.26
  C 668.29 541.12 668.61 538.58 668.61 536.58
  Q 668.52 516.51 668.75 504.93
  C 669.02 491.40 665.46 479.72 650.50 476.67
  Q 636.02 473.71 621.23 479.64
  A 1.22 1.20 -11.2 0 0 620.47 480.76
  L 620.47 488.33
  A 0.54 0.54 0.0 0 0 621.24 488.82
  Q 626.43 486.36 631.54 485.32
  C 638.67 483.86 648.04 484.41 652.34 491.15
  C 653.78 493.41 654.42 497.08 654.78 499.82
  A 2.50 2.49 87.4 0 1 652.20 502.65
  Q 641.39 502.18 632.38 503.12
  Q 625.67 503.82 620.45 507.49
  C 613.82 512.15 611.35 522.12 612.82 529.74
  C 614.64 539.11 620.94 543.34 629.91 544.50
  Q 642.22 546.08 650.84 538.24
  A 1.14 1.13 -54.9 0 1 652.03 538.03
  Q 653.89 538.79 654.21 538.63
  A 0.35 0.35 0.0 0 1 654.72 538.87
  Z"
/>
<path fill="#081c2f" d="
  M 838.42 539.13
  A 0.60 0.59 -33.6 0 0 837.42 538.93
  Q 832.38 544.35 825.17 545.66
  C 806.62 549.03 792.44 538.22 796.87 518.36
  C 800.22 503.39 815.93 499.78 829.01 500.77
  Q 837.18 501.40 837.21 501.40
  A 1.52 1.52 0.0 0 0 838.82 499.77
  Q 838.24 492.23 833.65 489.06
  C 828.07 485.20 818.61 486.03 812.26 488.51
  Q 810.43 489.23 805.97 490.88
  A 1.49 1.48 -8.0 0 1 803.97 489.38
  L 804.64 480.18
  A 2.34 2.34 0.0 0 1 806.02 478.21
  C 816.61 473.48 830.17 472.56 840.52 476.31
  C 854.96 481.53 855.51 495.58 855.48 508.41
  Q 855.43 529.53 855.47 543.85
  A 1.96 1.95 -90.0 0 1 853.52 545.81
  L 840.65 545.81
  A 1.80 1.80 0.0 0 1 838.85 543.96
  Q 838.95 540.63 838.42 539.13
  Z
  M 841.25 543.94
  Q 847.76 544.80 853.30 543.79
  A 0.77 0.76 81.3 0 0 853.92 542.94
  Q 853.28 538.16 853.26 532.74
  Q 853.24 526.78 853.57 505.12
  C 853.64 500.37 853.25 494.28 852.15 491.12
  Q 847.98 479.16 835.02 476.72
  Q 820.15 473.92 807.07 479.67
  A 1.19 1.17 81.7 0 0 806.38 480.61
  L 805.49 488.40
  A 0.70 0.70 0.0 0 0 806.50 489.10
  C 813.59 485.52 820.14 484.22 827.64 485.34
  C 836.47 486.67 839.70 492.48 840.12 500.86
  A 0.95 0.94 -10.9 0 1 839.47 501.81
  Q 836.58 502.78 833.60 502.67
  Q 828.07 502.47 819.10 503.07
  C 805.21 503.99 796.56 514.04 798.30 528.15
  Q 799.96 541.52 813.65 544.07
  Q 826.43 546.45 836.36 538.20
  A 2.27 2.27 0.0 0 1 840.05 539.55
  L 840.72 543.44
  A 0.62 0.61 -1.2 0 0 841.25 543.94
  Z"
/>
<path fill="#081c2f" d="
  M 510.56 528.59
  Q 513.59 529.82 516.07 530.89
  Q 524.95 534.71 533.97 533.27
  C 537.82 532.65 541.66 529.07 539.85 524.62
  C 539.29 523.25 535.80 521.27 533.73 520.54
  C 520.18 515.79 503.53 511.73 505.32 493.20
  Q 506.05 485.64 510.80 481.06
  C 517.85 474.25 527.27 473.71 537.00 474.32
  Q 544.69 474.81 551.06 478.26
  A 2.36 2.36 0.0 0 1 552.28 480.60
  Q 551.84 484.37 550.45 488.19
  Q 549.67 490.33 547.44 489.56
  C 541.62 487.54 523.65 483.80 520.82 491.39
  C 518.96 496.37 523.03 499.44 527.28 501.00
  C 538.96 505.30 556.20 509.07 556.09 524.72
  C 555.98 538.96 545.00 545.94 531.91 546.62
  C 524.42 547.01 515.32 545.83 508.28 542.24
  C 506.71 541.44 505.32 540.47 505.63 538.51
  Q 506.44 533.37 509.48 528.92
  A 0.90 0.90 0.0 0 1 510.56 528.59
  Z
  M 509.87 531.37
  Q 507.84 535.75 508.80 540.63
  A 1.04 1.03 -85.6 0 0 509.47 541.42
  Q 519.84 545.21 530.52 545.10
  C 538.37 545.02 544.21 543.00 549.39 537.62
  Q 553.44 533.43 553.71 527.14
  C 553.91 522.63 553.68 518.19 550.47 514.75
  Q 545.22 509.13 537.72 506.59
  C 531.16 504.38 517.29 501.41 519.37 492.30
  C 521.82 481.56 540.52 485.68 548.17 487.59
  A 0.76 0.74 -69.9 0 0 549.03 487.18
  Q 550.24 484.61 550.66 480.85
  A 0.83 0.83 0.0 0 0 550.29 480.06
  C 542.32 474.82 525.68 474.57 517.69 478.33
  Q 506.86 483.45 507.43 496.57
  C 507.87 506.82 515.08 511.61 523.83 514.96
  C 530.32 517.45 537.78 519.46 539.93 523.16
  C 543.68 529.64 538.78 533.99 532.31 534.78
  C 525.09 535.66 518.22 533.92 511.63 530.74
  A 1.32 1.32 0.0 0 0 509.87 531.37
  Z"
/>
<path fill="#081c2f" d="
  M 407.23 544.94
  Q 413.83 542.78 420.78 543.71
  A 0.94 0.93 -86.2 0 0 421.83 542.78
  C 421.82 532.09 422.41 521.45 421.90 510.74
  C 421.44 501.24 421.66 493.95 417.60 487.11
  Q 410.98 475.97 396.87 476.71
  C 390.10 477.07 385.53 480.48 380.27 484.33
  A 2.03 2.03 0.0 0 1 377.07 483.04
  L 376.17 477.88
  A 0.29 0.29 0.0 0 0 375.91 477.64
  L 368.47 476.95
  A 0.40 0.40 0.0 0 1 368.38 476.17
  Q 369.49 475.81 370.97 475.84
  L 376.94 475.85
  A 1.23 1.23 0.0 0 1 378.17 477.08
  L 378.17 482.96
  A 0.77 0.77 0.0 0 0 379.50 483.50
  C 385.29 477.55 392.93 473.95 401.24 474.79
  C 415.80 476.27 422.96 487.98 423.46 501.76
  Q 423.97 515.52 423.64 542.75
  Q 423.61 545.26 421.42 545.15
  C 416.71 544.93 412.01 545.22 407.23 544.94
  Z"
/>
<path fill="#081c2f" d="
  M 450.49 483.11
  A 0.66 0.65 -22.6 0 0 451.61 483.57
  Q 455.34 479.88 460.08 477.45
  C 469.18 472.78 481.77 474.40 488.84 482.15
  C 495.27 489.21 496.77 498.28 496.86 507.75
  Q 496.88 509.82 496.64 543.85
  A 1.34 1.34 0.0 0 1 495.30 545.19
  L 480.79 545.19
  A 1.95 1.95 0.0 0 1 478.84 543.24
  Q 478.87 521.50 478.76 505.76
  Q 478.74 502.82 476.82 497.90
  C 474.79 492.69 468.81 490.87 463.42 491.82
  C 452.93 493.65 451.90 502.65 452.03 512.60
  Q 452.12 519.84 451.90 542.42
  Q 451.88 545.21 449.89 545.19
  Q 441.45 545.13 435.83 545.11
  A 1.56 1.55 -89.8 0 1 434.29 543.55
  L 434.29 477.79
  A 2.03 2.03 0.0 0 1 436.32 475.76
  L 448.99 475.76
  A 1.50 1.50 0.0 0 1 450.49 477.26
  L 450.49 483.11
  Z
  M 495.09 542.90
  Q 495.63 526.50 495.24 505.18
  C 495.14 500.20 494.12 495.32 492.38 491.12
  C 487.62 479.68 476.36 474.66 464.49 477.63
  C 459.64 478.84 455.46 482.60 451.30 484.48
  A 1.12 1.12 0.0 0 1 449.73 483.65
  L 448.70 477.76
  A 0.59 0.57 -4.6 0 0 448.12 477.28
  L 437.17 477.28
  A 1.20 1.20 0.0 0 0 435.97 478.48
  L 435.97 542.76
  A 0.80 0.80 0.0 0 0 436.77 543.56
  L 449.75 543.56
  A 0.85 0.84 87.5 0 0 450.59 542.64
  C 449.88 534.90 450.19 526.71 450.45 511.91
  C 450.67 499.45 454.37 487.87 469.90 491.00
  C 477.65 492.57 479.99 500.05 480.27 506.82
  Q 480.93 522.43 480.08 542.36
  A 1.18 1.18 0.0 0 0 481.26 543.59
  L 494.38 543.59
  A 0.71 0.71 0.0 0 0 495.09 542.90
  Z"
/>
<path fill="#1d3542" d="
  M 654.21 538.63
  Q 653.89 538.79 652.03 538.03
  A 1.14 1.13 -54.9 0 0 650.84 538.24
  Q 642.22 546.08 629.91 544.50
  C 620.94 543.34 614.64 539.11 612.82 529.74
  C 611.35 522.12 613.82 512.15 620.45 507.49
  Q 625.67 503.82 632.38 503.12
  Q 641.39 502.18 652.20 502.65
  A 2.50 2.49 87.4 0 0 654.78 499.82
  C 654.42 497.08 653.78 493.41 652.34 491.15
  C 648.04 484.41 638.67 483.86 631.54 485.32
  Q 626.43 486.36 621.24 488.82
  A 0.54 0.54 0.0 0 1 620.47 488.33
  L 620.47 480.76
  A 1.22 1.20 -11.2 0 1 621.23 479.64
  Q 636.02 473.71 650.50 476.67
  C 665.46 479.72 669.02 491.40 668.75 504.93
  Q 668.52 516.51 668.61 536.58
  C 668.61 538.58 668.29 541.12 667.87 543.26
  A 0.53 0.53 0.0 0 1 667.35 543.69
  L 657.31 543.69
  A 1.96 1.96 0.0 0 1 655.39 542.12
  L 654.72 538.87
  A 0.35 0.35 0.0 0 0 654.21 538.63
  Z
  M 652.98 513.16
  Q 641.56 511.52 633.26 513.43
  C 627.57 514.74 624.82 519.81 625.44 525.55
  C 626.39 534.35 635.22 536.56 642.63 534.08
  Q 651.81 531.00 653.64 520.75
  Q 654.19 517.67 653.68 513.87
  A 0.83 0.82 0.5 0 0 652.98 513.16
  Z"
/>
<path fill="#1d3542" d="
  M 840.72 543.44
  L 840.05 539.55
  A 2.27 2.27 0.0 0 0 836.36 538.20
  Q 826.43 546.45 813.65 544.07
  Q 799.96 541.52 798.30 528.15
  C 796.56 514.04 805.21 503.99 819.10 503.07
  Q 828.07 502.47 833.60 502.67
  Q 836.58 502.78 839.47 501.81
  A 0.95 0.94 -10.9 0 0 840.12 500.86
  C 839.70 492.48 836.47 486.67 827.64 485.34
  C 820.14 484.22 813.59 485.52 806.50 489.10
  A 0.70 0.70 0.0 0 1 805.49 488.40
  L 806.38 480.61
  A 1.19 1.17 81.7 0 1 807.07 479.67
  Q 820.15 473.92 835.02 476.72
  Q 847.98 479.16 852.15 491.12
  C 853.25 494.28 853.64 500.37 853.57 505.12
  Q 853.24 526.78 853.26 532.74
  Q 853.28 538.16 853.92 542.94
  A 0.77 0.76 81.3 0 1 853.30 543.79
  Q 847.76 544.80 841.25 543.94
  A 0.62 0.61 -1.2 0 1 840.72 543.44
  Z
  M 838.00 512.86
  C 831.70 512.07 824.31 511.99 819.00 513.38
  C 812.90 514.96 808.67 521.68 810.94 527.72
  C 814.33 536.75 825.41 536.26 832.23 532.00
  C 838.54 528.05 840.00 520.85 839.10 513.96
  A 1.28 1.28 0.0 0 0 838.00 512.86
  Z"
/>
<path fill="#1d3542" d="
  M 370.97 475.84
  Q 369.49 475.81 368.38 476.17
  A 0.40 0.40 0.0 0 0 368.47 476.95
  L 375.91 477.64
  A 0.29 0.29 0.0 0 1 376.17 477.88
  L 377.07 483.04
  A 2.03 2.03 0.0 0 0 380.27 484.33
  C 385.53 480.48 390.10 477.07 396.87 476.71
  Q 410.98 475.97 417.60 487.11
  C 421.66 493.95 421.44 501.24 421.90 510.74
  C 422.41 521.45 421.82 532.09 421.83 542.78
  A 0.94 0.93 -86.2 0 1 420.78 543.71
  Q 413.83 542.78 407.23 544.94
  Q 406.20 544.75 406.18 543.81
  Q 405.94 534.46 406.22 515.82
  C 408.78 507.38 408.37 493.62 398.11 491.03
  Q 383.69 487.38 379.02 501.12
  A 4.86 4.82 56.1 0 0 378.79 502.31
  C 378.59 506.18 377.95 511.30 377.95 515.94
  C 377.96 527.61 378.27 535.46 376.85 542.99
  A 0.57 0.56 6.9 0 1 376.26 543.45
  Q 371.44 543.15 367.17 545.03
  Q 365.45 545.38 364.02 545.04
  A 1.99 1.98 -83.1 0 1 362.51 543.11
  L 362.51 477.56
  A 1.73 1.73 0.0 0 1 364.24 475.83
  L 370.97 475.84
  Z"
/>
<path fill="#1d3542" d="
  M 509.87 531.37
  A 1.32 1.32 0.0 0 1 511.63 530.74
  C 518.22 533.92 525.09 535.66 532.31 534.78
  C 538.78 533.99 543.68 529.64 539.93 523.16
  C 537.78 519.46 530.32 517.45 523.83 514.96
  C 515.08 511.61 507.87 506.82 507.43 496.57
  Q 506.86 483.45 517.69 478.33
  C 525.68 474.57 542.32 474.82 550.29 480.06
  A 0.83 0.83 0.0 0 1 550.66 480.85
  Q 550.24 484.61 549.03 487.18
  A 0.76 0.74 -69.9 0 1 548.17 487.59
  C 540.52 485.68 521.82 481.56 519.37 492.30
  C 517.29 501.41 531.16 504.38 537.72 506.59
  Q 545.22 509.13 550.47 514.75
  C 553.68 518.19 553.91 522.63 553.71 527.14
  Q 553.44 533.43 549.39 537.62
  C 544.21 543.00 538.37 545.02 530.52 545.10
  Q 519.84 545.21 509.47 541.42
  A 1.04 1.03 -85.6 0 1 508.80 540.63
  Q 507.84 535.75 509.87 531.37
  Z"
/>
<path fill="#081c2f" d="
  M 890.77 522.22
  Q 888.52 520.25 887.64 517.78
  Q 884.72 509.58 880.90 497.71
  Q 877.09 485.90 874.13 478.52
  A 0.70 0.69 78.5 0 0 873.49 478.09
  L 861.30 478.09
  A 0.53 0.53 0.0 0 0 860.79 478.78
  Q 863.66 487.66 863.82 488.12
  Q 872.79 513.22 881.44 538.56
  Q 885.04 549.11 877.85 556.86
  C 874.64 560.33 869.47 561.83 864.97 562.30
  A 0.84 0.83 -4.0 0 0 864.22 563.16
  L 864.74 577.92
  Q 862.50 578.35 862.51 576.77
  Q 862.53 571.97 862.57 562.80
  A 2.05 2.04 87.4 0 1 864.41 560.77
  C 873.81 559.86 880.46 555.26 881.12 545.40
  Q 881.29 542.93 878.96 536.30
  Q 863.65 492.75 858.86 478.60
  A 1.75 1.75 0.0 0 1 860.52 476.29
  L 874.19 476.29
  A 1.73 1.73 0.0 0 1 875.83 477.46
  L 890.77 522.22
  Z"
/>
<path fill="#081c2f" d="
  M 867.20 577.99
  L 876.34 575.01
  A 3.27 3.01 18.3 0 0 877.07 574.68
  C 886.94 568.70 891.99 555.67 896.59 544.07
  Q 901.76 531.04 921.84 479.17
  A 0.91 0.91 0.0 0 0 920.99 477.93
  L 909.96 477.93
  A 1.73 1.72 9.1 0 0 908.32 479.11
  Q 901.73 499.26 895.26 517.23
  Q 894.25 520.06 891.73 522.22
  L 907.06 477.74
  A 2.13 2.12 9.4 0 1 909.07 476.31
  L 922.61 476.31
  A 1.39 1.39 0.0 0 1 923.91 478.21
  Q 919.71 489.02 897.03 547.27
  Q 893.78 555.61 889.92 562.68
  C 884.97 571.73 878.32 578.24 867.20 577.99
  Z"
/>
<path fill="#1d3542" d="
  M 494.38 543.59
  L 481.26 543.59
  A 1.18 1.18 0.0 0 1 480.08 542.36
  Q 480.93 522.43 480.27 506.82
  C 479.99 500.05 477.65 492.57 469.90 491.00
  C 454.37 487.87 450.67 499.45 450.45 511.91
  C 450.19 526.71 449.88 534.90 450.59 542.64
  A 0.85 0.84 87.5 0 1 449.75 543.56
  L 436.77 543.56
  A 0.80 0.80 0.0 0 1 435.97 542.76
  L 435.97 478.48
  A 1.20 1.20 0.0 0 1 437.17 477.28
  L 448.12 477.28
  A 0.59 0.57 -4.6 0 1 448.70 477.76
  L 449.73 483.65
  A 1.12 1.12 0.0 0 0 451.30 484.48
  C 455.46 482.60 459.64 478.84 464.49 477.63
  C 476.36 474.66 487.62 479.68 492.38 491.12
  C 494.12 495.32 495.14 500.20 495.24 505.18
  Q 495.63 526.50 495.09 542.90
  A 0.71 0.71 0.0 0 1 494.38 543.59
  Z"
/>
<path fill="#1d3542" d="
  M 890.77 522.22
  Q 890.54 522.57 891.73 522.22
  Q 894.25 520.06 895.26 517.23
  Q 901.73 499.26 908.32 479.11
  A 1.73 1.72 9.1 0 1 909.96 477.93
  L 920.99 477.93
  A 0.91 0.91 0.0 0 1 921.84 479.17
  Q 901.76 531.04 896.59 544.07
  C 891.99 555.67 886.94 568.70 877.07 574.68
  A 3.27 3.01 18.3 0 1 876.34 575.01
  L 867.20 577.99
  Q 865.99 578.22 864.74 577.92
  L 864.22 563.16
  A 0.84 0.83 -4.0 0 1 864.97 562.30
  C 869.47 561.83 874.64 560.33 877.85 556.86
  Q 885.04 549.11 881.44 538.56
  Q 872.79 513.22 863.82 488.12
  Q 863.66 487.66 860.79 478.78
  A 0.53 0.53 0.0 0 1 861.30 478.09
  L 873.49 478.09
  A 0.70 0.69 78.5 0 1 874.13 478.52
  Q 877.09 485.90 880.90 497.71
  Q 884.72 509.58 887.64 517.78
  Q 888.52 520.25 890.77 522.22
  Z"
/>
<path fill="#081c2f" d="
  M 164.66 539.89
  L 164.71 491.43
  A 1.56 1.56 0.0 0 1 165.30 490.23
  L 178.73 479.69
  Q 179.66 481.18 178.12 482.45
  Q 169.60 489.41 167.14 491.66
  A 1.11 1.09 -21.7 0 0 166.78 492.47
  Q 166.49 509.09 166.80 524.46
  C 166.90 529.26 167.10 535.56 164.66 539.89
  Z"
/>
<path fill="#081c2f" d="
  M 226.12 482.94
  L 235.86 490.40
  A 1.03 1.02 18.7 0 1 236.27 491.22
  L 236.44 535.46
  Q 234.85 532.31 234.82 530.71
  Q 234.56 514.48 233.53 498.27
  Q 233.08 491.21 226.12 482.94
  Z"
/>
<path fill="#081c2f" d="
  M 406.22 515.82
  C 406.22 509.69 407.32 497.59 401.09 493.66
  C 394.28 489.35 384.13 491.63 381.21 499.77
  Q 379.94 503.32 379.92 508.01
  Q 379.82 534.31 379.81 542.76
  Q 379.81 544.63 378.61 545.01
  Q 378.40 545.08 375.85 545.12
  Q 371.53 545.19 367.17 545.03
  Q 371.44 543.15 376.26 543.45
  A 0.57 0.56 6.9 0 0 376.85 542.99
  C 378.27 535.46 377.96 527.61 377.95 515.94
  C 377.95 511.30 378.59 506.18 378.79 502.31
  A 4.86 4.82 56.1 0 1 379.02 501.12
  Q 383.69 487.38 398.11 491.03
  C 408.37 493.62 408.78 507.38 406.22 515.82
  Z"
/>
<path fill="#081c2f" d="
  M 838.00 512.86
  A 1.28 1.28 0.0 0 1 839.10 513.96
  C 840.00 520.85 838.54 528.05 832.23 532.00
  C 825.41 536.26 814.33 536.75 810.94 527.72
  C 808.67 521.68 812.90 514.96 819.00 513.38
  C 824.31 511.99 831.70 512.07 838.00 512.86
  Z
  M 837.09 514.04
  Q 829.24 513.27 822.93 513.83
  C 807.68 515.19 807.92 535.36 823.77 533.50
  C 830.61 532.71 836.13 528.31 837.35 521.47
  Q 837.90 518.33 838.08 515.19
  A 1.10 1.09 4.4 0 0 837.09 514.04
  Z"
/>
<path fill="#081c2f" d="
  M 653.68 513.87
  Q 654.19 517.67 653.64 520.75
  Q 651.81 531.00 642.63 534.08
  C 635.22 536.56 626.39 534.35 625.44 525.55
  C 624.82 519.81 627.57 514.74 633.26 513.43
  Q 641.56 511.52 652.98 513.16
  A 0.83 0.82 0.5 0 1 653.68 513.87
  Z
  M 651.73 514.07
  Q 643.88 513.30 637.57 513.85
  C 622.33 515.20 622.56 535.37 638.40 533.52
  C 645.24 532.73 650.76 528.34 651.99 521.50
  Q 652.54 518.36 652.72 515.22
  A 1.10 1.09 4.4 0 0 651.73 514.07
  Z"
/>
<path fill="#f5f4f5" d="
  M 837.09 514.04
  A 1.10 1.09 4.4 0 1 838.08 515.19
  Q 837.90 518.33 837.35 521.47
  C 836.13 528.31 830.61 532.71 823.77 533.50
  C 807.92 535.36 807.68 515.19 822.93 513.83
  Q 829.24 513.27 837.09 514.04
  Z"
/>
<path fill="#081c2f" d="
  M 195.53 515.43
  C 192.12 515.31 188.74 515.59 188.71 519.53
  Q 188.64 531.37 188.72 543.09
  A 0.65 0.64 -4.8 0 1 188.18 543.72
  Q 178.56 545.21 168.78 544.26
  Q 169.23 542.70 170.19 542.73
  Q 177.81 542.99 186.22 542.56
  A 0.68 0.68 0.0 0 0 186.87 541.91
  Q 187.20 534.71 186.72 527.70
  Q 186.38 522.82 186.95 518.99
  C 187.96 512.23 195.04 513.44 199.71 514.47
  A 0.32 0.32 0.0 0 1 199.67 515.10
  L 195.53 515.43
  Z"
/>
<path fill="#f5f4f5" d="
  M 651.73 514.07
  A 1.10 1.09 4.4 0 1 652.72 515.22
  Q 652.54 518.36 651.99 521.50
  C 650.76 528.34 645.24 532.73 638.40 533.52
  C 622.56 535.37 622.33 515.20 637.57 513.85
  Q 643.88 513.30 651.73 514.07
  Z"
/>
<path fill="#081c2f" d="
  M 213.76 543.90
  Q 212.43 543.72 212.45 542.50
  Q 212.58 533.92 212.27 517.43
  Q 212.81 514.16 213.73 517.65
  Q 214.15 519.26 214.15 521.42
  Q 214.12 532.57 213.76 543.90
  Z"
/>
</svg>
